<?xml version="1.0" encoding="utf-8" standalone="no"?>
<!DOCTYPE svg PUBLIC "-//W3C//DTD SVG 1.1//EN"
  "http://www.w3.org/Graphics/SVG/1.1/DTD/svg11.dtd">
<svg xmlns:xlink="http://www.w3.org/1999/xlink" width="460.8pt" height="345.6pt" viewBox="0 0 460.8 345.6" xmlns="http://www.w3.org/2000/svg" version="1.1">
 <metadata>
  <rdf:RDF xmlns:dc="http://purl.org/dc/elements/1.1/" xmlns:cc="http://creativecommons.org/ns#" xmlns:rdf="http://www.w3.org/1999/02/22-rdf-syntax-ns#">
   <cc:Work>
    <dc:type rdf:resource="http://purl.org/dc/dcmitype/StillImage"/>
    <dc:date>2022-11-05T20:57:02.839363</dc:date>
    <dc:format>image/svg+xml</dc:format>
    <dc:creator>
     <cc:Agent>
      <dc:title>Matplotlib v3.6.1, https://matplotlib.org/</dc:title>
     </cc:Agent>
    </dc:creator>
   </cc:Work>
  </rdf:RDF>
 </metadata>
 <defs>
  <style type="text/css">*{stroke-linejoin: round; stroke-linecap: butt}</style>
 </defs>
 <g id="figure_1">
  <g id="patch_1">
   <path d="M 0 345.6 
L 460.8 345.6 
L 460.8 0 
L 0 0 
z
" style="fill: #ffffff"/>
  </g>
  <g id="axes_1">
   <g id="patch_2">
    <path d="M 57.6 307.584 
L 414.72 307.584 
L 414.72 41.472 
L 57.6 41.472 
z
" style="fill: #ffffff"/>
   </g>
   <g id="matplotlib.axis_1">
    <g id="xtick_1">
     <g id="line2d_1">
      <defs>
       <path id="m0f1bc5aedb" d="M 0 0 
L 0 3.5 
" style="stroke: #000000; stroke-width: 0.8"/>
      </defs>
      <g>
       <use xlink:href="#m0f1bc5aedb" x="73.832727" y="307.584" style="stroke: #000000; stroke-width: 0.8"/>
      </g>
     </g>
     <g id="text_1">
      <!-- 0.0 -->
      <g transform="translate(67.582727 321.52775) scale(0.1 -0.1)">
       <defs>
        <path id="TimesNewRomanPSMT-30" d="M 231 2094 
Q 231 2819 450 3342 
Q 669 3866 1031 4122 
Q 1313 4325 1613 4325 
Q 2100 4325 2488 3828 
Q 2972 3213 2972 2159 
Q 2972 1422 2759 906 
Q 2547 391 2217 158 
Q 1888 -75 1581 -75 
Q 975 -75 572 641 
Q 231 1244 231 2094 
z
M 844 2016 
Q 844 1141 1059 588 
Q 1238 122 1591 122 
Q 1759 122 1940 273 
Q 2122 425 2216 781 
Q 2359 1319 2359 2297 
Q 2359 3022 2209 3506 
Q 2097 3866 1919 4016 
Q 1791 4119 1609 4119 
Q 1397 4119 1231 3928 
Q 1006 3669 925 3112 
Q 844 2556 844 2016 
z
" transform="scale(0.015625)"/>
        <path id="TimesNewRomanPSMT-2e" d="M 800 606 
Q 947 606 1047 504 
Q 1147 403 1147 259 
Q 1147 116 1045 14 
Q 944 -88 800 -88 
Q 656 -88 554 14 
Q 453 116 453 259 
Q 453 406 554 506 
Q 656 606 800 606 
z
" transform="scale(0.015625)"/>
       </defs>
       <use xlink:href="#TimesNewRomanPSMT-30"/>
       <use xlink:href="#TimesNewRomanPSMT-2e" x="50"/>
       <use xlink:href="#TimesNewRomanPSMT-30" x="75"/>
      </g>
     </g>
    </g>
    <g id="xtick_2">
     <g id="line2d_2">
      <g>
       <use xlink:href="#m0f1bc5aedb" x="138.763636" y="307.584" style="stroke: #000000; stroke-width: 0.8"/>
      </g>
     </g>
     <g id="text_2">
      <!-- 0.2 -->
      <g transform="translate(132.513636 321.52775) scale(0.1 -0.1)">
       <defs>
        <path id="TimesNewRomanPSMT-32" d="M 2934 816 
L 2638 0 
L 138 0 
L 138 116 
Q 1241 1122 1691 1759 
Q 2141 2397 2141 2925 
Q 2141 3328 1894 3587 
Q 1647 3847 1303 3847 
Q 991 3847 742 3664 
Q 494 3481 375 3128 
L 259 3128 
Q 338 3706 661 4015 
Q 984 4325 1469 4325 
Q 1984 4325 2329 3994 
Q 2675 3663 2675 3213 
Q 2675 2891 2525 2569 
Q 2294 2063 1775 1497 
Q 997 647 803 472 
L 1909 472 
Q 2247 472 2383 497 
Q 2519 522 2628 598 
Q 2738 675 2819 816 
L 2934 816 
z
" transform="scale(0.015625)"/>
       </defs>
       <use xlink:href="#TimesNewRomanPSMT-30"/>
       <use xlink:href="#TimesNewRomanPSMT-2e" x="50"/>
       <use xlink:href="#TimesNewRomanPSMT-32" x="75"/>
      </g>
     </g>
    </g>
    <g id="xtick_3">
     <g id="line2d_3">
      <g>
       <use xlink:href="#m0f1bc5aedb" x="203.694545" y="307.584" style="stroke: #000000; stroke-width: 0.8"/>
      </g>
     </g>
     <g id="text_3">
      <!-- 0.4 -->
      <g transform="translate(197.444545 321.52775) scale(0.1 -0.1)">
       <defs>
        <path id="TimesNewRomanPSMT-34" d="M 2978 1563 
L 2978 1119 
L 2409 1119 
L 2409 0 
L 1894 0 
L 1894 1119 
L 100 1119 
L 100 1519 
L 2066 4325 
L 2409 4325 
L 2409 1563 
L 2978 1563 
z
M 1894 1563 
L 1894 3666 
L 406 1563 
L 1894 1563 
z
" transform="scale(0.015625)"/>
       </defs>
       <use xlink:href="#TimesNewRomanPSMT-30"/>
       <use xlink:href="#TimesNewRomanPSMT-2e" x="50"/>
       <use xlink:href="#TimesNewRomanPSMT-34" x="75"/>
      </g>
     </g>
    </g>
    <g id="xtick_4">
     <g id="line2d_4">
      <g>
       <use xlink:href="#m0f1bc5aedb" x="268.625455" y="307.584" style="stroke: #000000; stroke-width: 0.8"/>
      </g>
     </g>
     <g id="text_4">
      <!-- 0.6 -->
      <g transform="translate(262.375455 321.52775) scale(0.1 -0.1)">
       <defs>
        <path id="TimesNewRomanPSMT-36" d="M 2869 4325 
L 2869 4209 
Q 2456 4169 2195 4045 
Q 1934 3922 1679 3669 
Q 1425 3416 1258 3105 
Q 1091 2794 978 2366 
Q 1428 2675 1881 2675 
Q 2316 2675 2634 2325 
Q 2953 1975 2953 1425 
Q 2953 894 2631 456 
Q 2244 -75 1606 -75 
Q 1172 -75 869 213 
Q 275 772 275 1663 
Q 275 2231 503 2743 
Q 731 3256 1154 3653 
Q 1578 4050 1965 4187 
Q 2353 4325 2688 4325 
L 2869 4325 
z
M 925 2138 
Q 869 1716 869 1456 
Q 869 1156 980 804 
Q 1091 453 1309 247 
Q 1469 100 1697 100 
Q 1969 100 2183 356 
Q 2397 613 2397 1088 
Q 2397 1622 2184 2012 
Q 1972 2403 1581 2403 
Q 1463 2403 1327 2353 
Q 1191 2303 925 2138 
z
" transform="scale(0.015625)"/>
       </defs>
       <use xlink:href="#TimesNewRomanPSMT-30"/>
       <use xlink:href="#TimesNewRomanPSMT-2e" x="50"/>
       <use xlink:href="#TimesNewRomanPSMT-36" x="75"/>
      </g>
     </g>
    </g>
    <g id="xtick_5">
     <g id="line2d_5">
      <g>
       <use xlink:href="#m0f1bc5aedb" x="333.556364" y="307.584" style="stroke: #000000; stroke-width: 0.8"/>
      </g>
     </g>
     <g id="text_5">
      <!-- 0.8 -->
      <g transform="translate(327.306364 321.52775) scale(0.1 -0.1)">
       <defs>
        <path id="TimesNewRomanPSMT-38" d="M 1228 2134 
Q 725 2547 579 2797 
Q 434 3047 434 3316 
Q 434 3728 753 4026 
Q 1072 4325 1600 4325 
Q 2113 4325 2425 4047 
Q 2738 3769 2738 3413 
Q 2738 3175 2569 2928 
Q 2400 2681 1866 2347 
Q 2416 1922 2594 1678 
Q 2831 1359 2831 1006 
Q 2831 559 2490 242 
Q 2150 -75 1597 -75 
Q 994 -75 656 303 
Q 388 606 388 966 
Q 388 1247 577 1523 
Q 766 1800 1228 2134 
z
M 1719 2469 
Q 2094 2806 2194 3001 
Q 2294 3197 2294 3444 
Q 2294 3772 2109 3958 
Q 1925 4144 1606 4144 
Q 1288 4144 1088 3959 
Q 888 3775 888 3528 
Q 888 3366 970 3203 
Q 1053 3041 1206 2894 
L 1719 2469 
z
M 1375 2016 
Q 1116 1797 991 1539 
Q 866 1281 866 981 
Q 866 578 1086 336 
Q 1306 94 1647 94 
Q 1984 94 2187 284 
Q 2391 475 2391 747 
Q 2391 972 2272 1150 
Q 2050 1481 1375 2016 
z
" transform="scale(0.015625)"/>
       </defs>
       <use xlink:href="#TimesNewRomanPSMT-30"/>
       <use xlink:href="#TimesNewRomanPSMT-2e" x="50"/>
       <use xlink:href="#TimesNewRomanPSMT-38" x="75"/>
      </g>
     </g>
    </g>
    <g id="xtick_6">
     <g id="line2d_6">
      <g>
       <use xlink:href="#m0f1bc5aedb" x="398.487273" y="307.584" style="stroke: #000000; stroke-width: 0.8"/>
      </g>
     </g>
     <g id="text_6">
      <!-- 1.0 -->
      <g transform="translate(392.237273 321.52775) scale(0.1 -0.1)">
       <defs>
        <path id="TimesNewRomanPSMT-31" d="M 750 3822 
L 1781 4325 
L 1884 4325 
L 1884 747 
Q 1884 391 1914 303 
Q 1944 216 2037 169 
Q 2131 122 2419 116 
L 2419 0 
L 825 0 
L 825 116 
Q 1125 122 1212 167 
Q 1300 213 1334 289 
Q 1369 366 1369 747 
L 1369 3034 
Q 1369 3497 1338 3628 
Q 1316 3728 1258 3775 
Q 1200 3822 1119 3822 
Q 1003 3822 797 3725 
L 750 3822 
z
" transform="scale(0.015625)"/>
       </defs>
       <use xlink:href="#TimesNewRomanPSMT-31"/>
       <use xlink:href="#TimesNewRomanPSMT-2e" x="50"/>
       <use xlink:href="#TimesNewRomanPSMT-30" x="75"/>
      </g>
     </g>
    </g>
    <g id="text_7">
     <!-- 概率 -->
     <g transform="translate(226.16 334.785562) scale(0.1 -0.1)">
      <defs>
       <path id="SimSun-6982" d="M 2700 4500 
L 2700 3450 
L 3375 3450 
L 3375 4500 
L 2700 4500 
z
M 2700 3300 
L 2700 2300 
L 3375 2300 
L 3375 3300 
L 2700 3300 
z
M 2700 725 
L 3425 1200 
Q 3350 1375 3025 1775 
L 3050 1850 
Q 3550 1525 3712 1337 
Q 3875 1150 3875 1000 
Q 3875 875 3800 750 
Q 3725 625 3700 625 
Q 3650 625 3625 725 
Q 3550 900 3475 1100 
Q 2900 600 2575 150 
L 2325 475 
Q 2400 625 2400 950 
L 2400 3475 
Q 2400 3975 2375 4825 
L 2700 4650 
L 3350 4650 
L 3550 4850 
L 3875 4525 
L 3650 4400 
Q 3650 2825 3675 2150 
L 3375 1975 
L 3375 2150 
L 2700 2150 
L 2700 725 
z
M 5025 2400 
L 4950 2075 
L 5350 1850 
L 5175 1675 
L 5175 100 
Q 5175 -125 5350 -125 
L 5525 -125 
Q 5750 -125 5762 162 
Q 5775 450 5775 825 
L 5900 825 
Q 5900 450 5962 225 
Q 6025 0 6150 -75 
Q 6075 -250 5950 -325 
Q 5825 -400 5625 -400 
L 5225 -400 
Q 4875 -400 4875 0 
L 4875 1825 
Q 4350 75 2650 -650 
L 2625 -575 
Q 4275 350 4700 2400 
L 4225 2400 
L 4050 2250 
L 3775 2550 
Q 3925 2625 4012 2975 
Q 4100 3325 4225 4075 
L 4600 3850 
Q 4475 3800 4425 3575 
Q 4375 3325 4200 2550 
L 4725 2550 
Q 4800 3100 4850 4500 
L 4425 4500 
L 4200 4450 
L 4000 4650 
L 5400 4650 
L 5650 4900 
L 6050 4500 
L 5175 4500 
Q 5100 3100 5050 2550 
L 5400 2550 
L 5675 2825 
L 6100 2400 
L 5025 2400 
z
M 1550 775 
Q 1550 425 1575 -450 
L 1225 -625 
Q 1250 850 1250 2400 
Q 925 1525 300 750 
L 250 825 
Q 575 1400 825 2062 
Q 1075 2725 1225 3575 
L 775 3575 
L 550 3525 
L 350 3725 
L 1250 3725 
Q 1250 4400 1225 5275 
L 1750 5000 
L 1550 4850 
L 1550 3725 
L 1675 3725 
L 1925 3975 
L 2325 3575 
L 1550 3575 
L 1550 3000 
Q 2025 2800 2175 2650 
Q 2325 2500 2325 2350 
Q 2325 2250 2262 2100 
Q 2200 1950 2175 1950 
Q 2100 1950 2000 2200 
Q 1850 2550 1550 2850 
L 1550 775 
z
" transform="scale(0.015625)"/>
       <path id="SimSun-7387" d="M 875 3725 
L 925 3800 
Q 1375 3650 1550 3525 
Q 1725 3400 1725 3250 
Q 1725 3175 1662 3025 
Q 1600 2875 1550 2875 
Q 1500 2875 1425 3050 
Q 1275 3325 875 3725 
z
M 550 1850 
Q 875 1925 2000 2575 
L 2050 2500 
Q 1675 2225 1337 1937 
Q 1000 1650 875 1425 
L 550 1850 
z
M 5200 3450 
Q 4800 3150 4275 2800 
L 4225 2875 
Q 4775 3400 5050 3925 
L 5450 3525 
L 5200 3450 
z
M 4325 2500 
L 4350 2575 
Q 5225 2350 5375 2212 
Q 5525 2075 5525 1900 
Q 5525 1775 5487 1662 
Q 5450 1550 5400 1550 
Q 5325 1550 5200 1800 
Q 4975 2150 4325 2500 
z
M 3150 3900 
Q 2500 3300 2300 3150 
Q 2800 3150 3400 3175 
Q 3700 3500 3850 3825 
L 4250 3450 
Q 4050 3400 3450 2825 
Q 2850 2250 2475 1950 
Q 3150 1975 3850 2000 
Q 3750 2175 3550 2450 
L 3600 2500 
Q 4050 2250 4200 2100 
Q 4350 1950 4350 1850 
Q 4350 1775 4250 1625 
Q 4150 1475 4100 1475 
Q 4075 1475 4050 1550 
Q 4000 1700 3900 1900 
Q 3650 1875 3075 1800 
L 3500 1550 
L 3325 1425 
L 3325 975 
L 5325 975 
L 5650 1300 
L 6100 825 
L 3325 825 
Q 3325 -275 3350 -525 
L 2975 -650 
Q 3000 0 3000 825 
L 1125 825 
Q 800 825 525 750 
L 300 975 
L 3000 975 
L 3000 1775 
Q 2450 1700 2200 1525 
L 1950 1950 
Q 2275 1950 2675 2350 
Q 3075 2750 3325 3050 
Q 2400 2950 2150 2775 
L 1950 3175 
Q 2150 3150 2475 3575 
Q 2800 4000 2900 4225 
L 1450 4225 
Q 1125 4225 850 4150 
L 625 4375 
L 3100 4375 
Q 3050 4800 2675 5200 
L 2725 5250 
Q 3225 5050 3337 4912 
Q 3450 4775 3450 4700 
Q 3450 4550 3250 4375 
L 5025 4375 
L 5350 4675 
L 5775 4225 
L 3050 4225 
L 3375 3950 
L 3150 3900 
z
" transform="scale(0.015625)"/>
      </defs>
      <use xlink:href="#SimSun-6982"/>
      <use xlink:href="#SimSun-7387" x="100"/>
     </g>
    </g>
   </g>
   <g id="matplotlib.axis_2">
    <g id="ytick_1">
     <g id="line2d_7">
      <defs>
       <path id="m1562d9a197" d="M 0 0 
L -3.5 0 
" style="stroke: #000000; stroke-width: 0.8"/>
      </defs>
      <g>
       <use xlink:href="#m1562d9a197" x="57.6" y="289.733769" style="stroke: #000000; stroke-width: 0.8"/>
      </g>
     </g>
     <g id="text_8">
      <!-- 24 -->
      <g transform="translate(40.6 293.205644) scale(0.1 -0.1)">
       <use xlink:href="#TimesNewRomanPSMT-32"/>
       <use xlink:href="#TimesNewRomanPSMT-34" x="50"/>
      </g>
     </g>
    </g>
    <g id="ytick_2">
     <g id="line2d_8">
      <g>
       <use xlink:href="#m1562d9a197" x="57.6" y="254.183276" style="stroke: #000000; stroke-width: 0.8"/>
      </g>
     </g>
     <g id="text_9">
      <!-- 26 -->
      <g transform="translate(40.6 257.655151) scale(0.1 -0.1)">
       <use xlink:href="#TimesNewRomanPSMT-32"/>
       <use xlink:href="#TimesNewRomanPSMT-36" x="50"/>
      </g>
     </g>
    </g>
    <g id="ytick_3">
     <g id="line2d_9">
      <g>
       <use xlink:href="#m1562d9a197" x="57.6" y="218.632784" style="stroke: #000000; stroke-width: 0.8"/>
      </g>
     </g>
     <g id="text_10">
      <!-- 28 -->
      <g transform="translate(40.6 222.104659) scale(0.1 -0.1)">
       <use xlink:href="#TimesNewRomanPSMT-32"/>
       <use xlink:href="#TimesNewRomanPSMT-38" x="50"/>
      </g>
     </g>
    </g>
    <g id="ytick_4">
     <g id="line2d_10">
      <g>
       <use xlink:href="#m1562d9a197" x="57.6" y="183.082292" style="stroke: #000000; stroke-width: 0.8"/>
      </g>
     </g>
     <g id="text_11">
      <!-- 30 -->
      <g transform="translate(40.6 186.554167) scale(0.1 -0.1)">
       <defs>
        <path id="TimesNewRomanPSMT-33" d="M 325 3431 
Q 506 3859 782 4092 
Q 1059 4325 1472 4325 
Q 1981 4325 2253 3994 
Q 2459 3747 2459 3466 
Q 2459 3003 1878 2509 
Q 2269 2356 2469 2072 
Q 2669 1788 2669 1403 
Q 2669 853 2319 450 
Q 1863 -75 997 -75 
Q 569 -75 414 31 
Q 259 138 259 259 
Q 259 350 332 419 
Q 406 488 509 488 
Q 588 488 669 463 
Q 722 447 909 348 
Q 1097 250 1169 231 
Q 1284 197 1416 197 
Q 1734 197 1970 444 
Q 2206 691 2206 1028 
Q 2206 1275 2097 1509 
Q 2016 1684 1919 1775 
Q 1784 1900 1550 2001 
Q 1316 2103 1072 2103 
L 972 2103 
L 972 2197 
Q 1219 2228 1467 2375 
Q 1716 2522 1828 2728 
Q 1941 2934 1941 3181 
Q 1941 3503 1739 3701 
Q 1538 3900 1238 3900 
Q 753 3900 428 3381 
L 325 3431 
z
" transform="scale(0.015625)"/>
       </defs>
       <use xlink:href="#TimesNewRomanPSMT-33"/>
       <use xlink:href="#TimesNewRomanPSMT-30" x="50"/>
      </g>
     </g>
    </g>
    <g id="ytick_5">
     <g id="line2d_11">
      <g>
       <use xlink:href="#m1562d9a197" x="57.6" y="147.531799" style="stroke: #000000; stroke-width: 0.8"/>
      </g>
     </g>
     <g id="text_12">
      <!-- 32 -->
      <g transform="translate(40.6 151.003674) scale(0.1 -0.1)">
       <use xlink:href="#TimesNewRomanPSMT-33"/>
       <use xlink:href="#TimesNewRomanPSMT-32" x="50"/>
      </g>
     </g>
    </g>
    <g id="ytick_6">
     <g id="line2d_12">
      <g>
       <use xlink:href="#m1562d9a197" x="57.6" y="111.981307" style="stroke: #000000; stroke-width: 0.8"/>
      </g>
     </g>
     <g id="text_13">
      <!-- 34 -->
      <g transform="translate(40.6 115.453182) scale(0.1 -0.1)">
       <use xlink:href="#TimesNewRomanPSMT-33"/>
       <use xlink:href="#TimesNewRomanPSMT-34" x="50"/>
      </g>
     </g>
    </g>
    <g id="ytick_7">
     <g id="line2d_13">
      <g>
       <use xlink:href="#m1562d9a197" x="57.6" y="76.430815" style="stroke: #000000; stroke-width: 0.8"/>
      </g>
     </g>
     <g id="text_14">
      <!-- 36 -->
      <g transform="translate(40.6 79.90269) scale(0.1 -0.1)">
       <use xlink:href="#TimesNewRomanPSMT-33"/>
       <use xlink:href="#TimesNewRomanPSMT-36" x="50"/>
      </g>
     </g>
    </g>
    <g id="text_15">
     <!-- T(x)统计量(MB) -->
     <g transform="translate(34.460938 209.522531) rotate(-90) scale(0.1 -0.1)">
      <defs>
       <path id="TimesNewRomanPSMT-54" d="M 3703 4238 
L 3750 3244 
L 3631 3244 
Q 3597 3506 3538 3619 
Q 3441 3800 3280 3886 
Q 3119 3972 2856 3972 
L 2259 3972 
L 2259 734 
Q 2259 344 2344 247 
Q 2463 116 2709 116 
L 2856 116 
L 2856 0 
L 1059 0 
L 1059 116 
L 1209 116 
Q 1478 116 1591 278 
Q 1659 378 1659 734 
L 1659 3972 
L 1150 3972 
Q 853 3972 728 3928 
Q 566 3869 450 3700 
Q 334 3531 313 3244 
L 194 3244 
L 244 4238 
L 3703 4238 
z
" transform="scale(0.015625)"/>
       <path id="TimesNewRomanPSMT-28" d="M 1988 -1253 
L 1988 -1369 
Q 1516 -1131 1200 -813 
Q 750 -359 506 256 
Q 263 872 263 1534 
Q 263 2503 741 3301 
Q 1219 4100 1988 4444 
L 1988 4313 
Q 1603 4100 1356 3731 
Q 1109 3363 987 2797 
Q 866 2231 866 1616 
Q 866 947 969 400 
Q 1050 -31 1165 -292 
Q 1281 -553 1476 -793 
Q 1672 -1034 1988 -1253 
z
" transform="scale(0.015625)"/>
       <path id="TimesNewRomanPSMT-78" d="M 84 2863 
L 1431 2863 
L 1431 2747 
Q 1303 2747 1251 2703 
Q 1200 2659 1200 2588 
Q 1200 2513 1309 2356 
Q 1344 2306 1413 2200 
L 1616 1875 
L 1850 2200 
Q 2075 2509 2075 2591 
Q 2075 2656 2022 2701 
Q 1969 2747 1850 2747 
L 1850 2863 
L 2819 2863 
L 2819 2747 
Q 2666 2738 2553 2663 
Q 2400 2556 2134 2200 
L 1744 1678 
L 2456 653 
Q 2719 275 2831 198 
Q 2944 122 3122 113 
L 3122 0 
L 1772 0 
L 1772 113 
Q 1913 113 1991 175 
Q 2050 219 2050 291 
Q 2050 363 1850 653 
L 1431 1266 
L 972 653 
Q 759 369 759 316 
Q 759 241 829 180 
Q 900 119 1041 113 
L 1041 0 
L 106 0 
L 106 113 
Q 219 128 303 191 
Q 422 281 703 653 
L 1303 1450 
L 759 2238 
Q 528 2575 401 2661 
Q 275 2747 84 2747 
L 84 2863 
z
" transform="scale(0.015625)"/>
       <path id="TimesNewRomanPSMT-29" d="M 144 4313 
L 144 4444 
Q 619 4209 934 3891 
Q 1381 3434 1625 2820 
Q 1869 2206 1869 1541 
Q 1869 572 1392 -226 
Q 916 -1025 144 -1369 
L 144 -1253 
Q 528 -1038 776 -670 
Q 1025 -303 1145 264 
Q 1266 831 1266 1447 
Q 1266 2113 1163 2663 
Q 1084 3094 967 3353 
Q 850 3613 656 3853 
Q 463 4094 144 4313 
z
" transform="scale(0.015625)"/>
       <path id="SimSun-7edf" d="M 3675 5150 
L 3725 5225 
Q 4350 4925 4425 4737 
Q 4500 4550 4375 4387 
Q 4250 4225 4200 4225 
Q 4125 4225 4075 4450 
Q 3975 4800 3675 5150 
z
M 2675 2525 
Q 2950 2600 3337 3100 
Q 3725 3600 3900 4050 
L 3350 4050 
Q 3025 4050 2750 3975 
L 2525 4200 
L 5225 4200 
L 5575 4550 
L 6000 4050 
L 4025 4050 
L 4400 3750 
Q 4150 3675 3875 3400 
Q 3600 3125 3100 2525 
L 5175 2625 
Q 4900 2950 4550 3275 
L 4600 3350 
Q 5025 3150 5362 2950 
Q 5700 2750 5737 2650 
Q 5775 2550 5775 2450 
Q 5775 2300 5712 2175 
Q 5650 2050 5600 2050 
Q 5575 2050 5525 2150 
Q 5425 2300 5275 2500 
Q 4525 2425 3862 2337 
Q 3200 2250 2900 2050 
L 2675 2525 
z
M 3500 2275 
L 3875 2350 
L 3850 1775 
Q 3775 550 3325 112 
Q 2875 -325 1950 -600 
L 1925 -525 
Q 2625 -175 2950 150 
Q 3275 475 3387 962 
Q 3500 1450 3500 2275 
z
M 4475 2450 
L 4800 2500 
L 4800 1750 
L 4800 175 
Q 4775 -150 5175 -125 
L 5375 -125 
Q 5625 -125 5650 87 
Q 5675 300 5700 825 
L 5825 825 
Q 5825 425 5875 187 
Q 5925 -50 6100 -75 
Q 5975 -425 5600 -425 
L 4975 -425 
Q 4475 -450 4475 25 
L 4475 2450 
z
M 425 500 
Q 675 525 1212 637 
Q 1750 750 2700 975 
L 2725 875 
Q 2200 700 1550 462 
Q 900 225 675 -25 
L 425 500 
z
M 1000 1825 
Q 1275 1850 2625 2025 
L 2650 1925 
Q 2050 1800 1550 1650 
Q 1050 1500 800 1300 
L 500 1825 
Q 725 1875 1125 2312 
Q 1525 2750 1825 3175 
Q 1450 3100 1175 3037 
Q 900 2975 650 2800 
L 400 3225 
Q 675 3300 1050 3912 
Q 1425 4525 1650 5225 
L 2125 4900 
Q 1925 4775 1675 4400 
Q 1425 4000 825 3225 
Q 1475 3275 1900 3300 
Q 2100 3575 2300 4025 
L 2750 3675 
Q 2525 3575 2100 3050 
Q 1650 2525 1000 1825 
z
" transform="scale(0.015625)"/>
       <path id="SimSun-8ba1" d="M 975 4975 
L 1000 5050 
Q 1550 4800 1762 4625 
Q 1975 4450 1975 4275 
Q 1975 4100 1887 4025 
Q 1800 3950 1775 3950 
Q 1650 3950 1550 4250 
Q 1375 4625 975 4975 
z
M 1650 375 
L 2625 1225 
L 2675 1150 
Q 1800 25 1600 -350 
L 1225 75 
Q 1325 225 1325 550 
L 1325 2800 
L 675 2800 
L 900 2800 
Q 750 2800 475 2725 
L 250 2950 
L 1275 2950 
L 1550 3225 
L 1900 2875 
L 1650 2700 
L 1650 375 
z
M 3850 2925 
Q 3850 4600 3825 5100 
L 4425 4825 
L 4225 4625 
L 4225 2925 
L 5350 2925 
L 5675 3250 
L 6125 2775 
L 4225 2775 
L 4225 500 
Q 4225 0 4250 -425 
L 3825 -600 
Q 3850 175 3850 575 
L 3850 2775 
L 2575 2775 
L 2950 2775 
Q 2650 2775 2375 2700 
L 2150 2925 
L 3850 2925 
z
" transform="scale(0.015625)"/>
       <path id="SimSun-91cf" d="M 1700 2400 
L 1700 1875 
L 3025 1875 
L 3025 2400 
L 1700 2400 
z
M 3350 2400 
L 3350 1875 
L 4625 1875 
L 4625 2400 
L 3350 2400 
z
M 1700 1725 
L 1700 1225 
L 3025 1225 
L 3025 1725 
L 1700 1725 
z
M 3350 1725 
L 3350 1225 
L 4625 1225 
L 4625 1725 
L 3350 1725 
z
M 4950 2325 
Q 4950 1350 4975 1025 
L 4625 875 
L 4625 1075 
L 3350 1075 
L 3350 525 
L 4700 525 
L 5050 825 
L 5450 375 
L 3350 375 
L 3350 -225 
L 5275 -225 
L 5650 125 
L 6075 -375 
L 1175 -375 
Q 850 -375 575 -450 
L 350 -225 
L 3025 -225 
L 3025 375 
L 1725 375 
Q 1400 375 1125 300 
L 900 525 
L 3025 525 
L 3025 1075 
L 1700 1075 
L 1700 925 
L 1350 800 
Q 1375 1300 1375 1787 
Q 1375 2275 1350 2750 
L 1700 2550 
L 4600 2550 
L 4750 2750 
L 5125 2475 
L 4950 2325 
z
M 1775 4800 
L 1775 4375 
L 4550 4375 
L 4550 4800 
L 1775 4800 
z
M 1775 4225 
L 1775 3775 
L 4550 3775 
L 4550 4225 
L 1775 4225 
z
M 4875 4750 
Q 4875 3825 4900 3525 
L 4550 3375 
L 4550 3625 
L 1775 3625 
L 1775 3400 
L 1425 3250 
Q 1450 3650 1450 4262 
Q 1450 4875 1425 5125 
L 1800 4950 
L 4500 4950 
L 4650 5175 
L 5050 4900 
L 4875 4750 
z
M 250 3125 
L 5375 3125 
L 5725 3450 
L 6150 2975 
L 950 2975 
Q 750 2975 475 2900 
L 250 3125 
z
" transform="scale(0.015625)"/>
       <path id="TimesNewRomanPSMT-4d" d="M 2619 0 
L 981 3566 
L 981 734 
Q 981 344 1066 247 
Q 1181 116 1431 116 
L 1581 116 
L 1581 0 
L 106 0 
L 106 116 
L 256 116 
Q 525 116 638 278 
Q 706 378 706 734 
L 706 3503 
Q 706 3784 644 3909 
Q 600 4000 483 4061 
Q 366 4122 106 4122 
L 106 4238 
L 1306 4238 
L 2844 922 
L 4356 4238 
L 5556 4238 
L 5556 4122 
L 5409 4122 
Q 5138 4122 5025 3959 
Q 4956 3859 4956 3503 
L 4956 734 
Q 4956 344 5044 247 
Q 5159 116 5409 116 
L 5556 116 
L 5556 0 
L 3756 0 
L 3756 116 
L 3906 116 
Q 4178 116 4288 278 
Q 4356 378 4356 734 
L 4356 3566 
L 2722 0 
L 2619 0 
z
" transform="scale(0.015625)"/>
       <path id="TimesNewRomanPSMT-42" d="M 2956 2163 
Q 3397 2069 3616 1863 
Q 3919 1575 3919 1159 
Q 3919 844 3719 555 
Q 3519 266 3170 133 
Q 2822 0 2106 0 
L 106 0 
L 106 116 
L 266 116 
Q 531 116 647 284 
Q 719 394 719 750 
L 719 3488 
Q 719 3881 628 3984 
Q 506 4122 266 4122 
L 106 4122 
L 106 4238 
L 1938 4238 
Q 2450 4238 2759 4163 
Q 3228 4050 3475 3764 
Q 3722 3478 3722 3106 
Q 3722 2788 3528 2536 
Q 3334 2284 2956 2163 
z
M 1319 2331 
Q 1434 2309 1582 2298 
Q 1731 2288 1909 2288 
Q 2366 2288 2595 2386 
Q 2825 2484 2947 2687 
Q 3069 2891 3069 3131 
Q 3069 3503 2766 3765 
Q 2463 4028 1881 4028 
Q 1569 4028 1319 3959 
L 1319 2331 
z
M 1319 306 
Q 1681 222 2034 222 
Q 2600 222 2897 476 
Q 3194 731 3194 1106 
Q 3194 1353 3059 1581 
Q 2925 1809 2622 1940 
Q 2319 2072 1872 2072 
Q 1678 2072 1540 2065 
Q 1403 2059 1319 2044 
L 1319 306 
z
" transform="scale(0.015625)"/>
      </defs>
      <use xlink:href="#TimesNewRomanPSMT-54"/>
      <use xlink:href="#TimesNewRomanPSMT-28" x="61.083984"/>
      <use xlink:href="#TimesNewRomanPSMT-78" x="94.384766"/>
      <use xlink:href="#TimesNewRomanPSMT-29" x="144.384766"/>
      <use xlink:href="#SimSun-7edf" x="177.685547"/>
      <use xlink:href="#SimSun-8ba1" x="277.685547"/>
      <use xlink:href="#SimSun-91cf" x="377.685547"/>
      <use xlink:href="#TimesNewRomanPSMT-28" x="477.685547"/>
      <use xlink:href="#TimesNewRomanPSMT-4d" x="510.986328"/>
      <use xlink:href="#TimesNewRomanPSMT-42" x="599.902344"/>
      <use xlink:href="#TimesNewRomanPSMT-29" x="666.601562"/>
     </g>
    </g>
   </g>
   <g id="line2d_14">
    <path d="M 74.157707 277.367154 
L 74.482686 270.895566 
L 75.132645 263.996023 
L 75.782604 259.725936 
L 76.757543 255.254372 
L 77.732482 251.943567 
L 79.0324 248.503648 
L 80.332318 245.736831 
L 81.957215 242.874673 
L 83.582113 240.458502 
L 85.53199 237.965855 
L 87.806847 235.456195 
L 90.406683 232.96421 
L 93.331499 230.508561 
L 96.581294 228.097983 
L 100.156069 225.735233 
L 104.055823 223.41954 
L 108.605536 220.981957 
L 113.805209 218.463206 
L 119.65484 215.890649 
L 126.154431 213.281446 
L 133.62896 210.530255 
L 142.078428 207.66681 
L 151.502834 204.70882 
L 162.552138 201.48022 
L 175.226339 198.01277 
L 190.500377 194.072406 
L 209.674169 189.366287 
L 241.197183 181.895271 
L 272.720197 174.351302 
L 290.91905 169.771067 
L 305.218149 165.954215 
L 317.242391 162.525244 
L 327.641736 159.335894 
L 336.741163 156.315947 
L 344.540672 153.50165 
L 351.365242 150.81468 
L 357.539853 148.147462 
L 362.739525 145.674438 
L 367.614218 143.109044 
L 371.838952 140.631791 
L 375.413726 138.292673 
L 378.663522 135.910576 
L 381.588337 133.489415 
L 384.188174 131.039299 
L 386.46303 128.580361 
L 388.412907 126.148538 
L 390.037805 123.803544 
L 391.662703 121.045098 
L 392.962621 118.403709 
L 394.262539 115.164545 
L 395.237477 112.108637 
L 396.212416 108.113452 
L 396.862375 104.495177 
L 397.512334 99.247764 
L 397.837314 95.269017 
L 398.162293 88.79743 
L 398.162293 88.79743 
" clip-path="url(#p7b70e56dbe)" style="fill: none; stroke: #000000; stroke-width: 0.5; stroke-linecap: square"/>
   </g>
   <g id="line2d_15">
    <path d="M 73.832727 236.225645 
L 154.752629 236.225645 
L 155.077609 183.015758 
L 235.99751 183.015758 
L 236.32249 175.087435 
L 317.242391 175.087435 
L 317.567371 167.924995 
L 398.487273 167.924995 
L 398.487273 167.924995 
" clip-path="url(#p7b70e56dbe)" style="fill: none; stroke: #00ffff; stroke-width: 0.5; stroke-linecap: square"/>
   </g>
   <g id="line2d_16">
    <path d="M 73.832727 228.819758 
L 93.981458 228.819758 
L 94.306437 226.633466 
L 114.130188 226.633466 
L 114.455168 223.279956 
L 134.603898 223.279956 
L 134.928878 200.024274 
L 154.752629 200.024274 
L 155.077609 192.456145 
L 175.226339 192.456145 
L 175.551319 190.923332 
L 195.37507 190.923332 
L 195.700049 182.439784 
L 215.84878 182.439784 
L 216.173759 178.506498 
L 235.99751 178.506498 
L 236.32249 173.574827 
L 256.146241 173.574827 
L 256.47122 171.115797 
L 276.619951 171.115797 
L 276.94493 169.718306 
L 296.768681 169.718306 
L 297.093661 168.105341 
L 317.242391 168.105341 
L 317.567371 165.21579 
L 337.391122 165.21579 
L 337.716102 145.487866 
L 357.864832 145.487866 
L 358.189812 138.547951 
L 378.013563 138.547951 
L 378.338542 114.032746 
L 398.487273 114.032746 
L 398.487273 114.032746 
" clip-path="url(#p7b70e56dbe)" style="fill: none; stroke: #0000ff; stroke-width: 0.5; stroke-linecap: square"/>
   </g>
   <g id="line2d_17">
    <path d="M 73.832727 254.366697 
L 78.70742 254.366697 
L 79.0324 248.916272 
L 83.907093 248.916272 
L 84.232072 239.183342 
L 88.781785 239.183342 
L 89.106765 236.524699 
L 93.981458 236.524699 
L 94.306437 235.147429 
L 99.18113 235.147429 
L 99.50611 233.888646 
L 104.055823 233.888646 
L 104.380803 228.794883 
L 109.255495 228.794883 
L 109.580475 224.685914 
L 114.130188 224.685914 
L 114.455168 221.818623 
L 119.329861 221.818623 
L 119.65484 219.980223 
L 124.529533 219.980223 
L 124.854513 217.193505 
L 129.404226 217.193505 
L 129.729206 214.300037 
L 139.478591 214.280966 
L 139.803571 213.938745 
L 144.678264 213.938745 
L 145.003243 211.955229 
L 149.877936 211.955229 
L 150.202916 210.799147 
L 154.752629 210.799147 
L 155.077609 209.956301 
L 159.952301 209.956301 
L 160.277281 202.689324 
L 164.826994 202.689324 
L 165.151974 202.140797 
L 175.226339 202.071354 
L 175.551319 201.421918 
L 180.101032 201.421918 
L 180.426011 199.035455 
L 185.300704 199.035455 
L 185.625684 195.799428 
L 190.500377 195.799428 
L 190.825356 193.94714 
L 195.37507 193.94714 
L 195.700049 193.621047 
L 200.574742 193.621047 
L 200.899722 192.755812 
L 205.449435 192.755812 
L 205.774414 192.517151 
L 210.649107 192.517151 
L 210.974087 191.906615 
L 215.84878 191.906615 
L 216.173759 190.895553 
L 225.923145 190.88041 
L 226.248124 188.261617 
L 230.797838 188.261617 
L 231.122817 187.479188 
L 241.197183 187.405389 
L 241.522162 184.819819 
L 246.071876 184.819819 
L 246.396855 184.645645 
L 251.271548 184.645645 
L 251.596527 184.514561 
L 256.146241 184.514561 
L 256.47122 182.386213 
L 261.345913 182.386213 
L 261.670893 181.896816 
L 266.545586 181.896816 
L 266.870565 180.352584 
L 271.420278 180.352584 
L 271.745258 175.401131 
L 276.619951 175.401131 
L 276.94493 173.827474 
L 281.494644 173.827474 
L 281.819623 173.518523 
L 286.694316 173.518523 
L 287.019296 172.845994 
L 291.893989 172.845994 
L 292.218968 171.229413 
L 296.768681 171.229413 
L 297.093661 169.277308 
L 301.968354 169.277308 
L 302.293333 167.866195 
L 307.168026 167.866195 
L 307.493006 165.126957 
L 312.042719 165.126957 
L 312.367699 161.075031 
L 317.242391 161.075031 
L 317.567371 157.602281 
L 322.117084 157.602281 
L 322.442064 156.437728 
L 327.316757 156.437728 
L 327.641736 155.843247 
L 332.516429 155.843247 
L 332.841409 155.451837 
L 337.391122 155.451837 
L 337.716102 155.321743 
L 342.590794 155.321743 
L 342.915774 154.092787 
L 347.465487 154.092787 
L 347.790467 150.613307 
L 352.66516 150.613307 
L 352.990139 146.450327 
L 357.864832 146.450327 
L 358.189812 145.915407 
L 362.739525 145.915407 
L 363.064505 143.548803 
L 367.939197 143.548803 
L 368.264177 143.295395 
L 372.81389 143.295395 
L 373.13887 140.086955 
L 378.013563 140.086955 
L 378.338542 138.520023 
L 383.213235 138.520023 
L 383.538215 137.915262 
L 388.087928 137.915262 
L 388.412907 134.167336 
L 393.2876 134.167336 
L 393.61258 124.827014 
L 398.487273 124.827014 
L 398.487273 124.827014 
" clip-path="url(#p7b70e56dbe)" style="fill: none; stroke: #8a2be2; stroke-width: 0.5; stroke-linecap: square"/>
   </g>
   <g id="line2d_18">
    <path d="M 73.832727 267.162928 
L 74.807666 267.162928 
L 75.132645 264.109735 
L 76.107584 264.109735 
L 76.432563 255.775212 
L 77.407502 255.775212 
L 77.732482 253.801637 
L 78.70742 253.801637 
L 79.0324 249.884769 
L 80.007338 249.884769 
L 80.332318 245.543805 
L 81.307256 245.543805 
L 81.632236 245.182777 
L 82.607174 245.182777 
L 82.932154 241.954587 
L 83.907093 241.954587 
L 84.232072 241.172666 
L 85.207011 241.172666 
L 85.53199 236.020181 
L 87.481867 236.00167 
L 87.806847 234.891823 
L 88.781785 234.891823 
L 89.106765 231.639665 
L 90.081704 231.639665 
L 90.406683 231.17799 
L 91.381622 231.17799 
L 91.706601 228.857862 
L 92.68154 228.857862 
L 93.006519 223.775389 
L 93.981458 223.775389 
L 94.306437 223.613563 
L 95.281376 223.613563 
L 95.606355 222.741094 
L 97.881212 222.66572 
L 98.531171 222.609264 
L 100.156069 222.574065 
L 100.481048 222.122578 
L 101.455987 222.122578 
L 101.780966 221.43871 
L 105.355741 221.380018 
L 105.680721 221.166581 
L 106.655659 221.166581 
L 106.980639 220.55727 
L 107.955577 220.55727 
L 108.280557 219.410627 
L 110.555414 219.328787 
L 110.880393 218.063509 
L 111.855332 218.063509 
L 112.180311 217.733039 
L 112.83027 217.733039 
L 113.15525 217.539033 
L 114.130188 217.539033 
L 114.455168 216.750106 
L 115.430106 216.750106 
L 115.755086 216.403515 
L 116.730025 216.403515 
L 117.055004 215.191974 
L 118.029943 215.191974 
L 118.354922 214.908372 
L 119.329861 214.908372 
L 119.65484 214.147494 
L 120.629779 214.147494 
L 120.954758 213.902307 
L 121.929697 213.902307 
L 122.254676 213.124217 
L 123.229615 213.124217 
L 123.554595 212.851063 
L 124.529533 212.851063 
L 124.854513 212.63589 
L 125.504472 212.63589 
L 125.829451 211.872906 
L 128.104308 211.765735 
L 128.429287 211.16757 
L 129.404226 211.16757 
L 129.729206 210.991771 
L 130.704144 210.991771 
L 131.029124 210.478645 
L 133.30398 210.404989 
L 133.62896 209.919616 
L 137.203735 209.890139 
L 137.853694 209.798686 
L 139.478591 209.774888 
L 139.803571 209.47437 
L 140.778509 209.47437 
L 141.103489 207.504072 
L 143.378346 207.405125 
L 143.703325 207.108387 
L 145.978182 207.017988 
L 146.303161 206.531316 
L 147.2781 206.531316 
L 147.603079 206.340092 
L 149.877936 206.299544 
L 150.202916 205.83868 
L 151.177854 205.83868 
L 151.502834 205.70656 
L 152.152793 205.70656 
L 152.477772 205.027452 
L 153.452711 205.027452 
L 153.77769 204.875709 
L 154.752629 204.875709 
L 155.077609 204.696532 
L 156.052547 204.696532 
L 156.377527 204.42683 
L 158.652383 204.413311 
L 158.977363 203.416106 
L 159.952301 203.416106 
L 160.277281 203.266454 
L 161.252219 203.266454 
L 161.577199 202.933803 
L 162.552138 202.933803 
L 162.877117 202.602972 
L 163.852056 202.602972 
L 164.177035 202.427832 
L 166.126912 202.421716 
L 166.451892 202.295666 
L 167.42683 202.295666 
L 167.75181 201.963828 
L 170.026667 201.892982 
L 170.351646 201.02442 
L 171.326585 201.02442 
L 171.651564 200.74894 
L 175.226339 200.667474 
L 175.551319 200.369196 
L 177.501196 200.269964 
L 177.826175 199.094318 
L 178.801114 199.094318 
L 179.126093 197.331623 
L 181.40095 197.306677 
L 182.050909 197.217066 
L 185.300704 197.202504 
L 185.625684 196.380582 
L 186.600622 196.380582 
L 186.925602 196.085993 
L 187.900541 196.085993 
L 188.22552 194.776177 
L 189.200459 194.776177 
L 189.525438 194.06018 
L 190.500377 194.06018 
L 190.825356 193.933871 
L 191.475315 193.933871 
L 191.800295 193.609173 
L 192.775233 193.609173 
L 193.100213 193.3996 
L 194.075152 193.3996 
L 194.400131 193.154943 
L 195.37507 193.154943 
L 195.700049 193.032904 
L 196.674988 193.032904 
L 196.999967 191.822378 
L 197.974906 191.822378 
L 198.299885 191.652648 
L 201.87466 191.591674 
L 202.524619 191.507668 
L 203.174578 191.507668 
L 203.499558 190.397233 
L 205.449435 190.300692 
L 206.749353 190.272473 
L 207.074333 189.942993 
L 208.049271 189.942993 
L 208.374251 189.691912 
L 209.349189 189.691912 
L 209.674169 189.246371 
L 211.949025 189.245379 
L 212.274005 188.783181 
L 214.548862 188.737519 
L 215.198821 188.642136 
L 215.84878 188.642136 
L 216.173759 188.465642 
L 216.823718 188.465642 
L 217.148698 188.333502 
L 218.123636 188.333502 
L 218.448616 187.603523 
L 220.723473 187.547254 
L 221.048452 186.65193 
L 223.323309 186.649773 
L 223.648288 186.089287 
L 224.623227 186.089287 
L 224.948206 185.924053 
L 225.923145 185.924053 
L 226.248124 185.515872 
L 228.522981 185.478545 
L 228.847961 185.189151 
L 229.49792 185.189151 
L 229.822899 184.862132 
L 230.797838 184.862132 
L 231.122817 184.411053 
L 232.097756 184.411053 
L 232.422735 184.252912 
L 233.397674 184.252912 
L 234.047633 184.136462 
L 234.697592 184.136462 
L 235.022572 183.956551 
L 238.597346 183.856537 
L 239.897265 183.843698 
L 240.222244 183.550424 
L 241.197183 183.550424 
L 241.522162 183.039011 
L 242.497101 183.039011 
L 242.82208 182.356696 
L 243.472039 182.356696 
L 243.797019 181.634488 
L 244.771957 181.634488 
L 245.096937 181.486041 
L 247.371794 181.443843 
L 247.696773 181.306574 
L 248.671712 181.306574 
L 248.996691 180.666918 
L 249.97163 180.666918 
L 250.296609 180.463132 
L 252.571466 180.432477 
L 252.896446 179.624462 
L 253.871384 179.624462 
L 254.196364 179.032436 
L 255.171302 179.032436 
L 255.496282 178.328044 
L 256.146241 178.328044 
L 256.47122 177.978144 
L 258.746077 177.938916 
L 259.071057 177.55947 
L 260.045995 177.55947 
L 260.370975 176.245456 
L 261.345913 176.245456 
L 261.670893 175.878235 
L 262.645831 175.878235 
L 262.970811 175.200963 
L 265.245667 175.1126 
L 265.570647 174.880097 
L 266.545586 174.880097 
L 266.870565 174.202576 
L 267.845504 174.202576 
L 268.170483 173.956017 
L 270.12036 173.95138 
L 270.44534 173.711198 
L 271.420278 173.711198 
L 271.745258 173.211513 
L 272.720197 173.211513 
L 273.045176 173.028293 
L 275.320033 172.974507 
L 275.645012 172.642502 
L 276.619951 172.642502 
L 276.94493 172.378306 
L 277.919869 172.378306 
L 278.244848 172.029558 
L 280.519705 171.941189 
L 280.844685 171.33464 
L 281.494644 171.33464 
L 281.819623 171.030644 
L 282.794562 171.030644 
L 283.119541 170.519789 
L 285.394398 170.453268 
L 285.719378 169.969181 
L 289.294152 169.913242 
L 289.619132 169.527496 
L 290.59407 169.527496 
L 290.91905 169.043929 
L 294.493825 168.939147 
L 294.818804 168.756843 
L 295.468763 168.756843 
L 295.793743 168.292661 
L 296.768681 168.292661 
L 297.093661 167.299919 
L 298.0686 167.299919 
L 298.393579 167.170954 
L 299.368518 167.170954 
L 299.693497 166.847421 
L 301.968354 166.764329 
L 302.293333 166.384427 
L 303.268272 166.384427 
L 303.593251 166.112886 
L 304.56819 166.112886 
L 305.218149 165.999598 
L 307.168026 165.963829 
L 307.493006 165.809154 
L 308.142965 165.809154 
L 308.467944 165.629924 
L 309.442883 165.629924 
L 309.767862 163.361958 
L 312.042719 163.351039 
L 312.367699 163.230521 
L 313.342637 163.230521 
L 313.992596 163.112578 
L 314.642555 163.112578 
L 314.967535 162.621484 
L 315.942473 162.621484 
L 316.267453 162.48456 
L 319.842228 162.415834 
L 320.167207 162.259523 
L 320.817166 162.259523 
L 321.142146 161.699432 
L 322.117084 161.699432 
L 322.442064 161.505179 
L 323.417002 161.505179 
L 323.741982 161.034428 
L 324.716921 161.034428 
L 325.0419 160.291455 
L 326.016839 160.291455 
L 326.341818 160.034062 
L 327.316757 160.034062 
L 327.641736 159.884073 
L 328.616675 159.884073 
L 328.941654 159.672765 
L 329.916593 159.672765 
L 330.241572 158.541837 
L 331.216511 158.541837 
L 331.541491 157.796307 
L 333.491368 157.7017 
L 333.816347 157.025449 
L 334.791286 157.025449 
L 335.116265 156.777848 
L 336.091204 156.777848 
L 336.416183 155.523058 
L 337.391122 155.523058 
L 337.716102 154.452728 
L 338.69104 154.452728 
L 339.01602 152.356729 
L 339.990958 152.356729 
L 340.315938 151.605172 
L 342.590794 151.556603 
L 342.915774 150.834442 
L 345.190631 150.776203 
L 345.51561 150.149149 
L 346.490549 150.149149 
L 346.815528 149.220988 
L 347.465487 149.220988 
L 347.790467 148.699391 
L 348.765405 148.699391 
L 349.415364 148.587907 
L 350.065324 148.587907 
L 350.390303 148.052716 
L 351.365242 148.052716 
L 351.690221 147.570567 
L 352.66516 147.570567 
L 352.990139 147.215654 
L 353.965078 147.215654 
L 354.290057 146.95099 
L 355.264996 146.95099 
L 355.589975 145.196249 
L 356.564914 145.196249 
L 356.889894 144.796965 
L 357.864832 144.796965 
L 358.189812 144.296217 
L 359.16475 144.296217 
L 359.48973 143.238022 
L 361.439607 143.226109 
L 361.764586 142.983312 
L 362.739525 142.983312 
L 363.064505 142.163481 
L 365.339361 142.053128 
L 365.664341 140.177192 
L 366.639279 140.177192 
L 366.964259 139.871077 
L 367.939197 139.871077 
L 368.264177 137.978906 
L 369.239115 137.978906 
L 369.564095 136.762467 
L 370.539034 136.762467 
L 370.864013 135.962675 
L 372.81389 135.907131 
L 373.13887 134.929917 
L 374.113808 134.929917 
L 374.438788 134.438019 
L 375.413726 134.438019 
L 375.738706 130.82813 
L 376.713645 130.82813 
L 377.038624 130.422499 
L 378.013563 130.422499 
L 378.338542 130.041642 
L 379.313481 130.041642 
L 379.63846 129.786381 
L 380.613399 129.786381 
L 380.938378 128.587998 
L 381.913317 128.587998 
L 382.238296 128.327924 
L 383.213235 128.327924 
L 383.538215 126.920775 
L 384.513153 126.920775 
L 384.838133 123.738797 
L 385.488092 123.738797 
L 385.813071 123.596687 
L 386.78801 123.596687 
L 387.112989 122.729947 
L 388.087928 122.729947 
L 388.412907 120.749373 
L 390.687764 120.680892 
L 391.012744 120.498693 
L 391.987682 120.498693 
L 392.312662 118.788591 
L 393.2876 118.788591 
L 393.61258 118.144328 
L 394.587518 118.144328 
L 394.912498 111.855106 
L 395.887437 111.855106 
L 396.212416 108.216242 
L 397.187355 108.216242 
L 397.512334 102.768538 
L 398.487273 102.768538 
L 398.487273 102.768538 
" clip-path="url(#p7b70e56dbe)" style="fill: none; stroke: #7fff00; stroke-width: 0.5; stroke-linecap: square"/>
   </g>
   <g id="line2d_19">
    <path d="M 73.832727 280.275895 
L 74.157707 277.554692 
L 74.482686 271.313439 
L 75.132645 269.252383 
L 75.457625 261.570267 
L 76.757543 253.61704 
L 77.082523 253.430813 
L 77.407502 252.519953 
L 78.057461 252.042266 
L 78.70742 251.70872 
L 79.0324 250.8094 
L 81.307256 248.458262 
L 81.957215 246.940873 
L 82.932154 246.464925 
L 83.582113 246.370784 
L 84.232072 244.984324 
L 84.557052 244.894772 
L 84.882031 244.241501 
L 85.207011 244.010745 
L 85.53199 243.35608 
L 85.85697 243.266168 
L 86.181949 242.447999 
L 86.506929 242.436048 
L 86.831908 240.514359 
L 87.156888 240.209086 
L 88.781785 239.673501 
L 89.756724 238.394244 
L 90.081704 238.208106 
L 90.406683 237.687088 
L 90.731663 237.66662 
L 91.381622 237.133718 
L 92.031581 236.215272 
L 92.35656 236.187964 
L 92.68154 235.664449 
L 93.006519 235.496393 
L 93.656478 235.402811 
L 94.306437 234.827397 
L 94.631417 234.80936 
L 94.956396 234.615906 
L 95.281376 234.114506 
L 95.931335 234.033402 
L 96.256314 233.286837 
L 96.581294 233.249513 
L 96.906274 232.613258 
L 97.556233 232.200158 
L 98.206192 231.070879 
L 98.531171 230.975277 
L 99.18113 230.37901 
L 99.50611 229.490285 
L 99.831089 228.983345 
L 100.156069 228.90251 
L 100.481048 228.336137 
L 100.806028 228.01684 
L 101.455987 227.894803 
L 102.105946 227.110247 
L 102.755905 226.658516 
L 103.080885 226.027284 
L 103.730844 225.83669 
L 104.055823 225.501753 
L 104.705782 225.279052 
L 105.030762 224.863843 
L 106.0057 224.529356 
L 106.33068 223.608059 
L 106.655659 223.308385 
L 107.305618 223.153951 
L 108.280557 222.865118 
L 109.255495 222.350918 
L 110.230434 220.449423 
L 110.555414 220.417435 
L 110.880393 219.775283 
L 111.205373 219.770931 
L 112.505291 219.249128 
L 112.83027 218.561588 
L 113.15525 218.514836 
L 113.805209 217.930622 
L 114.130188 217.546349 
L 114.455168 217.513258 
L 114.780147 217.194999 
L 115.755086 216.894932 
L 116.080066 216.561979 
L 116.730025 216.483742 
L 117.379984 216.413861 
L 118.354922 215.835281 
L 119.004881 215.331527 
L 119.65484 215.24393 
L 120.304799 214.940343 
L 120.629779 214.687626 
L 121.604717 214.438822 
L 122.254676 214.015132 
L 122.904636 213.2185 
L 124.529533 212.910873 
L 125.504472 212.480417 
L 125.829451 212.253531 
L 127.454349 211.863718 
L 127.779328 211.370877 
L 128.754267 211.100538 
L 130.704144 210.188642 
L 131.029124 210.116072 
L 131.354103 209.870003 
L 132.979001 209.499216 
L 133.30398 209.200812 
L 134.928878 209.072361 
L 135.578837 208.901649 
L 136.553776 208.753612 
L 137.853694 208.331538 
L 138.503653 208.276777 
L 138.828632 208.065362 
L 139.478591 208.044363 
L 139.803571 207.747278 
L 140.45353 207.610588 
L 141.103489 207.5652 
L 143.378346 206.597458 
L 144.353284 206.497204 
L 146.303161 206.267615 
L 146.95312 206.217244 
L 149.552957 205.11189 
L 150.527895 204.958158 
L 151.177854 204.8033 
L 151.502834 204.328329 
L 153.77769 203.526935 
L 155.077609 203.351488 
L 156.052547 203.102838 
L 157.677445 202.912041 
L 158.327404 202.757421 
L 159.302342 202.710783 
L 159.952301 202.360449 
L 160.60226 202.145772 
L 161.252219 201.969223 
L 161.902179 201.60293 
L 162.227158 201.541717 
L 162.877117 201.274232 
L 164.826994 200.965394 
L 165.151974 200.915531 
L 165.476953 200.694657 
L 167.101851 200.487497 
L 168.07679 200.367072 
L 168.401769 200.005229 
L 169.376708 199.675627 
L 169.701687 199.503962 
L 170.676626 199.336472 
L 171.326585 199.185948 
L 172.301523 199.081864 
L 173.276462 198.936479 
L 173.601441 198.926836 
L 173.926421 198.674762 
L 174.2514 198.19566 
L 174.90136 198.08373 
L 175.226339 197.833969 
L 176.201278 197.594997 
L 177.501196 197.473374 
L 177.826175 197.207535 
L 179.451073 196.981972 
L 181.72593 196.70081 
L 182.050909 196.510645 
L 183.675807 196.260157 
L 184.325766 196.121814 
L 184.650745 195.647311 
L 184.975725 195.412686 
L 186.925602 195.022991 
L 187.575561 194.927615 
L 188.22552 194.722702 
L 188.875479 194.558077 
L 189.200459 194.297103 
L 189.850418 194.138879 
L 190.175397 193.953674 
L 190.825356 193.857864 
L 192.775233 193.370499 
L 193.100213 192.869711 
L 193.750172 192.595202 
L 194.725111 192.459251 
L 195.05009 192.400408 
L 195.37507 192.185766 
L 196.674988 191.933803 
L 197.324947 191.621096 
L 197.649926 191.420928 
L 199.274824 191.156738 
L 199.599803 191.092569 
L 199.924783 190.84703 
L 204.474496 189.642366 
L 205.124455 189.326904 
L 205.774414 189.175789 
L 206.099394 188.930106 
L 207.074333 188.733559 
L 208.049271 188.280444 
L 209.02421 188.088251 
L 209.999148 187.754056 
L 211.624046 187.647415 
L 212.598984 187.522948 
L 212.923964 187.446595 
L 213.248943 187.031529 
L 219.423554 185.902364 
L 219.748534 185.681578 
L 220.073514 185.634768 
L 220.398493 185.418015 
L 220.723473 185.415484 
L 221.048452 185.246755 
L 221.698411 185.184983 
L 222.023391 185.012783 
L 222.998329 184.892544 
L 223.648288 184.74271 
L 224.623227 184.549676 
L 227.223063 183.459827 
L 229.49792 183.053756 
L 230.147879 182.699624 
L 230.797838 182.589827 
L 231.772776 182.459144 
L 233.397674 182.247791 
L 234.372613 182.008365 
L 235.672531 181.904138 
L 240.222244 180.986746 
L 240.547224 180.97891 
L 241.197183 180.788593 
L 241.847142 180.663253 
L 242.497101 180.544866 
L 246.071876 179.871903 
L 246.396855 179.551638 
L 247.371794 179.320404 
L 247.696773 179.318834 
L 248.346732 179.186948 
L 249.321671 179.069307 
L 249.64665 178.750467 
L 253.221425 177.852937 
L 253.871384 177.540638 
L 254.846323 177.435195 
L 255.496282 177.166402 
L 256.7962 176.91162 
L 258.096118 176.287596 
L 259.071057 176.078732 
L 259.396036 175.851119 
L 261.345913 175.636635 
L 262.320852 175.42508 
L 263.29579 175.334034 
L 263.62077 175.137853 
L 264.270729 175.024712 
L 269.470401 173.905102 
L 269.795381 173.674069 
L 270.12036 173.662515 
L 270.44534 173.431402 
L 271.420278 173.380125 
L 272.070238 173.131079 
L 272.720197 173.055431 
L 273.045176 172.785089 
L 273.695135 172.627769 
L 274.345094 172.44792 
L 276.619951 172.186273 
L 277.26991 172.050413 
L 278.244848 171.96487 
L 278.894808 171.853526 
L 280.194726 171.693011 
L 280.519705 171.449997 
L 284.419459 170.860238 
L 285.069419 170.737752 
L 285.394398 170.703961 
L 285.719378 170.379909 
L 286.369337 170.239008 
L 287.669255 169.88962 
L 287.994234 169.360731 
L 288.644193 169.206062 
L 289.619132 168.949571 
L 289.944111 168.906527 
L 290.269091 168.742648 
L 291.569009 168.627718 
L 291.893989 168.446979 
L 293.843866 168.173725 
L 294.168845 167.815096 
L 294.493825 167.809102 
L 295.143784 167.528891 
L 299.693497 166.983791 
L 300.018477 166.541498 
L 300.343456 166.412084 
L 300.668436 165.943147 
L 301.318395 165.712914 
L 302.293333 165.61857 
L 303.918231 165.283747 
L 304.89317 165.229659 
L 305.543129 164.959724 
L 305.868108 164.394796 
L 306.518067 164.252852 
L 306.843047 164.210595 
L 307.168026 164.041588 
L 307.493006 164.003267 
L 307.817985 163.723742 
L 308.792924 163.622892 
L 309.767862 163.487219 
L 310.092842 163.254859 
L 311.39276 163.16626 
L 312.367699 163.001198 
L 312.692678 162.983144 
L 313.017658 162.765581 
L 314.317576 162.66371 
L 315.292514 162.520424 
L 315.617494 162.293784 
L 317.242391 162.155145 
L 317.567371 161.957572 
L 318.21733 161.865285 
L 319.192269 161.758862 
L 319.517248 161.638432 
L 320.167207 161.537427 
L 321.142146 161.184677 
L 321.792105 161.109387 
L 323.417002 160.695405 
L 323.741982 160.641156 
L 324.066962 160.442231 
L 327.316757 160.21349 
L 327.641736 160.013263 
L 328.616675 159.902469 
L 328.941654 159.417987 
L 329.591613 159.186275 
L 329.916593 158.872415 
L 330.566552 158.749741 
L 332.19145 158.496538 
L 332.516429 158.261128 
L 333.491368 157.997106 
L 333.816347 157.753833 
L 334.141327 157.353937 
L 334.791286 157.290839 
L 336.416183 156.621559 
L 336.741163 156.317784 
L 338.69104 155.949336 
L 339.01602 155.656596 
L 339.340999 155.543919 
L 339.990958 155.045774 
L 340.640917 154.915293 
L 340.965897 154.6465 
L 341.290876 154.167143 
L 341.940835 153.978932 
L 342.590794 153.941236 
L 343.240753 153.53197 
L 345.84059 153.082947 
L 346.165569 152.682045 
L 346.490549 152.647462 
L 346.815528 152.181901 
L 347.790467 151.887999 
L 348.440426 151.793875 
L 348.765405 151.521579 
L 349.090385 151.409959 
L 349.415364 151.014667 
L 350.715283 150.579628 
L 351.040262 150.1061 
L 352.34018 149.809434 
L 352.66516 149.663393 
L 353.315119 148.757316 
L 353.965078 148.622024 
L 354.290057 148.582487 
L 354.615037 148.091499 
L 355.264996 147.951048 
L 355.589975 147.857313 
L 355.914955 147.543207 
L 356.564914 147.47721 
L 356.889894 147.257929 
L 357.214873 147.185717 
L 357.539853 146.900274 
L 358.189812 146.692033 
L 359.16475 146.538451 
L 361.114627 146.002111 
L 361.439607 145.60315 
L 364.364423 144.394942 
L 364.689402 143.846199 
L 365.014382 143.828226 
L 366.3143 142.916279 
L 366.639279 142.896573 
L 366.964259 142.469518 
L 367.614218 142.387837 
L 367.939197 141.91866 
L 368.264177 141.753997 
L 368.914136 141.196821 
L 369.889075 141.010551 
L 371.188993 140.633546 
L 371.513972 140.605435 
L 373.788829 139.224447 
L 374.113808 139.205935 
L 374.438788 139.014815 
L 374.763767 138.9926 
L 375.088747 138.731671 
L 375.738706 137.684957 
L 376.063686 137.214495 
L 377.363604 136.747408 
L 377.688583 136.487558 
L 378.013563 135.363652 
L 378.338542 135.267044 
L 378.663522 134.985835 
L 378.988501 134.495154 
L 379.313481 134.453098 
L 379.63846 133.876157 
L 380.288419 133.684632 
L 380.613399 133.07647 
L 380.938378 132.851143 
L 381.263358 132.339734 
L 381.588337 131.57538 
L 381.913317 131.334807 
L 382.238296 131.254366 
L 382.563276 131.018894 
L 382.888256 130.524481 
L 383.538215 130.334565 
L 383.863194 129.895667 
L 384.188174 129.708727 
L 385.163112 128.01603 
L 385.813071 127.917107 
L 386.138051 127.547527 
L 386.78801 127.386778 
L 387.112989 127.082055 
L 388.412907 125.216847 
L 388.737887 123.934449 
L 389.062867 123.674274 
L 389.712826 122.896506 
L 390.687764 119.919565 
L 391.012744 119.60877 
L 391.337723 118.879548 
L 391.662703 118.794463 
L 391.987682 117.777797 
L 392.312662 117.428671 
L 392.962621 116.31103 
L 393.937559 115.866607 
L 394.587518 112.019219 
L 394.912498 111.834167 
L 395.237477 110.803922 
L 395.562457 110.698834 
L 395.887437 110.371587 
L 396.212416 108.151606 
L 396.537396 107.254576 
L 396.862375 106.757467 
L 397.187355 103.376997 
L 397.512334 98.017129 
L 397.837314 96.573913 
L 398.162293 92.101225 
L 398.487273 85.403326 
L 398.487273 85.403326 
" clip-path="url(#p7b70e56dbe)" style="fill: none; stroke: #d2691e; stroke-width: 0.5; stroke-linecap: square"/>
   </g>
   <g id="line2d_20">
    <path d="M 73.832727 289.554054 
L 74.157707 276.018487 
L 74.482686 269.209872 
L 74.807666 267.468598 
L 75.132645 264.962519 
L 75.457625 261.382121 
L 75.782604 259.916818 
L 76.107584 259.166248 
L 76.432563 257.404888 
L 76.757543 254.928484 
L 77.407502 253.576952 
L 79.357379 247.834445 
L 80.007338 247.042431 
L 80.657297 245.723683 
L 80.982277 245.348319 
L 82.607174 241.977655 
L 83.257133 241.547451 
L 83.907093 240.968831 
L 84.557052 240.502508 
L 85.53199 238.940932 
L 85.85697 238.633887 
L 86.181949 238.487087 
L 88.131826 235.560694 
L 88.781785 234.996972 
L 91.381622 233.012488 
L 92.031581 232.488691 
L 92.68154 232.120646 
L 93.331499 231.577283 
L 94.306437 231.069421 
L 94.631417 230.962108 
L 94.956396 230.600473 
L 95.281376 230.508301 
L 95.606355 230.205683 
L 96.256314 229.86661 
L 96.581294 229.39762 
L 97.231253 229.249082 
L 97.556233 228.818094 
L 98.206192 228.663918 
L 98.856151 228.168504 
L 99.18113 227.901458 
L 99.831089 227.118698 
L 100.156069 226.855164 
L 100.481048 226.747357 
L 101.131007 226.240048 
L 102.430925 225.635901 
L 102.755905 225.535054 
L 103.405864 225.112811 
L 103.730844 224.957108 
L 105.680721 223.261825 
L 106.0057 223.167798 
L 106.33068 222.768366 
L 109.255495 221.648513 
L 109.580475 221.253949 
L 110.230434 220.900938 
L 111.205373 220.656574 
L 112.180311 220.26059 
L 112.505291 220.061022 
L 112.83027 219.640005 
L 115.755086 218.388699 
L 116.405045 218.043455 
L 118.029943 217.483354 
L 119.65484 216.662586 
L 120.629779 216.495038 
L 120.954758 216.281311 
L 121.604717 216.043364 
L 122.254676 215.648093 
L 122.579656 215.30033 
L 123.879574 214.84323 
L 124.854513 214.379422 
L 126.154431 213.618105 
L 126.80439 213.285232 
L 128.104308 212.656923 
L 128.429287 212.433785 
L 129.729206 212.02216 
L 130.379165 211.781704 
L 130.704144 211.761735 
L 131.354103 211.56163 
L 131.679083 211.513477 
L 132.004062 211.333893 
L 132.979001 211.116222 
L 133.30398 210.909725 
L 133.953939 210.73937 
L 134.603898 210.452398 
L 137.203735 209.71183 
L 137.528714 209.500565 
L 138.503653 209.349445 
L 139.153612 209.058131 
L 141.103489 208.51713 
L 143.053366 207.844318 
L 143.378346 207.80186 
L 143.703325 207.526834 
L 144.678264 207.218601 
L 145.653202 206.7713 
L 146.95312 206.478744 
L 147.603079 206.171879 
L 148.253038 206.091112 
L 149.877936 205.371196 
L 152.802752 204.511345 
L 153.127731 204.339366 
L 153.77769 204.22756 
L 155.727568 203.397429 
L 156.377527 203.164712 
L 157.027486 202.800253 
L 158.327404 202.516414 
L 158.977363 202.197123 
L 161.902179 201.625991 
L 162.552138 201.366287 
L 163.202097 201.163295 
L 164.502015 200.884113 
L 165.151974 200.651622 
L 165.801933 200.450172 
L 167.42683 200.02341 
L 169.051728 199.384095 
L 169.701687 199.23747 
L 170.676626 198.782907 
L 173.926421 197.795264 
L 180.426011 196.501656 
L 181.075971 196.242642 
L 183.675807 195.619712 
L 184.325766 195.367337 
L 186.600622 194.943105 
L 187.900541 194.641906 
L 188.5505 194.395147 
L 189.525438 194.187062 
L 190.825356 193.869364 
L 191.475315 193.65606 
L 192.450254 193.436902 
L 195.05009 192.731818 
L 196.999967 192.360114 
L 197.974906 192.085587 
L 207.724292 189.849412 
L 208.049271 189.632413 
L 212.923964 188.526531 
L 213.573923 188.415368 
L 213.898903 188.196846 
L 215.198821 187.855281 
L 218.123636 186.975727 
L 228.522981 184.396529 
L 229.17294 184.266107 
L 230.472858 183.886685 
L 232.747715 183.40179 
L 233.397674 183.141093 
L 242.82208 181.050591 
L 243.797019 180.859943 
L 253.221425 178.550523 
L 254.196364 178.415138 
L 256.7962 177.765359 
L 257.446159 177.498069 
L 267.195545 175.193978 
L 267.845504 174.919908 
L 268.820442 174.65996 
L 269.470401 174.485309 
L 270.12036 174.252241 
L 271.745258 173.855145 
L 276.294971 172.787106 
L 277.594889 172.405645 
L 281.819623 171.474426 
L 296.118722 167.925143 
L 298.718559 167.295526 
L 299.368518 167.128824 
L 300.668436 166.755711 
L 302.293333 166.221281 
L 305.543129 165.410614 
L 306.843047 164.949562 
L 309.767862 164.159128 
L 312.367699 163.750205 
L 313.992596 162.981831 
L 315.617494 162.424291 
L 319.842228 161.223248 
L 321.467125 160.659468 
L 322.442064 160.253336 
L 322.767043 160.082576 
L 323.741982 159.931411 
L 325.0419 159.575091 
L 326.666798 158.996213 
L 326.991777 158.9655 
L 327.641736 158.556002 
L 328.616675 158.225852 
L 329.591613 158.017126 
L 330.891532 157.554583 
L 331.86647 157.294051 
L 332.516429 156.96295 
L 334.466306 155.972992 
L 335.116265 155.898939 
L 337.391122 155.197907 
L 342.265815 153.638855 
L 342.915774 153.463086 
L 343.890713 152.972084 
L 344.540672 152.699335 
L 344.865651 152.581501 
L 345.190631 152.172759 
L 346.165569 151.591633 
L 347.790467 151.039033 
L 348.115446 150.788828 
L 348.765405 150.613328 
L 349.415364 150.242406 
L 350.065324 150.083883 
L 350.715283 149.715161 
L 351.690221 149.382876 
L 352.34018 149.071004 
L 353.965078 148.415275 
L 354.290057 148.16666 
L 354.615037 148.120829 
L 355.264996 147.65793 
L 355.914955 147.484364 
L 360.139689 145.989424 
L 360.789648 145.682758 
L 361.439607 145.347713 
L 361.764586 145.296239 
L 362.739525 144.450324 
L 363.714464 144.182277 
L 364.039443 143.91114 
L 364.689402 143.63474 
L 365.339361 143.377255 
L 365.664341 143.108051 
L 365.98932 143.071598 
L 367.289238 142.374495 
L 367.614218 142.062338 
L 368.589156 141.626078 
L 369.239115 141.046216 
L 370.864013 140.232075 
L 371.513972 139.739939 
L 372.163931 139.399655 
L 372.488911 139.035129 
L 373.463849 138.528834 
L 374.113808 137.893848 
L 378.338542 135.086034 
L 379.63846 133.627345 
L 380.938378 132.629931 
L 381.913317 131.444556 
L 382.563276 130.874479 
L 383.863194 129.579213 
L 384.188174 129.165916 
L 384.838133 128.692306 
L 385.163112 128.192469 
L 386.138051 127.526565 
L 386.46303 127.316657 
L 387.112989 126.727917 
L 387.437969 126.537536 
L 388.737887 124.872453 
L 389.062867 124.527326 
L 389.387846 123.38486 
L 390.037805 122.828996 
L 391.337723 120.643889 
L 391.662703 119.174816 
L 392.637641 117.022741 
L 392.962621 115.783107 
L 393.2876 115.185249 
L 393.937559 112.531665 
L 394.262539 112.008385 
L 394.587518 111.074995 
L 394.912498 109.495837 
L 395.237477 108.959871 
L 396.212416 103.989019 
L 396.537396 101.657194 
L 396.862375 98.197823 
L 397.187355 95.963083 
L 397.837314 87.770875 
L 398.162293 80.079122 
L 398.487273 67.066703 
L 398.487273 67.066703 
" clip-path="url(#p7b70e56dbe)" style="fill: none; stroke: #dc143c; stroke-width: 0.5; stroke-linecap: square"/>
   </g>
   <g id="line2d_21">
    <path d="M 73.832727 295.488 
L 74.157707 280.437888 
L 74.807666 268.163681 
L 75.782604 259.92792 
L 77.082523 255.352311 
L 77.732482 253.430872 
L 79.0324 250.049316 
L 79.682359 248.804875 
L 80.332318 247.280094 
L 80.657297 246.365915 
L 81.632236 244.775935 
L 84.882031 240.445779 
L 85.85697 239.008789 
L 86.831908 237.792241 
L 88.781785 235.93629 
L 89.431744 235.150444 
L 90.406683 234.250218 
L 91.056642 233.677994 
L 93.006519 232.086718 
L 95.931335 229.33876 
L 96.581294 228.986825 
L 98.206192 227.666566 
L 103.080885 224.656998 
L 104.055823 224.172367 
L 104.705782 223.733441 
L 105.355741 223.472002 
L 106.33068 222.789184 
L 106.655659 222.713372 
L 107.630598 222.152618 
L 108.930516 221.543782 
L 111.530352 220.16894 
L 112.83027 219.647295 
L 113.805209 219.186991 
L 115.430106 218.314718 
L 116.080066 218.004497 
L 118.679902 216.653949 
L 119.329861 216.410645 
L 125.504472 213.910779 
L 127.454349 213.153824 
L 133.30398 210.870027 
L 136.228796 209.841337 
L 137.528714 209.458482 
L 141.428468 208.184795 
L 143.053366 207.703772 
L 144.353284 207.190865 
L 145.653202 206.792896 
L 147.2781 206.202512 
L 149.227977 205.50006 
L 150.852875 205.096052 
L 152.477772 204.573318 
L 155.077609 203.734455 
L 156.702506 203.250125 
L 158.327404 202.896676 
L 159.952301 202.428995 
L 161.252219 202.075972 
L 161.902179 201.88497 
L 163.202097 201.519063 
L 165.151974 200.979224 
L 167.101851 200.448001 
L 168.401769 200.070803 
L 170.351646 199.459936 
L 171.976544 199.033094 
L 181.40095 196.438536 
L 182.050909 196.209511 
L 195.05009 192.744726 
L 198.624865 191.909926 
L 199.924783 191.524068 
L 203.499558 190.521183 
L 205.774414 189.878977 
L 207.399312 189.484969 
L 209.674169 188.856481 
L 212.274005 188.29858 
L 213.248943 188.088349 
L 216.498739 187.432704 
L 217.148698 187.197022 
L 219.098575 186.731433 
L 220.398493 186.445054 
L 221.048452 186.250516 
L 222.998329 185.820227 
L 225.598165 185.293403 
L 226.573104 184.992806 
L 232.422735 183.633003 
L 237.297428 182.56511 
L 238.922326 182.1653 
L 245.421916 180.5645 
L 247.371794 180.091416 
L 248.996691 179.735652 
L 251.921507 178.969144 
L 269.145422 174.945879 
L 271.095299 174.416874 
L 290.59407 169.704135 
L 293.518886 168.916759 
L 295.793743 168.308702 
L 297.093661 167.875761 
L 300.018477 167.143631 
L 301.318395 166.760331 
L 302.293333 166.507004 
L 303.918231 166.079743 
L 304.56819 165.90662 
L 305.543129 165.596058 
L 309.767862 164.310082 
L 316.267453 162.572081 
L 317.892351 162.012521 
L 320.817166 161.249116 
L 322.117084 160.830916 
L 323.417002 160.420954 
L 324.391941 160.133143 
L 325.691859 159.765887 
L 336.091204 156.407612 
L 337.391122 155.97055 
L 343.565733 153.555111 
L 344.540672 153.105688 
L 347.790467 152.064472 
L 352.990139 149.850123 
L 353.965078 149.443075 
L 357.864832 147.801208 
L 358.514791 147.423816 
L 361.439607 146.2035 
L 362.739525 145.522459 
L 364.039443 144.854936 
L 364.689402 144.614025 
L 368.589156 142.445927 
L 374.763767 138.440351 
L 375.413726 138.137918 
L 376.713645 137.161344 
L 377.688583 136.545246 
L 378.988501 135.498296 
L 380.613399 134.163064 
L 382.563276 131.928206 
L 382.888256 131.747245 
L 387.437969 126.918625 
L 388.087928 125.969663 
L 389.062867 124.972909 
L 391.012744 121.652549 
L 392.637641 118.24996 
L 393.2876 116.719038 
L 394.587518 113.195354 
L 395.237477 110.42678 
L 395.562457 109.250041 
L 396.862375 102.378582 
L 397.512334 95.630093 
L 398.162293 86.731583 
L 398.487273 53.568 
L 398.487273 53.568 
" clip-path="url(#p7b70e56dbe)" style="fill: none; stroke: #006400; stroke-width: 0.5; stroke-linecap: square"/>
   </g>
   <g id="patch_3">
    <path d="M 57.6 307.584 
L 57.6 41.472 
" style="fill: none; stroke: #000000; stroke-width: 0.8; stroke-linejoin: miter; stroke-linecap: square"/>
   </g>
   <g id="patch_4">
    <path d="M 414.72 307.584 
L 414.72 41.472 
" style="fill: none; stroke: #000000; stroke-width: 0.8; stroke-linejoin: miter; stroke-linecap: square"/>
   </g>
   <g id="patch_5">
    <path d="M 57.6 307.584 
L 414.72 307.584 
" style="fill: none; stroke: #000000; stroke-width: 0.8; stroke-linejoin: miter; stroke-linecap: square"/>
   </g>
   <g id="patch_6">
    <path d="M 57.6 41.472 
L 414.72 41.472 
" style="fill: none; stroke: #000000; stroke-width: 0.8; stroke-linejoin: miter; stroke-linecap: square"/>
   </g>
   <g id="text_16">
    <!-- Monte-Carlo计算t(α)分位点函数与理论计算对比 -->
    <g transform="translate(112.360313 35.472) scale(0.12 -0.12)">
     <defs>
      <path id="TimesNewRomanPSMT-6f" d="M 1600 2947 
Q 2250 2947 2644 2453 
Q 2978 2031 2978 1484 
Q 2978 1100 2793 706 
Q 2609 313 2286 112 
Q 1963 -88 1566 -88 
Q 919 -88 538 428 
Q 216 863 216 1403 
Q 216 1797 411 2186 
Q 606 2575 925 2761 
Q 1244 2947 1600 2947 
z
M 1503 2744 
Q 1338 2744 1170 2645 
Q 1003 2547 900 2300 
Q 797 2053 797 1666 
Q 797 1041 1045 587 
Q 1294 134 1700 134 
Q 2003 134 2200 384 
Q 2397 634 2397 1244 
Q 2397 2006 2069 2444 
Q 1847 2744 1503 2744 
z
" transform="scale(0.015625)"/>
      <path id="TimesNewRomanPSMT-6e" d="M 1034 2341 
Q 1538 2947 1994 2947 
Q 2228 2947 2397 2830 
Q 2566 2713 2666 2444 
Q 2734 2256 2734 1869 
L 2734 647 
Q 2734 375 2778 278 
Q 2813 200 2889 156 
Q 2966 113 3172 113 
L 3172 0 
L 1756 0 
L 1756 113 
L 1816 113 
Q 2016 113 2095 173 
Q 2175 234 2206 353 
Q 2219 400 2219 647 
L 2219 1819 
Q 2219 2209 2117 2386 
Q 2016 2563 1775 2563 
Q 1403 2563 1034 2156 
L 1034 647 
Q 1034 356 1069 288 
Q 1113 197 1189 155 
Q 1266 113 1500 113 
L 1500 0 
L 84 0 
L 84 113 
L 147 113 
Q 366 113 442 223 
Q 519 334 519 647 
L 519 1709 
Q 519 2225 495 2337 
Q 472 2450 423 2490 
Q 375 2531 294 2531 
Q 206 2531 84 2484 
L 38 2597 
L 900 2947 
L 1034 2947 
L 1034 2341 
z
" transform="scale(0.015625)"/>
      <path id="TimesNewRomanPSMT-74" d="M 1031 3803 
L 1031 2863 
L 1700 2863 
L 1700 2644 
L 1031 2644 
L 1031 788 
Q 1031 509 1111 412 
Q 1191 316 1316 316 
Q 1419 316 1516 380 
Q 1613 444 1666 569 
L 1788 569 
Q 1678 263 1478 108 
Q 1278 -47 1066 -47 
Q 922 -47 784 33 
Q 647 113 581 261 
Q 516 409 516 719 
L 516 2644 
L 63 2644 
L 63 2747 
Q 234 2816 414 2980 
Q 594 3144 734 3369 
Q 806 3488 934 3803 
L 1031 3803 
z
" transform="scale(0.015625)"/>
      <path id="TimesNewRomanPSMT-65" d="M 681 1784 
Q 678 1147 991 784 
Q 1303 422 1725 422 
Q 2006 422 2214 576 
Q 2422 731 2563 1106 
L 2659 1044 
Q 2594 616 2278 264 
Q 1963 -88 1488 -88 
Q 972 -88 605 314 
Q 238 716 238 1394 
Q 238 2128 614 2539 
Q 991 2950 1559 2950 
Q 2041 2950 2350 2633 
Q 2659 2316 2659 1784 
L 681 1784 
z
M 681 1966 
L 2006 1966 
Q 1991 2241 1941 2353 
Q 1863 2528 1708 2628 
Q 1553 2728 1384 2728 
Q 1125 2728 920 2526 
Q 716 2325 681 1966 
z
" transform="scale(0.015625)"/>
      <path id="TimesNewRomanPSMT-2d" d="M 259 1672 
L 1875 1672 
L 1875 1200 
L 259 1200 
L 259 1672 
z
" transform="scale(0.015625)"/>
      <path id="TimesNewRomanPSMT-43" d="M 3853 4334 
L 3950 2894 
L 3853 2894 
Q 3659 3541 3300 3825 
Q 2941 4109 2438 4109 
Q 2016 4109 1675 3895 
Q 1334 3681 1139 3212 
Q 944 2744 944 2047 
Q 944 1472 1128 1050 
Q 1313 628 1683 403 
Q 2053 178 2528 178 
Q 2941 178 3256 354 
Q 3572 531 3950 1056 
L 4047 994 
Q 3728 428 3303 165 
Q 2878 -97 2294 -97 
Q 1241 -97 663 684 
Q 231 1266 231 2053 
Q 231 2688 515 3219 
Q 800 3750 1298 4042 
Q 1797 4334 2388 4334 
Q 2847 4334 3294 4109 
Q 3425 4041 3481 4041 
Q 3566 4041 3628 4100 
Q 3709 4184 3744 4334 
L 3853 4334 
z
" transform="scale(0.015625)"/>
      <path id="TimesNewRomanPSMT-61" d="M 1822 413 
Q 1381 72 1269 19 
Q 1100 -59 909 -59 
Q 613 -59 420 144 
Q 228 347 228 678 
Q 228 888 322 1041 
Q 450 1253 767 1440 
Q 1084 1628 1822 1897 
L 1822 2009 
Q 1822 2438 1686 2597 
Q 1550 2756 1291 2756 
Q 1094 2756 978 2650 
Q 859 2544 859 2406 
L 866 2225 
Q 866 2081 792 2003 
Q 719 1925 600 1925 
Q 484 1925 411 2006 
Q 338 2088 338 2228 
Q 338 2497 613 2722 
Q 888 2947 1384 2947 
Q 1766 2947 2009 2819 
Q 2194 2722 2281 2516 
Q 2338 2381 2338 1966 
L 2338 994 
Q 2338 584 2353 492 
Q 2369 400 2405 369 
Q 2441 338 2488 338 
Q 2538 338 2575 359 
Q 2641 400 2828 588 
L 2828 413 
Q 2478 -56 2159 -56 
Q 2006 -56 1915 50 
Q 1825 156 1822 413 
z
M 1822 616 
L 1822 1706 
Q 1350 1519 1213 1441 
Q 966 1303 859 1153 
Q 753 1003 753 825 
Q 753 600 887 451 
Q 1022 303 1197 303 
Q 1434 303 1822 616 
z
" transform="scale(0.015625)"/>
      <path id="TimesNewRomanPSMT-72" d="M 1038 2947 
L 1038 2303 
Q 1397 2947 1775 2947 
Q 1947 2947 2059 2842 
Q 2172 2738 2172 2600 
Q 2172 2478 2090 2393 
Q 2009 2309 1897 2309 
Q 1788 2309 1652 2417 
Q 1516 2525 1450 2525 
Q 1394 2525 1328 2463 
Q 1188 2334 1038 2041 
L 1038 669 
Q 1038 431 1097 309 
Q 1138 225 1241 169 
Q 1344 113 1538 113 
L 1538 0 
L 72 0 
L 72 113 
Q 291 113 397 181 
Q 475 231 506 341 
Q 522 394 522 644 
L 522 1753 
Q 522 2253 501 2348 
Q 481 2444 426 2487 
Q 372 2531 291 2531 
Q 194 2531 72 2484 
L 41 2597 
L 906 2947 
L 1038 2947 
z
" transform="scale(0.015625)"/>
      <path id="TimesNewRomanPSMT-6c" d="M 1184 4444 
L 1184 647 
Q 1184 378 1223 290 
Q 1263 203 1344 158 
Q 1425 113 1647 113 
L 1647 0 
L 244 0 
L 244 113 
Q 441 113 512 153 
Q 584 194 625 287 
Q 666 381 666 647 
L 666 3247 
Q 666 3731 644 3842 
Q 622 3953 573 3993 
Q 525 4034 450 4034 
Q 369 4034 244 3984 
L 191 4094 
L 1044 4444 
L 1184 4444 
z
" transform="scale(0.015625)"/>
      <path id="SimSun-7b97" d="M 2675 1525 
Q 2650 1125 2600 750 
L 3825 750 
L 3825 1525 
L 2675 1525 
z
M 4900 2075 
Q 4900 1875 4925 1425 
L 4550 1275 
L 4550 1525 
L 4175 1525 
L 4175 775 
L 5300 775 
L 5650 1100 
L 6100 625 
L 4175 625 
Q 4175 -225 4200 -475 
L 3800 -650 
Q 3825 100 3825 600 
L 2575 600 
Q 2400 50 1837 -250 
Q 1275 -550 625 -650 
L 600 -575 
Q 1325 -325 1687 -62 
Q 2050 200 2200 600 
L 1125 600 
Q 800 600 525 525 
L 300 750 
L 2225 750 
Q 2275 1100 2300 1525 
L 1850 1525 
L 1850 1325 
L 1500 1200 
Q 1525 1975 1512 2787 
Q 1500 3600 1475 3775 
L 1850 3575 
L 4525 3575 
L 4675 3800 
L 5075 3525 
L 4900 3375 
L 4900 2075 
z
M 1850 3425 
L 1850 2975 
L 4550 2975 
L 4550 3425 
L 1850 3425 
z
M 1850 2825 
L 1850 2350 
L 4550 2350 
L 4550 2825 
L 1850 2825 
z
M 1850 2200 
L 1850 1675 
L 4550 1675 
L 4550 2200 
L 1850 2200 
z
M 1575 5275 
L 2075 5000 
Q 1925 4925 1837 4825 
Q 1750 4725 1600 4500 
L 2700 4500 
L 3000 4800 
L 3400 4350 
L 2125 4350 
Q 2650 4075 2587 3887 
Q 2525 3700 2462 3662 
Q 2400 3625 2350 3625 
Q 2275 3625 2250 3712 
Q 2225 3800 2200 3975 
Q 2150 4125 1950 4350 
L 1525 4350 
Q 1275 3975 1050 3725 
Q 825 3475 475 3225 
L 425 3300 
Q 650 3525 950 3950 
Q 1250 4375 1575 5275 
z
M 4000 5250 
L 4450 4950 
Q 4325 4925 4200 4775 
Q 4075 4625 3975 4475 
L 5325 4475 
L 5625 4750 
L 6000 4325 
L 4675 4325 
Q 5300 4125 5300 3937 
Q 5300 3750 5212 3675 
Q 5125 3600 5100 3600 
Q 5050 3600 4987 3712 
Q 4925 3825 4850 3962 
Q 4775 4100 4500 4325 
L 3900 4325 
Q 3725 4150 3575 3975 
Q 3400 3775 3225 3625 
L 3150 3675 
Q 3450 4050 3712 4562 
Q 3975 5075 4000 5250 
z
" transform="scale(0.015625)"/>
      <path id="TimesNewRomanPSMT-3b1" d="M 2463 2863 
L 2994 2863 
L 2672 1416 
Q 2578 1003 2544 909 
Q 2669 334 2906 334 
Q 3188 334 3197 722 
L 3309 722 
Q 3300 359 3176 135 
Q 3053 -88 2853 -88 
Q 2688 -88 2606 46 
Q 2525 181 2431 597 
Q 2106 -88 1369 -88 
Q 866 -88 569 304 
Q 272 697 272 1428 
Q 272 2147 597 2547 
Q 922 2947 1378 2947 
Q 1700 2947 1906 2719 
Q 2113 2491 2272 1975 
L 2463 2863 
z
M 2188 1638 
Q 2041 2141 1859 2423 
Q 1678 2706 1425 2706 
Q 853 2706 853 1369 
Q 853 100 1400 100 
Q 1875 100 2103 1219 
L 2188 1638 
z
" transform="scale(0.015625)"/>
      <path id="SimSun-5206" d="M 2350 5050 
L 2850 4675 
L 2625 4550 
Q 2200 3750 1687 3125 
Q 1175 2500 375 2025 
L 325 2100 
Q 975 2625 1475 3337 
Q 1975 4050 2350 5050 
z
M 4100 4975 
L 3900 4850 
Q 4175 3850 4800 3300 
Q 5425 2750 6125 2625 
L 6125 2550 
Q 5750 2500 5600 2225 
Q 4775 2675 4287 3425 
Q 3800 4175 3625 5175 
L 4100 4975 
z
M 1375 2625 
L 4225 2625 
L 4475 2875 
L 4825 2525 
L 4625 2375 
Q 4575 400 4375 -12 
Q 4175 -425 3675 -600 
Q 3600 -200 2975 -25 
L 2975 75 
Q 3600 -25 3787 -12 
Q 3975 0 4075 275 
Q 4175 550 4275 2475 
L 2975 2475 
Q 2825 1400 2375 662 
Q 1925 -75 650 -625 
L 600 -525 
Q 1725 50 2112 837 
Q 2500 1625 2575 2475 
L 1800 2475 
L 1575 2425 
L 1375 2625 
z
" transform="scale(0.015625)"/>
      <path id="SimSun-4f4d" d="M 1250 -600 
Q 1275 150 1275 3100 
Q 750 2225 325 1775 
L 250 1825 
Q 725 2575 1112 3450 
Q 1500 4325 1700 5225 
L 2275 4925 
L 2050 4800 
Q 1650 3900 1475 3500 
L 1800 3275 
L 1600 3125 
Q 1600 125 1625 -400 
L 1250 -600 
z
M 3300 5125 
L 3375 5175 
Q 4100 4625 4112 4375 
Q 4125 4125 4000 4025 
Q 3875 3925 3850 3925 
Q 3725 3925 3700 4200 
Q 3625 4575 3300 5125 
z
M 2025 3725 
L 5050 3725 
L 5400 4075 
L 5900 3575 
L 2825 3575 
Q 2525 3575 2250 3500 
L 2025 3725 
z
M 2600 3000 
L 2675 3050 
Q 3300 2050 3400 1712 
Q 3500 1375 3500 1200 
Q 3500 950 3362 800 
Q 3225 650 3175 650 
Q 3100 650 3100 825 
Q 3075 1125 2975 1675 
Q 2875 2225 2600 3000 
z
M 4725 3325 
L 5325 3000 
Q 5100 2875 4875 2125 
Q 4650 1375 4175 -25 
L 5300 -25 
L 5650 325 
L 6150 -175 
L 2700 -175 
Q 2375 -175 2100 -250 
L 1875 -25 
L 4000 -25 
Q 4300 1000 4500 1962 
Q 4700 2925 4725 3325 
z
" transform="scale(0.015625)"/>
      <path id="SimSun-70b9" d="M 1875 2900 
L 1875 1525 
L 4625 1525 
L 4625 2900 
L 1875 2900 
z
M 1475 925 
Q 1500 1450 1500 2050 
Q 1500 2650 1475 3250 
L 1875 3050 
L 2950 3050 
Q 2950 4725 2925 5225 
L 3500 5000 
L 3300 4800 
L 3300 4200 
L 4925 4200 
L 5250 4525 
L 5700 4050 
L 3300 4050 
L 3300 3050 
L 4575 3050 
L 4825 3300 
L 5200 2925 
L 4975 2750 
Q 4975 1575 5000 1150 
L 4625 1000 
L 4625 1375 
L 1875 1375 
L 1875 1075 
L 1475 925 
z
M 1350 800 
L 1450 800 
Q 1300 -175 1137 -337 
Q 975 -500 850 -500 
Q 775 -500 675 -437 
Q 575 -375 575 -300 
Q 575 -225 700 -125 
Q 925 50 1037 200 
Q 1150 350 1350 800 
z
M 2225 675 
L 2275 750 
Q 2800 350 2862 187 
Q 2925 25 2925 -50 
Q 2925 -225 2812 -337 
Q 2700 -450 2675 -450 
Q 2575 -450 2550 -200 
Q 2500 175 2225 675 
z
M 3550 700 
L 3600 775 
Q 4075 425 4187 225 
Q 4300 25 4300 -50 
Q 4300 -175 4187 -300 
Q 4075 -425 4050 -425 
Q 3950 -425 3900 -125 
Q 3825 300 3550 700 
z
M 4900 775 
L 4950 850 
Q 5450 500 5637 250 
Q 5825 0 5825 -125 
Q 5825 -250 5725 -375 
Q 5625 -500 5600 -500 
Q 5500 -500 5425 -200 
Q 5300 225 4900 775 
z
" transform="scale(0.015625)"/>
      <path id="SimSun-51fd" d="M 3050 2275 
L 3050 3000 
Q 3050 3450 3025 3800 
L 3275 3625 
L 4450 4475 
L 1650 4475 
Q 1325 4475 1050 4400 
L 825 4625 
L 4450 4625 
L 4775 4875 
L 5150 4375 
Q 4875 4325 4550 4175 
Q 4225 4025 3400 3550 
L 3550 3450 
L 3375 3325 
L 3375 2400 
Q 4250 3225 4475 3600 
L 4875 3150 
L 4625 3125 
Q 3625 2425 3400 2275 
Q 4575 1675 4687 1487 
Q 4800 1300 4800 1150 
Q 4800 1025 4750 925 
Q 4700 825 4675 825 
Q 4575 825 4375 1150 
Q 4075 1600 3375 2150 
L 3375 725 
Q 3375 350 2875 150 
Q 2850 450 2200 650 
L 2200 750 
Q 2800 675 2925 700 
Q 3050 725 3050 850 
L 3050 2100 
Q 1850 1300 1625 1025 
L 1275 1400 
Q 1575 1475 2087 1725 
Q 2600 1975 3050 2275 
z
M 1700 3475 
L 1775 3550 
Q 2350 3200 2475 3025 
Q 2600 2850 2600 2775 
Q 2600 2650 2500 2525 
Q 2400 2400 2350 2400 
Q 2275 2400 2225 2575 
Q 2150 2875 1700 3475 
z
M 5150 0 
L 5150 2175 
Q 5150 2725 5125 3325 
L 5725 3050 
L 5500 2850 
L 5500 525 
Q 5500 100 5525 -400 
L 5150 -600 
L 5150 -150 
L 1250 -150 
L 1000 -375 
L 675 -50 
L 875 125 
L 875 2375 
Q 875 2800 850 3425 
L 1450 3150 
L 1225 2975 
L 1225 0 
L 5150 0 
z
" transform="scale(0.015625)"/>
      <path id="SimSun-6570" d="M 1875 1525 
Q 1675 1200 1500 900 
Q 1825 825 2275 725 
Q 2500 975 2725 1525 
L 1875 1525 
z
M 850 4900 
Q 1325 4600 1425 4450 
Q 1525 4300 1525 4225 
Q 1525 4100 1437 3975 
Q 1350 3850 1300 3850 
Q 1225 3850 1150 4100 
Q 1050 4450 775 4850 
L 850 4900 
z
M 3000 4975 
L 3450 4675 
Q 3250 4625 3100 4425 
Q 2925 4225 2525 3825 
L 2450 3875 
Q 2925 4625 3000 4975 
z
M 1875 5250 
L 2425 5000 
L 2225 4825 
L 2225 3675 
L 2850 3675 
L 3125 3950 
L 3550 3525 
L 2225 3525 
L 2225 3300 
Q 2800 3175 2937 3062 
Q 3075 2950 3075 2775 
Q 3075 2700 3050 2587 
Q 3025 2475 2975 2475 
Q 2925 2475 2800 2650 
Q 2600 2925 2225 3175 
L 2225 2400 
L 1925 2200 
L 2275 2050 
Q 2150 2000 1950 1675 
L 2725 1675 
L 2900 1900 
L 3275 1575 
L 3050 1450 
Q 2800 875 2600 650 
Q 3000 550 3137 437 
Q 3275 325 3275 150 
Q 3275 -25 3200 -25 
Q 3125 -25 3025 75 
Q 2750 275 2400 425 
Q 1525 -275 325 -500 
L 300 -425 
Q 1450 -50 2100 550 
Q 1600 725 1125 800 
Q 1225 950 1525 1525 
L 1200 1525 
Q 875 1525 600 1450 
L 375 1675 
L 1575 1675 
Q 1675 1925 1775 2275 
L 1900 2225 
L 1900 3250 
Q 1225 2475 350 2050 
L 300 2125 
Q 1225 2775 1700 3525 
L 1250 3525 
Q 925 3525 650 3450 
L 425 3675 
L 1900 3675 
Q 1900 4575 1875 5250 
z
M 3925 3525 
Q 4050 2075 4525 1100 
Q 4925 1950 5025 3525 
L 3925 3525 
z
M 4050 5250 
L 4625 4925 
Q 4425 4850 4325 4625 
Q 4225 4400 3950 3675 
L 5375 3675 
L 5675 3975 
L 6125 3525 
L 5400 3525 
Q 5250 1675 4750 775 
Q 5325 75 6100 -100 
L 6100 -200 
Q 5625 -275 5600 -500 
Q 4950 -50 4525 525 
Q 3700 -275 2550 -650 
L 2500 -575 
Q 3650 -50 4325 800 
Q 3850 1975 3825 3375 
Q 3575 2725 3100 2150 
L 3025 2200 
Q 3625 3200 4050 5250 
z
" transform="scale(0.015625)"/>
      <path id="SimSun-4e0e" d="M 375 1250 
L 3750 1250 
L 4075 1575 
L 4550 1100 
L 1175 1100 
Q 875 1100 600 1025 
L 375 1250 
z
M 1700 2600 
Q 1800 4125 1812 4450 
Q 1825 4775 1825 5200 
L 2400 4925 
L 2200 4775 
L 2150 3850 
L 5075 3850 
L 5400 4175 
L 5875 3700 
L 2150 3700 
L 2075 2525 
L 5025 2525 
L 5225 2825 
L 5675 2500 
L 5450 2300 
Q 5400 1375 5300 687 
Q 5200 0 4937 -237 
Q 4675 -475 4250 -575 
Q 4275 -250 3425 0 
L 3450 125 
Q 4000 0 4400 0 
Q 4800 0 4925 737 
Q 5050 1475 5075 2375 
L 2100 2375 
L 1900 2125 
L 1500 2425 
L 1700 2600 
z
" transform="scale(0.015625)"/>
      <path id="SimSun-7406" d="M 325 575 
Q 1075 775 1350 875 
L 1350 2550 
L 1225 2550 
Q 900 2550 625 2475 
L 400 2700 
L 1350 2700 
L 1350 4225 
L 1175 4225 
Q 850 4225 575 4150 
L 350 4375 
L 1925 4375 
L 2225 4675 
L 2650 4225 
L 1675 4225 
L 1675 2700 
L 1925 2700 
L 2225 3000 
L 2650 2550 
L 1675 2550 
L 1675 975 
L 2700 1325 
L 2725 1225 
Q 1775 800 825 325 
L 625 125 
L 325 575 
z
M 2800 1800 
Q 2825 2600 2825 3350 
Q 2825 4100 2800 4900 
L 3125 4675 
L 5200 4675 
L 5375 4900 
L 5750 4600 
L 5550 4450 
L 5550 3275 
Q 5550 2475 5575 2025 
L 5250 1875 
L 5250 2175 
L 4350 2175 
L 4350 1100 
L 5075 1100 
L 5375 1400 
L 5800 950 
L 4350 950 
L 4350 -75 
L 5400 -75 
L 5725 250 
L 6175 -225 
L 2775 -225 
Q 2450 -225 2175 -300 
L 1950 -75 
L 4050 -75 
L 4050 950 
L 3500 950 
Q 3175 950 2900 875 
L 2675 1100 
L 4050 1100 
L 4050 2175 
L 3125 2175 
L 3125 1925 
L 2800 1800 
z
M 3125 4525 
L 3125 3525 
L 4050 3525 
L 4050 4525 
L 3125 4525 
z
M 4350 4525 
L 4350 3525 
L 5250 3525 
L 5250 4525 
L 4350 4525 
z
M 3125 3375 
L 3125 2325 
L 4050 2325 
L 4050 3375 
L 3125 3375 
z
M 4350 3375 
L 4350 2325 
L 5250 2325 
L 5250 3375 
L 4350 3375 
z
" transform="scale(0.015625)"/>
      <path id="SimSun-8bba" d="M 1050 4950 
L 1125 5000 
Q 1500 4800 1675 4625 
Q 1850 4450 1850 4275 
Q 1850 4100 1750 3987 
Q 1650 3875 1600 3875 
Q 1500 3875 1450 4125 
Q 1375 4475 1050 4950 
z
M 1625 450 
L 2750 1450 
L 2825 1375 
Q 1700 50 1575 -300 
L 1175 100 
Q 1300 200 1275 625 
L 1275 2850 
L 975 2850 
Q 800 2850 525 2775 
L 300 3000 
L 1250 3000 
L 1425 3250 
L 1825 2925 
L 1625 2750 
L 1625 450 
z
M 4325 4875 
L 4100 4725 
Q 4850 3175 6100 2775 
L 6100 2675 
Q 5725 2650 5575 2375 
Q 4400 3375 4025 4625 
Q 3275 3025 1950 2200 
L 1900 2275 
Q 2650 2950 3087 3687 
Q 3525 4425 3775 5225 
L 4325 4875 
z
M 4925 2000 
Q 4150 1425 3425 1050 
L 3425 375 
Q 3425 -100 3775 -75 
L 4950 -75 
Q 5225 -125 5250 337 
Q 5275 800 5275 1075 
L 5400 1075 
Q 5400 800 5450 412 
Q 5500 25 5775 0 
Q 5550 -375 5150 -375 
L 3725 -375 
Q 3025 -400 3075 225 
Q 3075 2375 3050 2875 
L 3625 2600 
L 3425 2400 
L 3425 1175 
Q 4325 1825 4825 2550 
L 5225 2050 
L 4925 2000 
z
" transform="scale(0.015625)"/>
      <path id="SimSun-5bf9" d="M 400 4250 
L 2375 4250 
L 2575 4500 
L 3000 4150 
L 2750 3950 
Q 2400 2850 2075 2100 
Q 2575 1375 2675 1062 
Q 2775 750 2762 537 
Q 2750 325 2662 237 
Q 2575 150 2550 150 
Q 2450 150 2375 575 
Q 2250 1075 1925 1800 
Q 1675 1350 1275 875 
Q 875 400 250 -100 
L 225 25 
Q 675 450 1087 1037 
Q 1500 1625 1725 2100 
Q 1000 3125 675 3550 
L 750 3625 
Q 1300 3025 1850 2400 
Q 2100 3050 2375 4100 
L 1225 4100 
Q 900 4100 625 4025 
L 400 4250 
z
M 3600 125 
Q 4375 0 4537 25 
Q 4700 50 4700 225 
L 4700 3350 
L 3525 3350 
Q 3200 3350 2925 3275 
L 2700 3500 
L 4700 3500 
L 4700 4350 
Q 4700 4800 4675 5125 
L 5275 4825 
L 5050 4625 
L 5050 3500 
L 5325 3500 
L 5650 3825 
L 6125 3350 
L 5050 3350 
L 5050 50 
Q 5050 -375 4500 -600 
Q 4500 -300 3600 0 
L 3600 125 
z
M 3100 2775 
L 3175 2825 
Q 3700 2400 3812 2175 
Q 3925 1950 3925 1800 
Q 3925 1625 3800 1462 
Q 3675 1300 3650 1300 
Q 3550 1300 3525 1650 
Q 3450 2125 3100 2775 
z
" transform="scale(0.015625)"/>
      <path id="SimSun-6bd4" d="M 1050 3400 
Q 1050 4525 1025 5075 
L 1625 4800 
L 1400 4600 
L 1400 2925 
L 2400 2925 
L 2700 3225 
L 3150 2775 
L 1400 2775 
L 1400 350 
L 3050 925 
L 3100 825 
Q 1625 150 1250 -250 
L 950 175 
Q 1050 275 1050 525 
L 1050 3400 
z
M 3425 3825 
Q 3425 4575 3400 5125 
L 4025 4825 
L 3775 4625 
L 3775 2525 
Q 4300 2925 4712 3400 
Q 5125 3875 5275 4175 
L 5775 3700 
Q 5475 3650 5025 3250 
Q 4550 2850 3775 2375 
L 3775 425 
Q 3775 125 4100 125 
L 5125 125 
Q 5325 125 5400 350 
Q 5475 575 5500 1425 
L 5625 1425 
Q 5625 825 5712 550 
Q 5800 275 6000 175 
Q 5875 -25 5712 -112 
Q 5550 -200 5275 -200 
L 3975 -200 
Q 3425 -200 3425 275 
L 3425 3825 
z
" transform="scale(0.015625)"/>
     </defs>
     <use xlink:href="#TimesNewRomanPSMT-4d"/>
     <use xlink:href="#TimesNewRomanPSMT-6f" x="88.916016"/>
     <use xlink:href="#TimesNewRomanPSMT-6e" x="138.916016"/>
     <use xlink:href="#TimesNewRomanPSMT-74" x="188.916016"/>
     <use xlink:href="#TimesNewRomanPSMT-65" x="216.699219"/>
     <use xlink:href="#TimesNewRomanPSMT-2d" x="261.083984"/>
     <use xlink:href="#TimesNewRomanPSMT-43" x="294.384766"/>
     <use xlink:href="#TimesNewRomanPSMT-61" x="361.083984"/>
     <use xlink:href="#TimesNewRomanPSMT-72" x="405.46875"/>
     <use xlink:href="#TimesNewRomanPSMT-6c" x="438.769531"/>
     <use xlink:href="#TimesNewRomanPSMT-6f" x="466.552734"/>
     <use xlink:href="#SimSun-8ba1" x="516.552734"/>
     <use xlink:href="#SimSun-7b97" x="616.552734"/>
     <use xlink:href="#TimesNewRomanPSMT-74" x="716.552734"/>
     <use xlink:href="#TimesNewRomanPSMT-28" x="744.335938"/>
     <use xlink:href="#TimesNewRomanPSMT-3b1" x="777.636719"/>
     <use xlink:href="#TimesNewRomanPSMT-29" x="830.029297"/>
     <use xlink:href="#SimSun-5206" x="863.330078"/>
     <use xlink:href="#SimSun-4f4d" x="963.330078"/>
     <use xlink:href="#SimSun-70b9" x="1063.330078"/>
     <use xlink:href="#SimSun-51fd" x="1163.330078"/>
     <use xlink:href="#SimSun-6570" x="1263.330078"/>
     <use xlink:href="#SimSun-4e0e" x="1363.330078"/>
     <use xlink:href="#SimSun-7406" x="1463.330078"/>
     <use xlink:href="#SimSun-8bba" x="1563.330078"/>
     <use xlink:href="#SimSun-8ba1" x="1663.330078"/>
     <use xlink:href="#SimSun-7b97" x="1763.330078"/>
     <use xlink:href="#SimSun-5bf9" x="1863.330078"/>
     <use xlink:href="#SimSun-6bd4" x="1963.330078"/>
    </g>
   </g>
   <g id="legend_1">
    <g id="patch_7">
     <path d="M 64.6 163.5345 
L 167.239062 163.5345 
Q 169.239062 163.5345 169.239062 161.5345 
L 169.239062 48.472 
Q 169.239062 46.472 167.239062 46.472 
L 64.6 46.472 
Q 62.6 46.472 62.6 48.472 
L 62.6 161.5345 
Q 62.6 163.5345 64.6 163.5345 
z
" style="fill: #ffffff; opacity: 0.8; stroke: #cccccc; stroke-linejoin: miter"/>
    </g>
    <g id="line2d_22">
     <path d="M 66.6 54.09075 
L 76.6 54.09075 
L 86.6 54.09075 
" style="fill: none; stroke: #000000; stroke-width: 0.5; stroke-linecap: square"/>
    </g>
    <g id="text_17">
     <!-- 理论计算 -->
     <g transform="translate(94.6 57.59075) scale(0.1 -0.1)">
      <use xlink:href="#SimSun-7406"/>
      <use xlink:href="#SimSun-8bba" x="100"/>
      <use xlink:href="#SimSun-8ba1" x="200"/>
      <use xlink:href="#SimSun-7b97" x="300"/>
     </g>
    </g>
    <g id="line2d_23">
     <path d="M 66.6 68.348563 
L 76.6 68.348563 
L 86.6 68.348563 
" style="fill: none; stroke: #00ffff; stroke-width: 0.5; stroke-linecap: square"/>
    </g>
    <g id="text_18">
     <!-- 实验次数=4 -->
     <g transform="translate(94.6 71.848563) scale(0.1 -0.1)">
      <defs>
       <path id="SimSun-5b9e" d="M 1950 3625 
Q 2575 3400 2700 3250 
Q 2825 3100 2825 2975 
Q 2825 2850 2750 2700 
Q 2675 2550 2625 2550 
Q 2550 2550 2450 2800 
Q 2275 3175 1900 3550 
L 1950 3625 
z
M 3575 1325 
Q 3500 1100 3425 925 
Q 4650 550 5087 325 
Q 5525 100 5512 -225 
Q 5500 -550 5400 -550 
Q 5300 -550 5075 -300 
Q 4625 175 3375 800 
Q 3025 175 2300 -150 
Q 1575 -475 425 -625 
L 425 -525 
Q 1475 -325 2200 100 
Q 2925 525 3200 1325 
L 1225 1325 
Q 900 1325 625 1250 
L 400 1475 
L 3225 1475 
Q 3325 1950 3375 2575 
Q 3425 3200 3425 3700 
L 4050 3400 
L 3850 3225 
Q 3750 2300 3625 1475 
L 5175 1475 
L 5550 1850 
L 6075 1325 
L 3575 1325 
z
M 1275 2700 
Q 1975 2425 2100 2262 
Q 2225 2100 2225 1975 
Q 2225 1850 2150 1700 
Q 2075 1550 2025 1550 
Q 1950 1550 1850 1800 
Q 1675 2175 1225 2625 
L 1275 2700 
z
M 2750 5225 
L 2825 5275 
Q 3225 5100 3425 4925 
Q 3625 4750 3625 4600 
Q 3625 4450 3512 4300 
Q 3400 4150 3325 4150 
Q 3250 4150 3200 4400 
Q 3100 4775 2750 5225 
z
M 4975 3225 
L 5350 3925 
L 1175 3925 
Q 1225 3525 1125 3300 
Q 1025 3075 787 3100 
Q 550 3125 550 3200 
Q 550 3300 700 3475 
Q 975 3825 1050 4375 
L 1150 4375 
L 1175 4075 
L 5300 4075 
L 5575 4350 
L 6050 3800 
Q 5625 3825 5050 3175 
L 4975 3225 
z
" transform="scale(0.015625)"/>
       <path id="SimSun-9a8c" d="M 4050 5225 
L 4550 4925 
L 4350 4800 
Q 5050 3225 6125 2975 
L 6125 2900 
Q 5750 2850 5650 2600 
Q 4700 3325 4275 4725 
Q 3575 3225 2525 2475 
L 2475 2550 
Q 3075 3150 3500 3925 
Q 3925 4700 4050 5225 
z
M 3025 2800 
L 4650 2800 
L 4950 3100 
L 5350 2650 
L 3850 2650 
Q 3525 2650 3250 2575 
L 3025 2800 
z
M 2925 2000 
L 3000 2050 
Q 3475 1300 3537 1100 
Q 3600 900 3600 775 
Q 3600 625 3512 475 
Q 3425 325 3312 337 
Q 3200 350 3175 800 
Q 3150 1250 2925 2000 
z
M 3650 2225 
L 3725 2275 
Q 4375 1450 4425 1100 
Q 4475 750 4337 650 
Q 4200 550 4175 550 
Q 4075 550 4050 800 
Q 4025 1150 3900 1562 
Q 3775 1975 3650 2225 
z
M 5175 2300 
L 5700 1950 
Q 5525 1875 5325 1412 
Q 5125 950 4675 -150 
L 5300 -150 
L 5650 200 
L 6100 -300 
L 3375 -300 
Q 3050 -300 2775 -375 
L 2550 -150 
L 4525 -150 
Q 5175 1900 5175 2300 
z
M 400 4675 
L 1950 4675 
L 2150 4925 
L 2525 4600 
L 2300 4450 
L 2050 2275 
L 2225 2275 
L 2375 2475 
L 2750 2175 
L 2550 2025 
Q 2425 500 2300 175 
Q 2175 -150 1975 -287 
Q 1775 -425 1550 -475 
Q 1525 -125 825 100 
L 850 200 
Q 1550 50 1725 62 
Q 1900 75 2012 437 
Q 2125 800 2225 2125 
L 1000 2125 
L 825 1925 
L 500 2225 
L 675 2325 
Q 875 3750 900 4200 
L 1400 3925 
L 1200 3775 
L 1000 2275 
L 1725 2275 
L 1975 4525 
L 1225 4525 
Q 900 4525 625 4450 
L 400 4675 
z
M 225 1075 
Q 725 1125 2000 1375 
L 2025 1275 
Q 600 850 500 650 
L 225 1075 
z
" transform="scale(0.015625)"/>
       <path id="SimSun-6b21" d="M 4875 2725 
L 5275 3600 
L 3225 3600 
Q 3025 3250 2800 2887 
Q 2575 2525 2075 2025 
L 2000 2100 
Q 2575 2825 2925 3750 
Q 3275 4675 3350 5225 
L 3950 4925 
Q 3750 4825 3650 4600 
Q 3550 4375 3275 3750 
L 5250 3750 
L 5525 4025 
L 5975 3550 
Q 5725 3500 5550 3350 
Q 5375 3200 4950 2675 
L 4875 2725 
z
M 4050 2900 
Q 3900 1225 3175 437 
Q 2450 -350 1450 -650 
L 1400 -575 
Q 2675 0 3175 912 
Q 3675 1825 3700 3400 
L 4275 3100 
L 4125 2975 
Q 4300 1700 4812 912 
Q 5325 125 6150 -175 
L 6125 -250 
Q 5750 -225 5575 -500 
Q 4950 -25 4537 825 
Q 4125 1675 4050 2900 
z
M 750 4950 
Q 1275 4675 1487 4450 
Q 1700 4225 1700 4075 
Q 1700 3925 1587 3775 
Q 1475 3625 1450 3625 
Q 1350 3625 1275 3950 
Q 1150 4400 700 4875 
L 750 4950 
z
M 425 1650 
Q 600 1625 750 1625 
Q 975 1625 1100 1725 
Q 1225 1825 2275 4300 
L 2375 4250 
Q 1400 1700 1350 1600 
Q 1300 1500 1300 1187 
Q 1300 875 1375 350 
Q 1450 -200 1212 -175 
Q 975 -150 925 -25 
Q 875 100 875 200 
Q 875 300 925 575 
Q 1000 975 975 1187 
Q 950 1400 425 1550 
L 425 1650 
z
" transform="scale(0.015625)"/>
       <path id="TimesNewRomanPSMT-3d" d="M 116 2759 
L 3488 2759 
L 3488 2503 
L 116 2503 
L 116 2759 
z
M 116 1741 
L 3488 1741 
L 3488 1484 
L 116 1484 
L 116 1741 
z
" transform="scale(0.015625)"/>
      </defs>
      <use xlink:href="#SimSun-5b9e"/>
      <use xlink:href="#SimSun-9a8c" x="100"/>
      <use xlink:href="#SimSun-6b21" x="200"/>
      <use xlink:href="#SimSun-6570" x="300"/>
      <use xlink:href="#TimesNewRomanPSMT-3d" x="400"/>
      <use xlink:href="#TimesNewRomanPSMT-34" x="456.396484"/>
     </g>
    </g>
    <g id="line2d_24">
     <path d="M 66.6 82.606375 
L 76.6 82.606375 
L 86.6 82.606375 
" style="fill: none; stroke: #0000ff; stroke-width: 0.5; stroke-linecap: square"/>
    </g>
    <g id="text_19">
     <!-- 实验次数=16 -->
     <g transform="translate(94.6 86.106375) scale(0.1 -0.1)">
      <use xlink:href="#SimSun-5b9e"/>
      <use xlink:href="#SimSun-9a8c" x="100"/>
      <use xlink:href="#SimSun-6b21" x="200"/>
      <use xlink:href="#SimSun-6570" x="300"/>
      <use xlink:href="#TimesNewRomanPSMT-3d" x="400"/>
      <use xlink:href="#TimesNewRomanPSMT-31" x="456.396484"/>
      <use xlink:href="#TimesNewRomanPSMT-36" x="506.396484"/>
     </g>
    </g>
    <g id="line2d_25">
     <path d="M 66.6 96.864188 
L 76.6 96.864188 
L 86.6 96.864188 
" style="fill: none; stroke: #8a2be2; stroke-width: 0.5; stroke-linecap: square"/>
    </g>
    <g id="text_20">
     <!-- 实验次数=64 -->
     <g transform="translate(94.6 100.364188) scale(0.1 -0.1)">
      <use xlink:href="#SimSun-5b9e"/>
      <use xlink:href="#SimSun-9a8c" x="100"/>
      <use xlink:href="#SimSun-6b21" x="200"/>
      <use xlink:href="#SimSun-6570" x="300"/>
      <use xlink:href="#TimesNewRomanPSMT-3d" x="400"/>
      <use xlink:href="#TimesNewRomanPSMT-36" x="456.396484"/>
      <use xlink:href="#TimesNewRomanPSMT-34" x="506.396484"/>
     </g>
    </g>
    <g id="line2d_26">
     <path d="M 66.6 111.122 
L 76.6 111.122 
L 86.6 111.122 
" style="fill: none; stroke: #7fff00; stroke-width: 0.5; stroke-linecap: square"/>
    </g>
    <g id="text_21">
     <!-- 实验次数=256 -->
     <g transform="translate(94.6 114.622) scale(0.1 -0.1)">
      <defs>
       <path id="TimesNewRomanPSMT-35" d="M 2778 4238 
L 2534 3706 
L 1259 3706 
L 981 3138 
Q 1809 3016 2294 2522 
Q 2709 2097 2709 1522 
Q 2709 1188 2573 903 
Q 2438 619 2231 419 
Q 2025 219 1772 97 
Q 1413 -75 1034 -75 
Q 653 -75 479 54 
Q 306 184 306 341 
Q 306 428 378 495 
Q 450 563 559 563 
Q 641 563 702 538 
Q 763 513 909 409 
Q 1144 247 1384 247 
Q 1750 247 2026 523 
Q 2303 800 2303 1197 
Q 2303 1581 2056 1914 
Q 1809 2247 1375 2428 
Q 1034 2569 447 2591 
L 1259 4238 
L 2778 4238 
z
" transform="scale(0.015625)"/>
      </defs>
      <use xlink:href="#SimSun-5b9e"/>
      <use xlink:href="#SimSun-9a8c" x="100"/>
      <use xlink:href="#SimSun-6b21" x="200"/>
      <use xlink:href="#SimSun-6570" x="300"/>
      <use xlink:href="#TimesNewRomanPSMT-3d" x="400"/>
      <use xlink:href="#TimesNewRomanPSMT-32" x="456.396484"/>
      <use xlink:href="#TimesNewRomanPSMT-35" x="506.396484"/>
      <use xlink:href="#TimesNewRomanPSMT-36" x="556.396484"/>
     </g>
    </g>
    <g id="line2d_27">
     <path d="M 66.6 125.379813 
L 76.6 125.379813 
L 86.6 125.379813 
" style="fill: none; stroke: #d2691e; stroke-width: 0.5; stroke-linecap: square"/>
    </g>
    <g id="text_22">
     <!-- 实验次数=1024 -->
     <g transform="translate(94.6 128.879813) scale(0.1 -0.1)">
      <use xlink:href="#SimSun-5b9e"/>
      <use xlink:href="#SimSun-9a8c" x="100"/>
      <use xlink:href="#SimSun-6b21" x="200"/>
      <use xlink:href="#SimSun-6570" x="300"/>
      <use xlink:href="#TimesNewRomanPSMT-3d" x="400"/>
      <use xlink:href="#TimesNewRomanPSMT-31" x="456.396484"/>
      <use xlink:href="#TimesNewRomanPSMT-30" x="506.396484"/>
      <use xlink:href="#TimesNewRomanPSMT-32" x="556.396484"/>
      <use xlink:href="#TimesNewRomanPSMT-34" x="606.396484"/>
     </g>
    </g>
    <g id="line2d_28">
     <path d="M 66.6 139.637625 
L 76.6 139.637625 
L 86.6 139.637625 
" style="fill: none; stroke: #dc143c; stroke-width: 0.5; stroke-linecap: square"/>
    </g>
    <g id="text_23">
     <!-- 实验次数=4096 -->
     <g transform="translate(94.6 143.137625) scale(0.1 -0.1)">
      <defs>
       <path id="TimesNewRomanPSMT-39" d="M 338 -88 
L 338 28 
Q 744 34 1094 217 
Q 1444 400 1770 856 
Q 2097 1313 2225 1859 
Q 1734 1544 1338 1544 
Q 891 1544 572 1889 
Q 253 2234 253 2806 
Q 253 3363 572 3797 
Q 956 4325 1575 4325 
Q 2097 4325 2469 3894 
Q 2925 3359 2925 2575 
Q 2925 1869 2578 1258 
Q 2231 647 1613 244 
Q 1109 -88 516 -88 
L 338 -88 
z
M 2275 2091 
Q 2331 2497 2331 2741 
Q 2331 3044 2228 3395 
Q 2125 3747 1936 3934 
Q 1747 4122 1506 4122 
Q 1228 4122 1018 3872 
Q 809 3622 809 3128 
Q 809 2469 1088 2097 
Q 1291 1828 1588 1828 
Q 1731 1828 1928 1897 
Q 2125 1966 2275 2091 
z
" transform="scale(0.015625)"/>
      </defs>
      <use xlink:href="#SimSun-5b9e"/>
      <use xlink:href="#SimSun-9a8c" x="100"/>
      <use xlink:href="#SimSun-6b21" x="200"/>
      <use xlink:href="#SimSun-6570" x="300"/>
      <use xlink:href="#TimesNewRomanPSMT-3d" x="400"/>
      <use xlink:href="#TimesNewRomanPSMT-34" x="456.396484"/>
      <use xlink:href="#TimesNewRomanPSMT-30" x="506.396484"/>
      <use xlink:href="#TimesNewRomanPSMT-39" x="556.396484"/>
      <use xlink:href="#TimesNewRomanPSMT-36" x="606.396484"/>
     </g>
    </g>
    <g id="line2d_29">
     <path d="M 66.6 153.895438 
L 76.6 153.895438 
L 86.6 153.895438 
" style="fill: none; stroke: #006400; stroke-width: 0.5; stroke-linecap: square"/>
    </g>
    <g id="text_24">
     <!-- 实验次数=16384 -->
     <g transform="translate(94.6 157.395438) scale(0.1 -0.1)">
      <use xlink:href="#SimSun-5b9e"/>
      <use xlink:href="#SimSun-9a8c" x="100"/>
      <use xlink:href="#SimSun-6b21" x="200"/>
      <use xlink:href="#SimSun-6570" x="300"/>
      <use xlink:href="#TimesNewRomanPSMT-3d" x="400"/>
      <use xlink:href="#TimesNewRomanPSMT-31" x="456.396484"/>
      <use xlink:href="#TimesNewRomanPSMT-36" x="506.396484"/>
      <use xlink:href="#TimesNewRomanPSMT-33" x="556.396484"/>
      <use xlink:href="#TimesNewRomanPSMT-38" x="606.396484"/>
      <use xlink:href="#TimesNewRomanPSMT-34" x="656.396484"/>
     </g>
    </g>
   </g>
  </g>
 </g>
 <defs>
  <clipPath id="p7b70e56dbe">
   <rect x="57.6" y="41.472" width="357.12" height="266.112"/>
  </clipPath>
 </defs>
</svg>
