<?xml version="1.0" encoding="utf-8" standalone="no"?>
<!DOCTYPE svg PUBLIC "-//W3C//DTD SVG 1.1//EN"
  "http://www.w3.org/Graphics/SVG/1.1/DTD/svg11.dtd">
<svg xmlns:xlink="http://www.w3.org/1999/xlink" width="460.8pt" height="345.6pt" viewBox="0 0 460.8 345.6" xmlns="http://www.w3.org/2000/svg" version="1.1">
 <metadata>
  <rdf:RDF xmlns:dc="http://purl.org/dc/elements/1.1/" xmlns:cc="http://creativecommons.org/ns#" xmlns:rdf="http://www.w3.org/1999/02/22-rdf-syntax-ns#">
   <cc:Work>
    <dc:type rdf:resource="http://purl.org/dc/dcmitype/StillImage"/>
    <dc:date>2022-11-05T20:44:32.216451</dc:date>
    <dc:format>image/svg+xml</dc:format>
    <dc:creator>
     <cc:Agent>
      <dc:title>Matplotlib v3.6.1, https://matplotlib.org/</dc:title>
     </cc:Agent>
    </dc:creator>
   </cc:Work>
  </rdf:RDF>
 </metadata>
 <defs>
  <style type="text/css">*{stroke-linejoin: round; stroke-linecap: butt}</style>
 </defs>
 <g id="figure_1">
  <g id="patch_1">
   <path d="M 0 345.6 
L 460.8 345.6 
L 460.8 0 
L 0 0 
z
" style="fill: #ffffff"/>
  </g>
  <g id="axes_1">
   <g id="patch_2">
    <path d="M 57.6 307.584 
L 414.72 307.584 
L 414.72 41.472 
L 57.6 41.472 
z
" style="fill: #ffffff"/>
   </g>
   <g id="matplotlib.axis_1">
    <g id="xtick_1">
     <g id="line2d_1">
      <defs>
       <path id="m948c2a4cf8" d="M 0 0 
L 0 3.5 
" style="stroke: #000000; stroke-width: 0.8"/>
      </defs>
      <g>
       <use xlink:href="#m948c2a4cf8" x="106.298182" y="307.584" style="stroke: #000000; stroke-width: 0.8"/>
      </g>
     </g>
     <g id="text_1">
      <!-- 26 -->
      <g transform="translate(101.298182 321.52775) scale(0.1 -0.1)">
       <defs>
        <path id="TimesNewRomanPSMT-32" d="M 2934 816 
L 2638 0 
L 138 0 
L 138 116 
Q 1241 1122 1691 1759 
Q 2141 2397 2141 2925 
Q 2141 3328 1894 3587 
Q 1647 3847 1303 3847 
Q 991 3847 742 3664 
Q 494 3481 375 3128 
L 259 3128 
Q 338 3706 661 4015 
Q 984 4325 1469 4325 
Q 1984 4325 2329 3994 
Q 2675 3663 2675 3213 
Q 2675 2891 2525 2569 
Q 2294 2063 1775 1497 
Q 997 647 803 472 
L 1909 472 
Q 2247 472 2383 497 
Q 2519 522 2628 598 
Q 2738 675 2819 816 
L 2934 816 
z
" transform="scale(0.015625)"/>
        <path id="TimesNewRomanPSMT-36" d="M 2869 4325 
L 2869 4209 
Q 2456 4169 2195 4045 
Q 1934 3922 1679 3669 
Q 1425 3416 1258 3105 
Q 1091 2794 978 2366 
Q 1428 2675 1881 2675 
Q 2316 2675 2634 2325 
Q 2953 1975 2953 1425 
Q 2953 894 2631 456 
Q 2244 -75 1606 -75 
Q 1172 -75 869 213 
Q 275 772 275 1663 
Q 275 2231 503 2743 
Q 731 3256 1154 3653 
Q 1578 4050 1965 4187 
Q 2353 4325 2688 4325 
L 2869 4325 
z
M 925 2138 
Q 869 1716 869 1456 
Q 869 1156 980 804 
Q 1091 453 1309 247 
Q 1469 100 1697 100 
Q 1969 100 2183 356 
Q 2397 613 2397 1088 
Q 2397 1622 2184 2012 
Q 1972 2403 1581 2403 
Q 1463 2403 1327 2353 
Q 1191 2303 925 2138 
z
" transform="scale(0.015625)"/>
       </defs>
       <use xlink:href="#TimesNewRomanPSMT-32"/>
       <use xlink:href="#TimesNewRomanPSMT-36" x="50"/>
      </g>
     </g>
    </g>
    <g id="xtick_2">
     <g id="line2d_2">
      <g>
       <use xlink:href="#m948c2a4cf8" x="171.229091" y="307.584" style="stroke: #000000; stroke-width: 0.8"/>
      </g>
     </g>
     <g id="text_2">
      <!-- 28 -->
      <g transform="translate(166.229091 321.52775) scale(0.1 -0.1)">
       <defs>
        <path id="TimesNewRomanPSMT-38" d="M 1228 2134 
Q 725 2547 579 2797 
Q 434 3047 434 3316 
Q 434 3728 753 4026 
Q 1072 4325 1600 4325 
Q 2113 4325 2425 4047 
Q 2738 3769 2738 3413 
Q 2738 3175 2569 2928 
Q 2400 2681 1866 2347 
Q 2416 1922 2594 1678 
Q 2831 1359 2831 1006 
Q 2831 559 2490 242 
Q 2150 -75 1597 -75 
Q 994 -75 656 303 
Q 388 606 388 966 
Q 388 1247 577 1523 
Q 766 1800 1228 2134 
z
M 1719 2469 
Q 2094 2806 2194 3001 
Q 2294 3197 2294 3444 
Q 2294 3772 2109 3958 
Q 1925 4144 1606 4144 
Q 1288 4144 1088 3959 
Q 888 3775 888 3528 
Q 888 3366 970 3203 
Q 1053 3041 1206 2894 
L 1719 2469 
z
M 1375 2016 
Q 1116 1797 991 1539 
Q 866 1281 866 981 
Q 866 578 1086 336 
Q 1306 94 1647 94 
Q 1984 94 2187 284 
Q 2391 475 2391 747 
Q 2391 972 2272 1150 
Q 2050 1481 1375 2016 
z
" transform="scale(0.015625)"/>
       </defs>
       <use xlink:href="#TimesNewRomanPSMT-32"/>
       <use xlink:href="#TimesNewRomanPSMT-38" x="50"/>
      </g>
     </g>
    </g>
    <g id="xtick_3">
     <g id="line2d_3">
      <g>
       <use xlink:href="#m948c2a4cf8" x="236.16" y="307.584" style="stroke: #000000; stroke-width: 0.8"/>
      </g>
     </g>
     <g id="text_3">
      <!-- 30 -->
      <g transform="translate(231.16 321.52775) scale(0.1 -0.1)">
       <defs>
        <path id="TimesNewRomanPSMT-33" d="M 325 3431 
Q 506 3859 782 4092 
Q 1059 4325 1472 4325 
Q 1981 4325 2253 3994 
Q 2459 3747 2459 3466 
Q 2459 3003 1878 2509 
Q 2269 2356 2469 2072 
Q 2669 1788 2669 1403 
Q 2669 853 2319 450 
Q 1863 -75 997 -75 
Q 569 -75 414 31 
Q 259 138 259 259 
Q 259 350 332 419 
Q 406 488 509 488 
Q 588 488 669 463 
Q 722 447 909 348 
Q 1097 250 1169 231 
Q 1284 197 1416 197 
Q 1734 197 1970 444 
Q 2206 691 2206 1028 
Q 2206 1275 2097 1509 
Q 2016 1684 1919 1775 
Q 1784 1900 1550 2001 
Q 1316 2103 1072 2103 
L 972 2103 
L 972 2197 
Q 1219 2228 1467 2375 
Q 1716 2522 1828 2728 
Q 1941 2934 1941 3181 
Q 1941 3503 1739 3701 
Q 1538 3900 1238 3900 
Q 753 3900 428 3381 
L 325 3431 
z
" transform="scale(0.015625)"/>
        <path id="TimesNewRomanPSMT-30" d="M 231 2094 
Q 231 2819 450 3342 
Q 669 3866 1031 4122 
Q 1313 4325 1613 4325 
Q 2100 4325 2488 3828 
Q 2972 3213 2972 2159 
Q 2972 1422 2759 906 
Q 2547 391 2217 158 
Q 1888 -75 1581 -75 
Q 975 -75 572 641 
Q 231 1244 231 2094 
z
M 844 2016 
Q 844 1141 1059 588 
Q 1238 122 1591 122 
Q 1759 122 1940 273 
Q 2122 425 2216 781 
Q 2359 1319 2359 2297 
Q 2359 3022 2209 3506 
Q 2097 3866 1919 4016 
Q 1791 4119 1609 4119 
Q 1397 4119 1231 3928 
Q 1006 3669 925 3112 
Q 844 2556 844 2016 
z
" transform="scale(0.015625)"/>
       </defs>
       <use xlink:href="#TimesNewRomanPSMT-33"/>
       <use xlink:href="#TimesNewRomanPSMT-30" x="50"/>
      </g>
     </g>
    </g>
    <g id="xtick_4">
     <g id="line2d_4">
      <g>
       <use xlink:href="#m948c2a4cf8" x="301.090909" y="307.584" style="stroke: #000000; stroke-width: 0.8"/>
      </g>
     </g>
     <g id="text_4">
      <!-- 32 -->
      <g transform="translate(296.090909 321.52775) scale(0.1 -0.1)">
       <use xlink:href="#TimesNewRomanPSMT-33"/>
       <use xlink:href="#TimesNewRomanPSMT-32" x="50"/>
      </g>
     </g>
    </g>
    <g id="xtick_5">
     <g id="line2d_5">
      <g>
       <use xlink:href="#m948c2a4cf8" x="366.021818" y="307.584" style="stroke: #000000; stroke-width: 0.8"/>
      </g>
     </g>
     <g id="text_5">
      <!-- 34 -->
      <g transform="translate(361.021818 321.52775) scale(0.1 -0.1)">
       <defs>
        <path id="TimesNewRomanPSMT-34" d="M 2978 1563 
L 2978 1119 
L 2409 1119 
L 2409 0 
L 1894 0 
L 1894 1119 
L 100 1119 
L 100 1519 
L 2066 4325 
L 2409 4325 
L 2409 1563 
L 2978 1563 
z
M 1894 1563 
L 1894 3666 
L 406 1563 
L 1894 1563 
z
" transform="scale(0.015625)"/>
       </defs>
       <use xlink:href="#TimesNewRomanPSMT-33"/>
       <use xlink:href="#TimesNewRomanPSMT-34" x="50"/>
      </g>
     </g>
    </g>
    <g id="text_6">
     <!-- T(x)统计量(MB) -->
     <g transform="translate(201.165469 335.830875) scale(0.1 -0.1)">
      <defs>
       <path id="TimesNewRomanPSMT-54" d="M 3703 4238 
L 3750 3244 
L 3631 3244 
Q 3597 3506 3538 3619 
Q 3441 3800 3280 3886 
Q 3119 3972 2856 3972 
L 2259 3972 
L 2259 734 
Q 2259 344 2344 247 
Q 2463 116 2709 116 
L 2856 116 
L 2856 0 
L 1059 0 
L 1059 116 
L 1209 116 
Q 1478 116 1591 278 
Q 1659 378 1659 734 
L 1659 3972 
L 1150 3972 
Q 853 3972 728 3928 
Q 566 3869 450 3700 
Q 334 3531 313 3244 
L 194 3244 
L 244 4238 
L 3703 4238 
z
" transform="scale(0.015625)"/>
       <path id="TimesNewRomanPSMT-28" d="M 1988 -1253 
L 1988 -1369 
Q 1516 -1131 1200 -813 
Q 750 -359 506 256 
Q 263 872 263 1534 
Q 263 2503 741 3301 
Q 1219 4100 1988 4444 
L 1988 4313 
Q 1603 4100 1356 3731 
Q 1109 3363 987 2797 
Q 866 2231 866 1616 
Q 866 947 969 400 
Q 1050 -31 1165 -292 
Q 1281 -553 1476 -793 
Q 1672 -1034 1988 -1253 
z
" transform="scale(0.015625)"/>
       <path id="TimesNewRomanPSMT-78" d="M 84 2863 
L 1431 2863 
L 1431 2747 
Q 1303 2747 1251 2703 
Q 1200 2659 1200 2588 
Q 1200 2513 1309 2356 
Q 1344 2306 1413 2200 
L 1616 1875 
L 1850 2200 
Q 2075 2509 2075 2591 
Q 2075 2656 2022 2701 
Q 1969 2747 1850 2747 
L 1850 2863 
L 2819 2863 
L 2819 2747 
Q 2666 2738 2553 2663 
Q 2400 2556 2134 2200 
L 1744 1678 
L 2456 653 
Q 2719 275 2831 198 
Q 2944 122 3122 113 
L 3122 0 
L 1772 0 
L 1772 113 
Q 1913 113 1991 175 
Q 2050 219 2050 291 
Q 2050 363 1850 653 
L 1431 1266 
L 972 653 
Q 759 369 759 316 
Q 759 241 829 180 
Q 900 119 1041 113 
L 1041 0 
L 106 0 
L 106 113 
Q 219 128 303 191 
Q 422 281 703 653 
L 1303 1450 
L 759 2238 
Q 528 2575 401 2661 
Q 275 2747 84 2747 
L 84 2863 
z
" transform="scale(0.015625)"/>
       <path id="TimesNewRomanPSMT-29" d="M 144 4313 
L 144 4444 
Q 619 4209 934 3891 
Q 1381 3434 1625 2820 
Q 1869 2206 1869 1541 
Q 1869 572 1392 -226 
Q 916 -1025 144 -1369 
L 144 -1253 
Q 528 -1038 776 -670 
Q 1025 -303 1145 264 
Q 1266 831 1266 1447 
Q 1266 2113 1163 2663 
Q 1084 3094 967 3353 
Q 850 3613 656 3853 
Q 463 4094 144 4313 
z
" transform="scale(0.015625)"/>
       <path id="SimSun-7edf" d="M 3675 5150 
L 3725 5225 
Q 4350 4925 4425 4737 
Q 4500 4550 4375 4387 
Q 4250 4225 4200 4225 
Q 4125 4225 4075 4450 
Q 3975 4800 3675 5150 
z
M 2675 2525 
Q 2950 2600 3337 3100 
Q 3725 3600 3900 4050 
L 3350 4050 
Q 3025 4050 2750 3975 
L 2525 4200 
L 5225 4200 
L 5575 4550 
L 6000 4050 
L 4025 4050 
L 4400 3750 
Q 4150 3675 3875 3400 
Q 3600 3125 3100 2525 
L 5175 2625 
Q 4900 2950 4550 3275 
L 4600 3350 
Q 5025 3150 5362 2950 
Q 5700 2750 5737 2650 
Q 5775 2550 5775 2450 
Q 5775 2300 5712 2175 
Q 5650 2050 5600 2050 
Q 5575 2050 5525 2150 
Q 5425 2300 5275 2500 
Q 4525 2425 3862 2337 
Q 3200 2250 2900 2050 
L 2675 2525 
z
M 3500 2275 
L 3875 2350 
L 3850 1775 
Q 3775 550 3325 112 
Q 2875 -325 1950 -600 
L 1925 -525 
Q 2625 -175 2950 150 
Q 3275 475 3387 962 
Q 3500 1450 3500 2275 
z
M 4475 2450 
L 4800 2500 
L 4800 1750 
L 4800 175 
Q 4775 -150 5175 -125 
L 5375 -125 
Q 5625 -125 5650 87 
Q 5675 300 5700 825 
L 5825 825 
Q 5825 425 5875 187 
Q 5925 -50 6100 -75 
Q 5975 -425 5600 -425 
L 4975 -425 
Q 4475 -450 4475 25 
L 4475 2450 
z
M 425 500 
Q 675 525 1212 637 
Q 1750 750 2700 975 
L 2725 875 
Q 2200 700 1550 462 
Q 900 225 675 -25 
L 425 500 
z
M 1000 1825 
Q 1275 1850 2625 2025 
L 2650 1925 
Q 2050 1800 1550 1650 
Q 1050 1500 800 1300 
L 500 1825 
Q 725 1875 1125 2312 
Q 1525 2750 1825 3175 
Q 1450 3100 1175 3037 
Q 900 2975 650 2800 
L 400 3225 
Q 675 3300 1050 3912 
Q 1425 4525 1650 5225 
L 2125 4900 
Q 1925 4775 1675 4400 
Q 1425 4000 825 3225 
Q 1475 3275 1900 3300 
Q 2100 3575 2300 4025 
L 2750 3675 
Q 2525 3575 2100 3050 
Q 1650 2525 1000 1825 
z
" transform="scale(0.015625)"/>
       <path id="SimSun-8ba1" d="M 975 4975 
L 1000 5050 
Q 1550 4800 1762 4625 
Q 1975 4450 1975 4275 
Q 1975 4100 1887 4025 
Q 1800 3950 1775 3950 
Q 1650 3950 1550 4250 
Q 1375 4625 975 4975 
z
M 1650 375 
L 2625 1225 
L 2675 1150 
Q 1800 25 1600 -350 
L 1225 75 
Q 1325 225 1325 550 
L 1325 2800 
L 675 2800 
L 900 2800 
Q 750 2800 475 2725 
L 250 2950 
L 1275 2950 
L 1550 3225 
L 1900 2875 
L 1650 2700 
L 1650 375 
z
M 3850 2925 
Q 3850 4600 3825 5100 
L 4425 4825 
L 4225 4625 
L 4225 2925 
L 5350 2925 
L 5675 3250 
L 6125 2775 
L 4225 2775 
L 4225 500 
Q 4225 0 4250 -425 
L 3825 -600 
Q 3850 175 3850 575 
L 3850 2775 
L 2575 2775 
L 2950 2775 
Q 2650 2775 2375 2700 
L 2150 2925 
L 3850 2925 
z
" transform="scale(0.015625)"/>
       <path id="SimSun-91cf" d="M 1700 2400 
L 1700 1875 
L 3025 1875 
L 3025 2400 
L 1700 2400 
z
M 3350 2400 
L 3350 1875 
L 4625 1875 
L 4625 2400 
L 3350 2400 
z
M 1700 1725 
L 1700 1225 
L 3025 1225 
L 3025 1725 
L 1700 1725 
z
M 3350 1725 
L 3350 1225 
L 4625 1225 
L 4625 1725 
L 3350 1725 
z
M 4950 2325 
Q 4950 1350 4975 1025 
L 4625 875 
L 4625 1075 
L 3350 1075 
L 3350 525 
L 4700 525 
L 5050 825 
L 5450 375 
L 3350 375 
L 3350 -225 
L 5275 -225 
L 5650 125 
L 6075 -375 
L 1175 -375 
Q 850 -375 575 -450 
L 350 -225 
L 3025 -225 
L 3025 375 
L 1725 375 
Q 1400 375 1125 300 
L 900 525 
L 3025 525 
L 3025 1075 
L 1700 1075 
L 1700 925 
L 1350 800 
Q 1375 1300 1375 1787 
Q 1375 2275 1350 2750 
L 1700 2550 
L 4600 2550 
L 4750 2750 
L 5125 2475 
L 4950 2325 
z
M 1775 4800 
L 1775 4375 
L 4550 4375 
L 4550 4800 
L 1775 4800 
z
M 1775 4225 
L 1775 3775 
L 4550 3775 
L 4550 4225 
L 1775 4225 
z
M 4875 4750 
Q 4875 3825 4900 3525 
L 4550 3375 
L 4550 3625 
L 1775 3625 
L 1775 3400 
L 1425 3250 
Q 1450 3650 1450 4262 
Q 1450 4875 1425 5125 
L 1800 4950 
L 4500 4950 
L 4650 5175 
L 5050 4900 
L 4875 4750 
z
M 250 3125 
L 5375 3125 
L 5725 3450 
L 6150 2975 
L 950 2975 
Q 750 2975 475 2900 
L 250 3125 
z
" transform="scale(0.015625)"/>
       <path id="TimesNewRomanPSMT-4d" d="M 2619 0 
L 981 3566 
L 981 734 
Q 981 344 1066 247 
Q 1181 116 1431 116 
L 1581 116 
L 1581 0 
L 106 0 
L 106 116 
L 256 116 
Q 525 116 638 278 
Q 706 378 706 734 
L 706 3503 
Q 706 3784 644 3909 
Q 600 4000 483 4061 
Q 366 4122 106 4122 
L 106 4238 
L 1306 4238 
L 2844 922 
L 4356 4238 
L 5556 4238 
L 5556 4122 
L 5409 4122 
Q 5138 4122 5025 3959 
Q 4956 3859 4956 3503 
L 4956 734 
Q 4956 344 5044 247 
Q 5159 116 5409 116 
L 5556 116 
L 5556 0 
L 3756 0 
L 3756 116 
L 3906 116 
Q 4178 116 4288 278 
Q 4356 378 4356 734 
L 4356 3566 
L 2722 0 
L 2619 0 
z
" transform="scale(0.015625)"/>
       <path id="TimesNewRomanPSMT-42" d="M 2956 2163 
Q 3397 2069 3616 1863 
Q 3919 1575 3919 1159 
Q 3919 844 3719 555 
Q 3519 266 3170 133 
Q 2822 0 2106 0 
L 106 0 
L 106 116 
L 266 116 
Q 531 116 647 284 
Q 719 394 719 750 
L 719 3488 
Q 719 3881 628 3984 
Q 506 4122 266 4122 
L 106 4122 
L 106 4238 
L 1938 4238 
Q 2450 4238 2759 4163 
Q 3228 4050 3475 3764 
Q 3722 3478 3722 3106 
Q 3722 2788 3528 2536 
Q 3334 2284 2956 2163 
z
M 1319 2331 
Q 1434 2309 1582 2298 
Q 1731 2288 1909 2288 
Q 2366 2288 2595 2386 
Q 2825 2484 2947 2687 
Q 3069 2891 3069 3131 
Q 3069 3503 2766 3765 
Q 2463 4028 1881 4028 
Q 1569 4028 1319 3959 
L 1319 2331 
z
M 1319 306 
Q 1681 222 2034 222 
Q 2600 222 2897 476 
Q 3194 731 3194 1106 
Q 3194 1353 3059 1581 
Q 2925 1809 2622 1940 
Q 2319 2072 1872 2072 
Q 1678 2072 1540 2065 
Q 1403 2059 1319 2044 
L 1319 306 
z
" transform="scale(0.015625)"/>
      </defs>
      <use xlink:href="#TimesNewRomanPSMT-54"/>
      <use xlink:href="#TimesNewRomanPSMT-28" x="61.083984"/>
      <use xlink:href="#TimesNewRomanPSMT-78" x="94.384766"/>
      <use xlink:href="#TimesNewRomanPSMT-29" x="144.384766"/>
      <use xlink:href="#SimSun-7edf" x="177.685547"/>
      <use xlink:href="#SimSun-8ba1" x="277.685547"/>
      <use xlink:href="#SimSun-91cf" x="377.685547"/>
      <use xlink:href="#TimesNewRomanPSMT-28" x="477.685547"/>
      <use xlink:href="#TimesNewRomanPSMT-4d" x="510.986328"/>
      <use xlink:href="#TimesNewRomanPSMT-42" x="599.902344"/>
      <use xlink:href="#TimesNewRomanPSMT-29" x="666.601562"/>
     </g>
    </g>
   </g>
   <g id="matplotlib.axis_2">
    <g id="ytick_1">
     <g id="line2d_6">
      <defs>
       <path id="mbca463dad4" d="M 0 0 
L -3.5 0 
" style="stroke: #000000; stroke-width: 0.8"/>
      </defs>
      <g>
       <use xlink:href="#mbca463dad4" x="57.6" y="295.533183" style="stroke: #000000; stroke-width: 0.8"/>
      </g>
     </g>
     <g id="text_7">
      <!-- 0.0 -->
      <g transform="translate(38.1 299.005058) scale(0.1 -0.1)">
       <defs>
        <path id="TimesNewRomanPSMT-2e" d="M 800 606 
Q 947 606 1047 504 
Q 1147 403 1147 259 
Q 1147 116 1045 14 
Q 944 -88 800 -88 
Q 656 -88 554 14 
Q 453 116 453 259 
Q 453 406 554 506 
Q 656 606 800 606 
z
" transform="scale(0.015625)"/>
       </defs>
       <use xlink:href="#TimesNewRomanPSMT-30"/>
       <use xlink:href="#TimesNewRomanPSMT-2e" x="50"/>
       <use xlink:href="#TimesNewRomanPSMT-30" x="75"/>
      </g>
     </g>
    </g>
    <g id="ytick_2">
     <g id="line2d_7">
      <g>
       <use xlink:href="#mbca463dad4" x="57.6" y="247.13111" style="stroke: #000000; stroke-width: 0.8"/>
      </g>
     </g>
     <g id="text_8">
      <!-- 0.2 -->
      <g transform="translate(38.1 250.602985) scale(0.1 -0.1)">
       <use xlink:href="#TimesNewRomanPSMT-30"/>
       <use xlink:href="#TimesNewRomanPSMT-2e" x="50"/>
       <use xlink:href="#TimesNewRomanPSMT-32" x="75"/>
      </g>
     </g>
    </g>
    <g id="ytick_3">
     <g id="line2d_8">
      <g>
       <use xlink:href="#mbca463dad4" x="57.6" y="198.729037" style="stroke: #000000; stroke-width: 0.8"/>
      </g>
     </g>
     <g id="text_9">
      <!-- 0.4 -->
      <g transform="translate(38.1 202.200912) scale(0.1 -0.1)">
       <use xlink:href="#TimesNewRomanPSMT-30"/>
       <use xlink:href="#TimesNewRomanPSMT-2e" x="50"/>
       <use xlink:href="#TimesNewRomanPSMT-34" x="75"/>
      </g>
     </g>
    </g>
    <g id="ytick_4">
     <g id="line2d_9">
      <g>
       <use xlink:href="#mbca463dad4" x="57.6" y="150.326963" style="stroke: #000000; stroke-width: 0.8"/>
      </g>
     </g>
     <g id="text_10">
      <!-- 0.6 -->
      <g transform="translate(38.1 153.798838) scale(0.1 -0.1)">
       <use xlink:href="#TimesNewRomanPSMT-30"/>
       <use xlink:href="#TimesNewRomanPSMT-2e" x="50"/>
       <use xlink:href="#TimesNewRomanPSMT-36" x="75"/>
      </g>
     </g>
    </g>
    <g id="ytick_5">
     <g id="line2d_10">
      <g>
       <use xlink:href="#mbca463dad4" x="57.6" y="101.92489" style="stroke: #000000; stroke-width: 0.8"/>
      </g>
     </g>
     <g id="text_11">
      <!-- 0.8 -->
      <g transform="translate(38.1 105.396765) scale(0.1 -0.1)">
       <use xlink:href="#TimesNewRomanPSMT-30"/>
       <use xlink:href="#TimesNewRomanPSMT-2e" x="50"/>
       <use xlink:href="#TimesNewRomanPSMT-38" x="75"/>
      </g>
     </g>
    </g>
    <g id="ytick_6">
     <g id="line2d_11">
      <g>
       <use xlink:href="#mbca463dad4" x="57.6" y="53.522817" style="stroke: #000000; stroke-width: 0.8"/>
      </g>
     </g>
     <g id="text_12">
      <!-- 1.0 -->
      <g transform="translate(38.1 56.994692) scale(0.1 -0.1)">
       <defs>
        <path id="TimesNewRomanPSMT-31" d="M 750 3822 
L 1781 4325 
L 1884 4325 
L 1884 747 
Q 1884 391 1914 303 
Q 1944 216 2037 169 
Q 2131 122 2419 116 
L 2419 0 
L 825 0 
L 825 116 
Q 1125 122 1212 167 
Q 1300 213 1334 289 
Q 1369 366 1369 747 
L 1369 3034 
Q 1369 3497 1338 3628 
Q 1316 3728 1258 3775 
Q 1200 3822 1119 3822 
Q 1003 3822 797 3725 
L 750 3822 
z
" transform="scale(0.015625)"/>
       </defs>
       <use xlink:href="#TimesNewRomanPSMT-31"/>
       <use xlink:href="#TimesNewRomanPSMT-2e" x="50"/>
       <use xlink:href="#TimesNewRomanPSMT-30" x="75"/>
      </g>
     </g>
    </g>
    <g id="text_13">
     <!-- 累计概率 -->
     <g transform="translate(31.960938 194.528) rotate(-90) scale(0.1 -0.1)">
      <defs>
       <path id="SimSun-7d2f" d="M 1675 4725 
L 1675 4100 
L 3125 4100 
L 3125 4725 
L 1675 4725 
z
M 3450 4725 
L 3450 4100 
L 4925 4100 
L 4925 4725 
L 3450 4725 
z
M 1675 3950 
L 1675 3375 
L 3125 3375 
L 3125 3950 
L 1675 3950 
z
M 3450 3950 
L 3450 3375 
L 4925 3375 
L 4925 3950 
L 3450 3950 
z
M 5250 4625 
Q 5250 4275 5250 3875 
Q 5250 3475 5275 3075 
L 4925 2950 
L 4925 3225 
L 1675 3225 
L 1675 3000 
L 1325 2875 
Q 1350 3500 1350 4125 
Q 1350 4750 1325 5075 
L 1675 4875 
L 4900 4875 
L 5075 5075 
L 5425 4775 
L 5250 4625 
z
M 3525 2875 
Q 3225 2850 2875 2700 
Q 2525 2550 1825 2275 
L 3550 2300 
Q 3925 2550 4175 2800 
L 4500 2400 
Q 4275 2400 3675 2100 
Q 3050 1775 1875 1300 
L 4775 1475 
Q 4550 1725 4300 1975 
L 4375 2025 
Q 5100 1675 5262 1487 
Q 5425 1300 5412 1150 
Q 5400 1000 5337 900 
Q 5275 800 5250 800 
Q 5200 800 5125 950 
Q 5000 1150 4875 1350 
L 3550 1225 
L 3550 100 
Q 3575 -425 3000 -525 
Q 3000 -175 2200 0 
L 2200 100 
Q 2900 25 3062 37 
Q 3225 50 3225 325 
L 3225 1200 
Q 2750 1150 2250 1075 
Q 1750 1000 1450 825 
L 1175 1350 
Q 1550 1400 2000 1562 
Q 2450 1725 3375 2175 
Q 2300 2075 2000 2037 
Q 1700 2000 1550 1900 
L 1325 2350 
Q 1625 2350 2200 2612 
Q 2775 2875 3150 3250 
L 3525 2875 
z
M 2625 500 
Q 2325 450 1850 175 
Q 1375 -125 550 -450 
L 500 -375 
Q 1125 -50 1562 300 
Q 2000 650 2225 950 
L 2625 500 
z
M 4075 900 
Q 5000 575 5312 387 
Q 5625 200 5650 12 
Q 5675 -175 5612 -287 
Q 5550 -400 5525 -400 
Q 5425 -400 5250 -150 
Q 4975 250 4025 825 
L 4075 900 
z
" transform="scale(0.015625)"/>
       <path id="SimSun-6982" d="M 2700 4500 
L 2700 3450 
L 3375 3450 
L 3375 4500 
L 2700 4500 
z
M 2700 3300 
L 2700 2300 
L 3375 2300 
L 3375 3300 
L 2700 3300 
z
M 2700 725 
L 3425 1200 
Q 3350 1375 3025 1775 
L 3050 1850 
Q 3550 1525 3712 1337 
Q 3875 1150 3875 1000 
Q 3875 875 3800 750 
Q 3725 625 3700 625 
Q 3650 625 3625 725 
Q 3550 900 3475 1100 
Q 2900 600 2575 150 
L 2325 475 
Q 2400 625 2400 950 
L 2400 3475 
Q 2400 3975 2375 4825 
L 2700 4650 
L 3350 4650 
L 3550 4850 
L 3875 4525 
L 3650 4400 
Q 3650 2825 3675 2150 
L 3375 1975 
L 3375 2150 
L 2700 2150 
L 2700 725 
z
M 5025 2400 
L 4950 2075 
L 5350 1850 
L 5175 1675 
L 5175 100 
Q 5175 -125 5350 -125 
L 5525 -125 
Q 5750 -125 5762 162 
Q 5775 450 5775 825 
L 5900 825 
Q 5900 450 5962 225 
Q 6025 0 6150 -75 
Q 6075 -250 5950 -325 
Q 5825 -400 5625 -400 
L 5225 -400 
Q 4875 -400 4875 0 
L 4875 1825 
Q 4350 75 2650 -650 
L 2625 -575 
Q 4275 350 4700 2400 
L 4225 2400 
L 4050 2250 
L 3775 2550 
Q 3925 2625 4012 2975 
Q 4100 3325 4225 4075 
L 4600 3850 
Q 4475 3800 4425 3575 
Q 4375 3325 4200 2550 
L 4725 2550 
Q 4800 3100 4850 4500 
L 4425 4500 
L 4200 4450 
L 4000 4650 
L 5400 4650 
L 5650 4900 
L 6050 4500 
L 5175 4500 
Q 5100 3100 5050 2550 
L 5400 2550 
L 5675 2825 
L 6100 2400 
L 5025 2400 
z
M 1550 775 
Q 1550 425 1575 -450 
L 1225 -625 
Q 1250 850 1250 2400 
Q 925 1525 300 750 
L 250 825 
Q 575 1400 825 2062 
Q 1075 2725 1225 3575 
L 775 3575 
L 550 3525 
L 350 3725 
L 1250 3725 
Q 1250 4400 1225 5275 
L 1750 5000 
L 1550 4850 
L 1550 3725 
L 1675 3725 
L 1925 3975 
L 2325 3575 
L 1550 3575 
L 1550 3000 
Q 2025 2800 2175 2650 
Q 2325 2500 2325 2350 
Q 2325 2250 2262 2100 
Q 2200 1950 2175 1950 
Q 2100 1950 2000 2200 
Q 1850 2550 1550 2850 
L 1550 775 
z
" transform="scale(0.015625)"/>
       <path id="SimSun-7387" d="M 875 3725 
L 925 3800 
Q 1375 3650 1550 3525 
Q 1725 3400 1725 3250 
Q 1725 3175 1662 3025 
Q 1600 2875 1550 2875 
Q 1500 2875 1425 3050 
Q 1275 3325 875 3725 
z
M 550 1850 
Q 875 1925 2000 2575 
L 2050 2500 
Q 1675 2225 1337 1937 
Q 1000 1650 875 1425 
L 550 1850 
z
M 5200 3450 
Q 4800 3150 4275 2800 
L 4225 2875 
Q 4775 3400 5050 3925 
L 5450 3525 
L 5200 3450 
z
M 4325 2500 
L 4350 2575 
Q 5225 2350 5375 2212 
Q 5525 2075 5525 1900 
Q 5525 1775 5487 1662 
Q 5450 1550 5400 1550 
Q 5325 1550 5200 1800 
Q 4975 2150 4325 2500 
z
M 3150 3900 
Q 2500 3300 2300 3150 
Q 2800 3150 3400 3175 
Q 3700 3500 3850 3825 
L 4250 3450 
Q 4050 3400 3450 2825 
Q 2850 2250 2475 1950 
Q 3150 1975 3850 2000 
Q 3750 2175 3550 2450 
L 3600 2500 
Q 4050 2250 4200 2100 
Q 4350 1950 4350 1850 
Q 4350 1775 4250 1625 
Q 4150 1475 4100 1475 
Q 4075 1475 4050 1550 
Q 4000 1700 3900 1900 
Q 3650 1875 3075 1800 
L 3500 1550 
L 3325 1425 
L 3325 975 
L 5325 975 
L 5650 1300 
L 6100 825 
L 3325 825 
Q 3325 -275 3350 -525 
L 2975 -650 
Q 3000 0 3000 825 
L 1125 825 
Q 800 825 525 750 
L 300 975 
L 3000 975 
L 3000 1775 
Q 2450 1700 2200 1525 
L 1950 1950 
Q 2275 1950 2675 2350 
Q 3075 2750 3325 3050 
Q 2400 2950 2150 2775 
L 1950 3175 
Q 2150 3150 2475 3575 
Q 2800 4000 2900 4225 
L 1450 4225 
Q 1125 4225 850 4150 
L 625 4375 
L 3100 4375 
Q 3050 4800 2675 5200 
L 2725 5250 
Q 3225 5050 3337 4912 
Q 3450 4775 3450 4700 
Q 3450 4550 3250 4375 
L 5025 4375 
L 5350 4675 
L 5775 4225 
L 3050 4225 
L 3375 3950 
L 3150 3900 
z
" transform="scale(0.015625)"/>
      </defs>
      <use xlink:href="#SimSun-7d2f"/>
      <use xlink:href="#SimSun-8ba1" x="100"/>
      <use xlink:href="#SimSun-6982" x="200"/>
      <use xlink:href="#SimSun-7387" x="300"/>
     </g>
    </g>
   </g>
   <g id="line2d_12">
    <path d="M 73.832727 292.253371 
L 81.632236 291.250305 
L 88.781785 290.111567 
L 95.606355 288.79619 
L 101.780966 287.386626 
L 107.630598 285.835629 
L 113.480229 284.052833 
L 119.004881 282.136687 
L 124.529533 279.976427 
L 129.729206 277.704678 
L 134.928878 275.187637 
L 140.12855 272.412756 
L 145.003243 269.567215 
L 149.877936 266.477473 
L 154.752629 263.137312 
L 159.627322 259.542299 
L 164.826994 255.424 
L 170.026667 251.012736 
L 175.226339 246.311277 
L 180.750991 241.004717 
L 186.275643 235.388508 
L 192.125274 229.121662 
L 198.299885 222.174909 
L 204.799476 214.531128 
L 212.274005 205.380371 
L 220.723473 194.670256 
L 232.097756 179.86492 
L 253.546405 151.885971 
L 262.320852 140.854117 
L 269.795381 131.813568 
L 276.294971 124.284066 
L 282.469582 117.459426 
L 288.319214 111.318329 
L 293.843866 105.827994 
L 299.368518 100.652434 
L 304.56819 96.077394 
L 309.767862 91.794143 
L 314.967535 87.804109 
L 320.167207 84.105792 
L 325.36688 80.694992 
L 330.566552 77.565075 
L 335.766224 74.707261 
L 340.965897 72.110933 
L 346.165569 69.763952 
L 351.365242 67.652972 
L 356.889894 65.652698 
L 362.414545 63.88494 
L 368.264177 62.246381 
L 374.438788 60.753466 
L 380.938378 59.417459 
L 387.762948 58.244164 
L 395.237477 57.192829 
L 398.487273 56.802629 
L 398.487273 56.802629 
" clip-path="url(#p52f0f8a24f)" style="fill: none; stroke: #00ffff; stroke-width: 0.6; stroke-linecap: square"/>
   </g>
   <g id="line2d_13">
    <path d="M 73.832727 293.943736 
L 82.607174 293.237097 
L 90.406683 292.39227 
L 97.556233 291.393969 
L 104.055823 290.262467 
L 110.230434 288.955759 
L 115.755086 287.567373 
L 121.279738 285.945919 
L 126.47941 284.183934 
L 131.354103 282.304747 
L 136.228796 280.187662 
L 141.103489 277.815749 
L 145.653202 275.357935 
L 150.202916 272.652255 
L 154.752629 269.688063 
L 159.302342 266.456307 
L 163.852056 262.949811 
L 168.401769 259.163552 
L 172.951482 255.094908 
L 177.826175 250.422346 
L 182.700868 245.429265 
L 187.575561 240.123175 
L 192.775233 234.131438 
L 198.299885 227.410967 
L 204.149517 219.929616 
L 210.324128 211.671231 
L 217.473677 201.722057 
L 225.923145 189.566923 
L 240.872203 167.583087 
L 252.571466 150.570936 
L 260.370975 139.612666 
L 267.195545 130.407014 
L 273.370156 122.458405 
L 278.894808 115.696746 
L 284.09448 109.66338 
L 289.294152 103.970843 
L 294.168845 98.956616 
L 299.043538 94.262532 
L 303.918231 89.892448 
L 308.467944 86.106189 
L 313.017658 82.599693 
L 317.567371 79.367937 
L 322.117084 76.403745 
L 326.666798 73.698065 
L 331.216511 71.240251 
L 336.091204 68.868338 
L 340.965897 66.751253 
L 345.84059 64.872066 
L 351.040262 63.110081 
L 356.239934 61.577306 
L 361.764586 60.175912 
L 367.614218 58.919856 
L 373.788829 57.817229 
L 380.613399 56.827991 
L 388.087928 55.976363 
L 396.537396 55.250073 
L 398.487273 55.112264 
L 398.487273 55.112264 
" clip-path="url(#p52f0f8a24f)" style="fill: none; stroke: #0000ff; stroke-width: 0.6; stroke-linecap: square"/>
   </g>
   <g id="line2d_14">
    <path d="M 73.832727 294.719401 
L 83.907093 294.199297 
L 92.35656 293.554101 
L 99.831089 292.769392 
L 106.655659 291.829674 
L 112.83027 290.754946 
L 118.354922 289.579373 
L 123.554595 288.260078 
L 128.754267 286.707055 
L 133.62896 285.014208 
L 138.178673 283.206497 
L 142.728387 281.159728 
L 147.2781 278.855616 
L 151.502834 276.470392 
L 155.727568 273.835228 
L 159.952301 270.938375 
L 164.177035 267.769644 
L 168.401769 264.320712 
L 172.626503 260.585425 
L 176.851237 256.560074 
L 181.075971 252.243655 
L 185.625684 247.271952 
L 190.175397 241.971355 
L 195.05009 235.939465 
L 199.924783 229.561243 
L 205.124455 222.403912 
L 210.974087 213.960652 
L 217.473677 204.167505 
L 225.273186 191.980649 
L 236.972449 173.218428 
L 250.296609 151.950558 
L 257.771138 140.433635 
L 264.270729 130.825354 
L 270.12036 122.58307 
L 275.320033 115.627514 
L 280.194726 109.454505 
L 285.069419 103.639827 
L 289.619132 98.549704 
L 294.168845 93.793083 
L 298.718559 89.373676 
L 302.943292 85.571685 
L 307.168026 82.057132 
L 311.39276 78.824404 
L 315.617494 75.865651 
L 319.842228 73.171089 
L 324.066962 70.729299 
L 328.616675 68.367736 
L 333.166388 66.267339 
L 337.716102 64.409969 
L 342.590794 62.668395 
L 347.465487 61.161197 
L 352.66516 59.786023 
L 358.189812 58.558282 
L 364.039443 57.486805 
L 370.539034 56.531238 
L 377.688583 55.716906 
L 385.488092 55.055035 
L 394.587518 54.511185 
L 398.487273 54.336599 
L 398.487273 54.336599 
" clip-path="url(#p52f0f8a24f)" style="fill: none; stroke: #8a2be2; stroke-width: 0.6; stroke-linecap: square"/>
   </g>
   <g id="line2d_15">
    <path d="M 73.832727 295.099574 
L 85.85697 294.686359 
L 95.281376 294.14438 
L 103.080885 293.482612 
L 109.905455 292.691138 
L 116.080066 291.758901 
L 121.604717 290.713412 
L 126.80439 289.514439 
L 131.679083 288.172437 
L 136.228796 286.704868 
L 140.778509 285.006091 
L 145.003243 283.201201 
L 149.227977 281.158176 
L 153.452711 278.858842 
L 157.352465 276.493875 
L 161.252219 273.883036 
L 165.151974 271.014834 
L 169.051728 267.879285 
L 172.951482 264.468205 
L 176.851237 260.7755 
L 181.075971 256.452996 
L 185.300704 251.794353 
L 189.525438 246.802187 
L 194.075152 241.060865 
L 198.624865 234.954678 
L 203.499558 228.030205 
L 208.69923 220.243858 
L 214.223882 211.571048 
L 220.723473 200.932042 
L 228.522981 187.717002 
L 254.521343 143.285205 
L 260.695954 133.356264 
L 266.220606 124.87 
L 271.420278 117.285242 
L 276.294971 110.568422 
L 280.844685 104.668668 
L 285.394398 99.142516 
L 289.619132 94.355064 
L 293.843866 89.903221 
L 298.0686 85.787169 
L 301.968354 82.28278 
L 305.868108 79.0562 
L 309.767862 76.099909 
L 313.667617 73.40449 
L 317.892351 70.766025 
L 322.117084 68.405042 
L 326.341818 66.304458 
L 330.566552 64.446257 
L 335.116265 62.694898 
L 339.665979 61.179742 
L 344.540672 59.792178 
L 349.740344 58.550544 
L 355.264996 57.466036 
L 361.114627 56.542535 
L 367.614218 55.741831 
L 375.088747 55.056285 
L 383.538215 54.512937 
L 393.61258 54.094555 
L 398.487273 53.956426 
L 398.487273 53.956426 
" clip-path="url(#p52f0f8a24f)" style="fill: none; stroke: #7fff00; stroke-width: 0.6; stroke-linecap: square"/>
   </g>
   <g id="line2d_16">
    <path d="M 73.832727 295.294906 
L 87.481867 294.978008 
L 97.556233 294.537491 
L 106.0057 293.949858 
L 113.15525 293.231697 
L 119.329861 292.396841 
L 124.854513 291.439577 
L 130.054185 290.320583 
L 134.928878 289.04677 
L 139.478591 287.632927 
L 143.703325 286.101318 
L 147.928059 284.336188 
L 151.827813 282.480148 
L 155.727568 280.388538 
L 159.627322 278.044448 
L 163.527076 275.431878 
L 167.42683 272.536121 
L 171.326585 269.344168 
L 175.226339 265.845109 
L 179.126093 262.030533 
L 183.025848 257.894903 
L 186.925602 253.435904 
L 190.825356 248.654742 
L 195.05009 243.117462 
L 199.274824 237.21954 
L 203.824537 230.484363 
L 208.69923 222.858713 
L 213.898903 214.307159 
L 219.748534 204.251422 
L 226.898084 191.488562 
L 238.272367 170.64074 
L 249.321671 150.5527 
L 256.146241 138.609818 
L 261.995872 128.82606 
L 267.195545 120.565319 
L 272.070238 113.247041 
L 276.619951 106.822801 
L 280.844685 101.229147 
L 285.069419 96.006265 
L 288.969173 91.520322 
L 292.868927 87.357786 
L 296.768681 83.516625 
L 300.668436 79.991557 
L 304.56819 76.774396 
L 308.467944 73.854427 
L 312.367699 71.218799 
L 316.267453 68.852932 
L 320.167207 66.740918 
L 324.066962 64.865908 
L 328.291695 63.081884 
L 332.516429 61.533108 
L 337.066143 60.102679 
L 341.940835 58.813207 
L 347.140508 57.679785 
L 352.66516 56.709566 
L 358.839771 55.862829 
L 365.664341 55.162047 
L 373.463849 54.593812 
L 382.563276 54.158157 
L 394.262539 53.834493 
L 398.487273 53.761094 
L 398.487273 53.761094 
" clip-path="url(#p52f0f8a24f)" style="fill: none; stroke: #d2691e; stroke-width: 0.6; stroke-linecap: square"/>
   </g>
   <g id="line2d_17">
    <path d="M 73.832727 295.39895 
L 89.756724 295.137699 
L 100.806028 294.741612 
L 109.255495 294.228059 
L 116.405045 293.5812 
L 122.579656 292.810988 
L 128.104308 291.910311 
L 133.30398 290.839556 
L 138.178673 289.602479 
L 142.728387 288.211534 
L 146.95312 286.687686 
L 150.852875 285.059584 
L 154.752629 283.197636 
L 158.652383 281.081279 
L 162.227158 278.900655 
L 165.801933 276.474663 
L 169.376708 273.789573 
L 172.951482 270.832994 
L 176.526257 267.594219 
L 180.101032 264.064558 
L 183.675807 260.237666 
L 187.575561 255.719622 
L 191.475315 250.842701 
L 195.37507 245.610597 
L 199.599803 239.551607 
L 203.824537 233.103099 
L 208.374251 225.750841 
L 213.248943 217.447827 
L 218.773595 207.578897 
L 225.273186 195.477926 
L 234.047633 178.624117 
L 248.671712 150.512267 
L 255.171302 138.529192 
L 260.695954 128.794868 
L 265.570647 120.632987 
L 270.12036 113.427999 
L 274.345094 107.126818 
L 278.569828 101.222627 
L 282.469582 96.137766 
L 286.369337 91.410194 
L 290.269091 87.04169 
L 294.168845 83.029673 
L 297.74362 79.65962 
L 301.318395 76.575984 
L 304.89317 73.768933 
L 308.467944 71.226798 
L 312.042719 68.936418 
L 315.942473 66.708095 
L 319.842228 64.742622 
L 323.741982 63.019598 
L 327.966716 61.402616 
L 332.19145 60.019822 
L 336.741163 58.763411 
L 341.615856 57.651481 
L 346.815528 56.694105 
L 352.66516 55.852258 
L 359.16475 55.152193 
L 366.639279 54.582498 
L 375.413726 54.145667 
L 386.46303 53.829038 
L 398.487273 53.65705 
L 398.487273 53.65705 
" clip-path="url(#p52f0f8a24f)" style="fill: none; stroke: #dc143c; stroke-width: 0.6; stroke-linecap: square"/>
   </g>
   <g id="line2d_18">
    <path d="M 73.832727 295.455985 
L 92.031581 295.239291 
L 103.730844 294.88738 
L 112.505291 294.409611 
L 119.65484 293.809146 
L 125.829451 293.078771 
L 131.354103 292.209714 
L 136.553776 291.161145 
L 141.103489 290.023968 
L 145.328223 288.754146 
L 149.552957 287.249442 
L 153.452711 285.626573 
L 157.352465 283.754846 
L 160.92724 281.800245 
L 164.502015 279.59871 
L 168.07679 277.133022 
L 171.651564 274.387054 
L 175.226339 271.346185 
L 178.801114 267.997726 
L 182.375889 264.331348 
L 185.950663 260.339496 
L 189.525438 256.017776 
L 193.100213 251.365304 
L 196.999967 245.916197 
L 200.899722 240.086293 
L 205.124455 233.358624 
L 209.674169 225.665198 
L 214.548862 216.956335 
L 219.748534 207.211049 
L 225.923145 195.160641 
L 234.697592 177.497852 
L 248.021753 150.683119 
L 254.521343 138.141001 
L 259.721016 128.562188 
L 264.595708 120.039208 
L 269.145422 112.540542 
L 273.370156 106.007965 
L 277.26991 100.366933 
L 281.169664 95.112066 
L 285.069419 90.249747 
L 288.644193 86.138274 
L 292.218968 82.354257 
L 295.793743 78.891249 
L 299.368518 75.739882 
L 302.943292 72.888277 
L 306.518067 70.322465 
L 310.092842 68.026818 
L 313.667617 65.984467 
L 317.567371 64.024512 
L 321.467125 62.321329 
L 325.36688 60.851203 
L 329.591613 59.49446 
L 334.141327 58.275612 
L 339.01602 57.21086 
L 344.215692 56.307614 
L 350.065324 55.527038 
L 356.564914 54.891279 
L 364.039443 54.386793 
L 373.13887 54.00148 
L 385.163112 53.731032 
L 398.487273 53.600015 
L 398.487273 53.600015 
" clip-path="url(#p52f0f8a24f)" style="fill: none; stroke: #006400; stroke-width: 0.6; stroke-linecap: square"/>
   </g>
   <g id="line2d_19">
    <path d="M 73.832727 295.488 
L 94.631417 295.300823 
L 106.655659 294.985104 
L 115.430106 294.548738 
L 122.579656 293.986007 
L 128.754267 293.287776 
L 134.278919 292.443438 
L 139.153612 291.48288 
L 143.703325 290.366408 
L 147.928059 289.106792 
L 151.827813 287.725695 
L 155.727568 286.108325 
L 159.302342 284.395432 
L 162.877117 282.440944 
L 166.451892 280.224428 
L 170.026667 277.726136 
L 173.276462 275.19477 
L 176.526257 272.40235 
L 179.776052 269.337539 
L 183.025848 265.990787 
L 186.600622 261.974899 
L 190.175397 257.60238 
L 193.750172 252.870688 
L 197.324947 247.781646 
L 201.224701 241.830174 
L 205.124455 235.476335 
L 209.349189 228.164812 
L 213.898903 219.835138 
L 218.773595 210.451721 
L 224.623227 198.685858 
L 232.097756 183.1137 
L 248.996691 147.715597 
L 254.846323 136.060114 
L 260.045995 126.195028 
L 264.595708 118.028447 
L 268.820442 110.884593 
L 272.720197 104.696122 
L 276.619951 98.917157 
L 280.194726 93.990028 
L 283.7695 89.421641 
L 287.344275 85.211792 
L 290.91905 81.356076 
L 294.493825 77.846309 
L 298.0686 74.670999 
L 301.643374 71.815849 
L 305.218149 69.264285 
L 308.792924 66.997979 
L 312.367699 64.997355 
L 315.942473 63.242072 
L 319.842228 61.582746 
L 323.741982 60.164096 
L 327.966716 58.868592 
L 332.516429 57.718742 
L 337.391122 56.728015 
L 342.590794 55.900622 
L 348.440426 55.198508 
L 355.264996 54.615949 
L 363.389484 54.162856 
L 373.463849 53.839261 
L 387.437969 53.633312 
L 398.487273 53.568 
L 398.487273 53.568 
" clip-path="url(#p52f0f8a24f)" style="fill: none; stroke: #bdb76b; stroke-width: 0.6; stroke-linecap: square"/>
   </g>
   <g id="patch_3">
    <path d="M 57.6 307.584 
L 57.6 41.472 
" style="fill: none; stroke: #000000; stroke-width: 0.8; stroke-linejoin: miter; stroke-linecap: square"/>
   </g>
   <g id="patch_4">
    <path d="M 414.72 307.584 
L 414.72 41.472 
" style="fill: none; stroke: #000000; stroke-width: 0.8; stroke-linejoin: miter; stroke-linecap: square"/>
   </g>
   <g id="patch_5">
    <path d="M 57.6 307.584 
L 414.72 307.584 
" style="fill: none; stroke: #000000; stroke-width: 0.8; stroke-linejoin: miter; stroke-linecap: square"/>
   </g>
   <g id="patch_6">
    <path d="M 57.6 41.472 
L 414.72 41.472 
" style="fill: none; stroke: #000000; stroke-width: 0.8; stroke-linejoin: miter; stroke-linecap: square"/>
   </g>
   <g id="text_14">
    <!-- α(t)累积分布函数(X~N(30,100)) -->
    <g transform="translate(154.95 35.472) scale(0.12 -0.12)">
     <defs>
      <path id="TimesNewRomanPSMT-3b1" d="M 2463 2863 
L 2994 2863 
L 2672 1416 
Q 2578 1003 2544 909 
Q 2669 334 2906 334 
Q 3188 334 3197 722 
L 3309 722 
Q 3300 359 3176 135 
Q 3053 -88 2853 -88 
Q 2688 -88 2606 46 
Q 2525 181 2431 597 
Q 2106 -88 1369 -88 
Q 866 -88 569 304 
Q 272 697 272 1428 
Q 272 2147 597 2547 
Q 922 2947 1378 2947 
Q 1700 2947 1906 2719 
Q 2113 2491 2272 1975 
L 2463 2863 
z
M 2188 1638 
Q 2041 2141 1859 2423 
Q 1678 2706 1425 2706 
Q 853 2706 853 1369 
Q 853 100 1400 100 
Q 1875 100 2103 1219 
L 2188 1638 
z
" transform="scale(0.015625)"/>
      <path id="TimesNewRomanPSMT-74" d="M 1031 3803 
L 1031 2863 
L 1700 2863 
L 1700 2644 
L 1031 2644 
L 1031 788 
Q 1031 509 1111 412 
Q 1191 316 1316 316 
Q 1419 316 1516 380 
Q 1613 444 1666 569 
L 1788 569 
Q 1678 263 1478 108 
Q 1278 -47 1066 -47 
Q 922 -47 784 33 
Q 647 113 581 261 
Q 516 409 516 719 
L 516 2644 
L 63 2644 
L 63 2747 
Q 234 2816 414 2980 
Q 594 3144 734 3369 
Q 806 3488 934 3803 
L 1031 3803 
z
" transform="scale(0.015625)"/>
      <path id="SimSun-79ef" d="M 3125 1750 
Q 3150 2475 3150 3225 
Q 3150 3975 3125 4725 
L 3500 4525 
L 5225 4525 
L 5475 4775 
L 5850 4400 
L 5600 4250 
Q 5600 2300 5625 1975 
L 5275 1850 
L 5275 2175 
L 3475 2175 
L 3475 1875 
L 3125 1750 
z
M 3475 4375 
L 3475 2325 
L 5275 2325 
L 5275 4375 
L 3475 4375 
z
M 3825 1700 
L 4300 1300 
L 4075 1225 
Q 3125 -75 2200 -550 
L 2175 -450 
Q 2800 50 3225 625 
Q 3650 1200 3825 1700 
z
M 4700 1600 
Q 5725 650 5850 362 
Q 5975 75 5975 -75 
Q 5975 -225 5900 -337 
Q 5825 -450 5775 -450 
Q 5725 -450 5650 -250 
Q 5525 75 5350 450 
Q 5175 825 4650 1525 
L 4700 1600 
z
M 1875 2575 
Q 1875 225 1900 -400 
L 1525 -625 
Q 1550 125 1550 2350 
Q 1025 1275 300 625 
L 250 700 
Q 625 1200 962 1862 
Q 1300 2525 1500 3200 
L 1125 3200 
Q 800 3200 525 3125 
L 300 3350 
L 1550 3350 
L 1550 4475 
Q 900 4375 525 4350 
L 525 4450 
Q 1075 4550 1525 4712 
Q 1975 4875 2375 5150 
L 2725 4700 
Q 2425 4700 1875 4550 
L 1875 3350 
L 2250 3350 
L 2550 3650 
L 2975 3200 
L 1875 3200 
L 1875 2675 
Q 2475 2400 2612 2212 
Q 2750 2025 2750 1925 
Q 2750 1800 2662 1675 
Q 2575 1550 2550 1550 
Q 2450 1550 2375 1800 
Q 2250 2175 1875 2575 
z
" transform="scale(0.015625)"/>
      <path id="SimSun-5206" d="M 2350 5050 
L 2850 4675 
L 2625 4550 
Q 2200 3750 1687 3125 
Q 1175 2500 375 2025 
L 325 2100 
Q 975 2625 1475 3337 
Q 1975 4050 2350 5050 
z
M 4100 4975 
L 3900 4850 
Q 4175 3850 4800 3300 
Q 5425 2750 6125 2625 
L 6125 2550 
Q 5750 2500 5600 2225 
Q 4775 2675 4287 3425 
Q 3800 4175 3625 5175 
L 4100 4975 
z
M 1375 2625 
L 4225 2625 
L 4475 2875 
L 4825 2525 
L 4625 2375 
Q 4575 400 4375 -12 
Q 4175 -425 3675 -600 
Q 3600 -200 2975 -25 
L 2975 75 
Q 3600 -25 3787 -12 
Q 3975 0 4075 275 
Q 4175 550 4275 2475 
L 2975 2475 
Q 2825 1400 2375 662 
Q 1925 -75 650 -625 
L 600 -525 
Q 1725 50 2112 837 
Q 2500 1625 2575 2475 
L 1800 2475 
L 1575 2425 
L 1375 2625 
z
" transform="scale(0.015625)"/>
      <path id="SimSun-5e03" d="M 3425 2725 
Q 3425 3225 3400 3625 
L 3975 3375 
L 3775 3200 
L 3775 2725 
L 4950 2725 
L 5150 2975 
L 5575 2650 
L 5350 2500 
L 5350 500 
Q 5300 100 4800 -50 
Q 4800 225 4175 475 
L 4175 575 
Q 4625 500 4812 500 
Q 5000 500 5000 700 
L 5000 2575 
L 3775 2575 
L 3775 550 
Q 3775 -25 3800 -500 
L 3400 -675 
Q 3425 250 3425 1025 
L 3425 2575 
L 2275 2575 
L 2275 125 
L 1900 -25 
Q 1925 775 1925 2525 
Q 1225 1650 300 1025 
L 250 1100 
Q 1300 2050 1762 2800 
Q 2225 3550 2375 3875 
L 825 3875 
L 600 3825 
L 400 4025 
L 2425 4025 
Q 2750 4725 2850 5225 
L 3450 4850 
L 3200 4725 
L 2825 4025 
L 5175 4025 
L 5550 4400 
L 6075 3875 
L 2775 3875 
Q 2500 3350 2175 2850 
L 2250 2725 
L 3425 2725 
z
" transform="scale(0.015625)"/>
      <path id="SimSun-51fd" d="M 3050 2275 
L 3050 3000 
Q 3050 3450 3025 3800 
L 3275 3625 
L 4450 4475 
L 1650 4475 
Q 1325 4475 1050 4400 
L 825 4625 
L 4450 4625 
L 4775 4875 
L 5150 4375 
Q 4875 4325 4550 4175 
Q 4225 4025 3400 3550 
L 3550 3450 
L 3375 3325 
L 3375 2400 
Q 4250 3225 4475 3600 
L 4875 3150 
L 4625 3125 
Q 3625 2425 3400 2275 
Q 4575 1675 4687 1487 
Q 4800 1300 4800 1150 
Q 4800 1025 4750 925 
Q 4700 825 4675 825 
Q 4575 825 4375 1150 
Q 4075 1600 3375 2150 
L 3375 725 
Q 3375 350 2875 150 
Q 2850 450 2200 650 
L 2200 750 
Q 2800 675 2925 700 
Q 3050 725 3050 850 
L 3050 2100 
Q 1850 1300 1625 1025 
L 1275 1400 
Q 1575 1475 2087 1725 
Q 2600 1975 3050 2275 
z
M 1700 3475 
L 1775 3550 
Q 2350 3200 2475 3025 
Q 2600 2850 2600 2775 
Q 2600 2650 2500 2525 
Q 2400 2400 2350 2400 
Q 2275 2400 2225 2575 
Q 2150 2875 1700 3475 
z
M 5150 0 
L 5150 2175 
Q 5150 2725 5125 3325 
L 5725 3050 
L 5500 2850 
L 5500 525 
Q 5500 100 5525 -400 
L 5150 -600 
L 5150 -150 
L 1250 -150 
L 1000 -375 
L 675 -50 
L 875 125 
L 875 2375 
Q 875 2800 850 3425 
L 1450 3150 
L 1225 2975 
L 1225 0 
L 5150 0 
z
" transform="scale(0.015625)"/>
      <path id="SimSun-6570" d="M 1875 1525 
Q 1675 1200 1500 900 
Q 1825 825 2275 725 
Q 2500 975 2725 1525 
L 1875 1525 
z
M 850 4900 
Q 1325 4600 1425 4450 
Q 1525 4300 1525 4225 
Q 1525 4100 1437 3975 
Q 1350 3850 1300 3850 
Q 1225 3850 1150 4100 
Q 1050 4450 775 4850 
L 850 4900 
z
M 3000 4975 
L 3450 4675 
Q 3250 4625 3100 4425 
Q 2925 4225 2525 3825 
L 2450 3875 
Q 2925 4625 3000 4975 
z
M 1875 5250 
L 2425 5000 
L 2225 4825 
L 2225 3675 
L 2850 3675 
L 3125 3950 
L 3550 3525 
L 2225 3525 
L 2225 3300 
Q 2800 3175 2937 3062 
Q 3075 2950 3075 2775 
Q 3075 2700 3050 2587 
Q 3025 2475 2975 2475 
Q 2925 2475 2800 2650 
Q 2600 2925 2225 3175 
L 2225 2400 
L 1925 2200 
L 2275 2050 
Q 2150 2000 1950 1675 
L 2725 1675 
L 2900 1900 
L 3275 1575 
L 3050 1450 
Q 2800 875 2600 650 
Q 3000 550 3137 437 
Q 3275 325 3275 150 
Q 3275 -25 3200 -25 
Q 3125 -25 3025 75 
Q 2750 275 2400 425 
Q 1525 -275 325 -500 
L 300 -425 
Q 1450 -50 2100 550 
Q 1600 725 1125 800 
Q 1225 950 1525 1525 
L 1200 1525 
Q 875 1525 600 1450 
L 375 1675 
L 1575 1675 
Q 1675 1925 1775 2275 
L 1900 2225 
L 1900 3250 
Q 1225 2475 350 2050 
L 300 2125 
Q 1225 2775 1700 3525 
L 1250 3525 
Q 925 3525 650 3450 
L 425 3675 
L 1900 3675 
Q 1900 4575 1875 5250 
z
M 3925 3525 
Q 4050 2075 4525 1100 
Q 4925 1950 5025 3525 
L 3925 3525 
z
M 4050 5250 
L 4625 4925 
Q 4425 4850 4325 4625 
Q 4225 4400 3950 3675 
L 5375 3675 
L 5675 3975 
L 6125 3525 
L 5400 3525 
Q 5250 1675 4750 775 
Q 5325 75 6100 -100 
L 6100 -200 
Q 5625 -275 5600 -500 
Q 4950 -50 4525 525 
Q 3700 -275 2550 -650 
L 2500 -575 
Q 3650 -50 4325 800 
Q 3850 1975 3825 3375 
Q 3575 2725 3100 2150 
L 3025 2200 
Q 3625 3200 4050 5250 
z
" transform="scale(0.015625)"/>
      <path id="TimesNewRomanPSMT-58" d="M 2613 2347 
L 3522 991 
Q 3900 428 4083 279 
Q 4266 131 4547 116 
L 4547 0 
L 2728 0 
L 2728 116 
Q 2909 119 2997 153 
Q 3063 181 3105 239 
Q 3147 297 3147 356 
Q 3147 428 3119 500 
Q 3097 553 2947 775 
L 2228 1863 
L 1341 725 
Q 1200 544 1172 483 
Q 1144 422 1144 356 
Q 1144 256 1228 190 
Q 1313 125 1550 116 
L 1550 0 
L 47 0 
L 47 116 
Q 206 131 322 181 
Q 516 263 691 400 
Q 866 538 1091 822 
L 2091 2084 
L 1256 3306 
Q 916 3803 678 3958 
Q 441 4113 131 4122 
L 131 4238 
L 2091 4238 
L 2091 4122 
Q 1841 4113 1748 4041 
Q 1656 3969 1656 3881 
Q 1656 3766 1806 3544 
L 2456 2572 
L 3209 3525 
Q 3341 3694 3370 3756 
Q 3400 3819 3400 3884 
Q 3400 3950 3363 4000 
Q 3316 4066 3244 4092 
Q 3172 4119 2947 4122 
L 2947 4238 
L 4450 4238 
L 4450 4122 
Q 4272 4113 4159 4066 
Q 3991 3994 3850 3872 
Q 3709 3750 3453 3422 
L 2613 2347 
z
" transform="scale(0.015625)"/>
      <path id="TimesNewRomanPSMT-7e" d="M 3256 2109 
L 3397 2109 
Q 3384 1703 3165 1473 
Q 2947 1244 2631 1244 
Q 2488 1244 2322 1292 
Q 2156 1341 1466 1622 
Q 984 1822 781 1822 
Q 563 1822 413 1687 
Q 263 1553 200 1250 
L 63 1250 
Q 81 1672 293 1895 
Q 506 2119 794 2119 
Q 931 2119 1075 2075 
Q 1400 1981 1929 1754 
Q 2459 1528 2675 1528 
Q 2909 1528 3068 1678 
Q 3228 1828 3256 2109 
z
" transform="scale(0.015625)"/>
      <path id="TimesNewRomanPSMT-4e" d="M -84 4238 
L 1066 4238 
L 3656 1059 
L 3656 3503 
Q 3656 3894 3569 3991 
Q 3453 4122 3203 4122 
L 3056 4122 
L 3056 4238 
L 4531 4238 
L 4531 4122 
L 4381 4122 
Q 4113 4122 4000 3959 
Q 3931 3859 3931 3503 
L 3931 -69 
L 3819 -69 
L 1025 3344 
L 1025 734 
Q 1025 344 1109 247 
Q 1228 116 1475 116 
L 1625 116 
L 1625 0 
L 150 0 
L 150 116 
L 297 116 
Q 569 116 681 278 
Q 750 378 750 734 
L 750 3681 
Q 566 3897 470 3965 
Q 375 4034 191 4094 
Q 100 4122 -84 4122 
L -84 4238 
z
" transform="scale(0.015625)"/>
      <path id="TimesNewRomanPSMT-2c" d="M 344 -1066 
L 344 -928 
Q 666 -822 842 -598 
Q 1019 -375 1019 -125 
Q 1019 -66 991 -25 
Q 969 3 947 3 
Q 913 3 797 -59 
Q 741 -88 678 -88 
Q 525 -88 434 3 
Q 344 94 344 253 
Q 344 406 461 515 
Q 578 625 747 625 
Q 953 625 1114 445 
Q 1275 266 1275 -31 
Q 1275 -353 1051 -629 
Q 828 -906 344 -1066 
z
" transform="scale(0.015625)"/>
     </defs>
     <use xlink:href="#TimesNewRomanPSMT-3b1"/>
     <use xlink:href="#TimesNewRomanPSMT-28" x="52.392578"/>
     <use xlink:href="#TimesNewRomanPSMT-74" x="85.693359"/>
     <use xlink:href="#TimesNewRomanPSMT-29" x="113.476562"/>
     <use xlink:href="#SimSun-7d2f" x="146.777344"/>
     <use xlink:href="#SimSun-79ef" x="246.777344"/>
     <use xlink:href="#SimSun-5206" x="346.777344"/>
     <use xlink:href="#SimSun-5e03" x="446.777344"/>
     <use xlink:href="#SimSun-51fd" x="546.777344"/>
     <use xlink:href="#SimSun-6570" x="646.777344"/>
     <use xlink:href="#TimesNewRomanPSMT-28" x="746.777344"/>
     <use xlink:href="#TimesNewRomanPSMT-58" x="780.078125"/>
     <use xlink:href="#TimesNewRomanPSMT-7e" x="852.294922"/>
     <use xlink:href="#TimesNewRomanPSMT-4e" x="906.396484"/>
     <use xlink:href="#TimesNewRomanPSMT-28" x="978.613281"/>
     <use xlink:href="#TimesNewRomanPSMT-33" x="1011.914062"/>
     <use xlink:href="#TimesNewRomanPSMT-30" x="1061.914062"/>
     <use xlink:href="#TimesNewRomanPSMT-2c" x="1111.914062"/>
     <use xlink:href="#TimesNewRomanPSMT-31" x="1136.914062"/>
     <use xlink:href="#TimesNewRomanPSMT-30" x="1186.914062"/>
     <use xlink:href="#TimesNewRomanPSMT-30" x="1236.914062"/>
     <use xlink:href="#TimesNewRomanPSMT-29" x="1286.914062"/>
     <use xlink:href="#TimesNewRomanPSMT-29" x="1320.214844"/>
    </g>
   </g>
   <g id="legend_1">
    <g id="patch_7">
     <path d="M 64.6 162.5845 
L 122.8 162.5845 
Q 124.8 162.5845 124.8 160.5845 
L 124.8 48.472 
Q 124.8 46.472 122.8 46.472 
L 64.6 46.472 
Q 62.6 46.472 62.6 48.472 
L 62.6 160.5845 
Q 62.6 162.5845 64.6 162.5845 
z
" style="fill: #ffffff; opacity: 0.8; stroke: #cccccc; stroke-linejoin: miter"/>
    </g>
    <g id="line2d_20">
     <path d="M 66.6 53.972 
L 76.6 53.972 
L 86.6 53.972 
" style="fill: none; stroke: #00ffff; stroke-width: 0.6; stroke-linecap: square"/>
    </g>
    <g id="text_15">
     <!-- S=30 -->
     <g transform="translate(94.6 57.472) scale(0.1 -0.1)">
      <defs>
       <path id="TimesNewRomanPSMT-53" d="M 2934 4334 
L 2934 2869 
L 2819 2869 
Q 2763 3291 2617 3541 
Q 2472 3791 2203 3937 
Q 1934 4084 1647 4084 
Q 1322 4084 1109 3886 
Q 897 3688 897 3434 
Q 897 3241 1031 3081 
Q 1225 2847 1953 2456 
Q 2547 2138 2764 1967 
Q 2981 1797 3098 1565 
Q 3216 1334 3216 1081 
Q 3216 600 2842 251 
Q 2469 -97 1881 -97 
Q 1697 -97 1534 -69 
Q 1438 -53 1133 45 
Q 828 144 747 144 
Q 669 144 623 97 
Q 578 50 556 -97 
L 441 -97 
L 441 1356 
L 556 1356 
Q 638 900 775 673 
Q 913 447 1195 297 
Q 1478 147 1816 147 
Q 2206 147 2432 353 
Q 2659 559 2659 841 
Q 2659 997 2573 1156 
Q 2488 1316 2306 1453 
Q 2184 1547 1640 1851 
Q 1097 2156 867 2337 
Q 638 2519 519 2737 
Q 400 2956 400 3219 
Q 400 3675 750 4004 
Q 1100 4334 1641 4334 
Q 1978 4334 2356 4169 
Q 2531 4091 2603 4091 
Q 2684 4091 2736 4139 
Q 2788 4188 2819 4334 
L 2934 4334 
z
" transform="scale(0.015625)"/>
       <path id="TimesNewRomanPSMT-3d" d="M 116 2759 
L 3488 2759 
L 3488 2503 
L 116 2503 
L 116 2759 
z
M 116 1741 
L 3488 1741 
L 3488 1484 
L 116 1484 
L 116 1741 
z
" transform="scale(0.015625)"/>
      </defs>
      <use xlink:href="#TimesNewRomanPSMT-53"/>
      <use xlink:href="#TimesNewRomanPSMT-3d" x="55.615234"/>
      <use xlink:href="#TimesNewRomanPSMT-33" x="112.011719"/>
      <use xlink:href="#TimesNewRomanPSMT-30" x="162.011719"/>
     </g>
    </g>
    <g id="line2d_21">
     <path d="M 66.6 68.111063 
L 76.6 68.111063 
L 86.6 68.111063 
" style="fill: none; stroke: #0000ff; stroke-width: 0.6; stroke-linecap: square"/>
    </g>
    <g id="text_16">
     <!-- S=40 -->
     <g transform="translate(94.6 71.611063) scale(0.1 -0.1)">
      <use xlink:href="#TimesNewRomanPSMT-53"/>
      <use xlink:href="#TimesNewRomanPSMT-3d" x="55.615234"/>
      <use xlink:href="#TimesNewRomanPSMT-34" x="112.011719"/>
      <use xlink:href="#TimesNewRomanPSMT-30" x="162.011719"/>
     </g>
    </g>
    <g id="line2d_22">
     <path d="M 66.6 82.250125 
L 76.6 82.250125 
L 86.6 82.250125 
" style="fill: none; stroke: #8a2be2; stroke-width: 0.6; stroke-linecap: square"/>
    </g>
    <g id="text_17">
     <!-- S=50 -->
     <g transform="translate(94.6 85.750125) scale(0.1 -0.1)">
      <defs>
       <path id="TimesNewRomanPSMT-35" d="M 2778 4238 
L 2534 3706 
L 1259 3706 
L 981 3138 
Q 1809 3016 2294 2522 
Q 2709 2097 2709 1522 
Q 2709 1188 2573 903 
Q 2438 619 2231 419 
Q 2025 219 1772 97 
Q 1413 -75 1034 -75 
Q 653 -75 479 54 
Q 306 184 306 341 
Q 306 428 378 495 
Q 450 563 559 563 
Q 641 563 702 538 
Q 763 513 909 409 
Q 1144 247 1384 247 
Q 1750 247 2026 523 
Q 2303 800 2303 1197 
Q 2303 1581 2056 1914 
Q 1809 2247 1375 2428 
Q 1034 2569 447 2591 
L 1259 4238 
L 2778 4238 
z
" transform="scale(0.015625)"/>
      </defs>
      <use xlink:href="#TimesNewRomanPSMT-53"/>
      <use xlink:href="#TimesNewRomanPSMT-3d" x="55.615234"/>
      <use xlink:href="#TimesNewRomanPSMT-35" x="112.011719"/>
      <use xlink:href="#TimesNewRomanPSMT-30" x="162.011719"/>
     </g>
    </g>
    <g id="line2d_23">
     <path d="M 66.6 96.389188 
L 76.6 96.389188 
L 86.6 96.389188 
" style="fill: none; stroke: #7fff00; stroke-width: 0.6; stroke-linecap: square"/>
    </g>
    <g id="text_18">
     <!-- S=60 -->
     <g transform="translate(94.6 99.889188) scale(0.1 -0.1)">
      <use xlink:href="#TimesNewRomanPSMT-53"/>
      <use xlink:href="#TimesNewRomanPSMT-3d" x="55.615234"/>
      <use xlink:href="#TimesNewRomanPSMT-36" x="112.011719"/>
      <use xlink:href="#TimesNewRomanPSMT-30" x="162.011719"/>
     </g>
    </g>
    <g id="line2d_24">
     <path d="M 66.6 110.52825 
L 76.6 110.52825 
L 86.6 110.52825 
" style="fill: none; stroke: #d2691e; stroke-width: 0.6; stroke-linecap: square"/>
    </g>
    <g id="text_19">
     <!-- S=70 -->
     <g transform="translate(94.6 114.02825) scale(0.1 -0.1)">
      <defs>
       <path id="TimesNewRomanPSMT-37" d="M 644 4238 
L 2916 4238 
L 2916 4119 
L 1503 -88 
L 1153 -88 
L 2419 3728 
L 1253 3728 
Q 900 3728 750 3644 
Q 488 3500 328 3200 
L 238 3234 
L 644 4238 
z
" transform="scale(0.015625)"/>
      </defs>
      <use xlink:href="#TimesNewRomanPSMT-53"/>
      <use xlink:href="#TimesNewRomanPSMT-3d" x="55.615234"/>
      <use xlink:href="#TimesNewRomanPSMT-37" x="112.011719"/>
      <use xlink:href="#TimesNewRomanPSMT-30" x="162.011719"/>
     </g>
    </g>
    <g id="line2d_25">
     <path d="M 66.6 124.667313 
L 76.6 124.667313 
L 86.6 124.667313 
" style="fill: none; stroke: #dc143c; stroke-width: 0.6; stroke-linecap: square"/>
    </g>
    <g id="text_20">
     <!-- S=80 -->
     <g transform="translate(94.6 128.167313) scale(0.1 -0.1)">
      <use xlink:href="#TimesNewRomanPSMT-53"/>
      <use xlink:href="#TimesNewRomanPSMT-3d" x="55.615234"/>
      <use xlink:href="#TimesNewRomanPSMT-38" x="112.011719"/>
      <use xlink:href="#TimesNewRomanPSMT-30" x="162.011719"/>
     </g>
    </g>
    <g id="line2d_26">
     <path d="M 66.6 138.806375 
L 76.6 138.806375 
L 86.6 138.806375 
" style="fill: none; stroke: #006400; stroke-width: 0.6; stroke-linecap: square"/>
    </g>
    <g id="text_21">
     <!-- S=90 -->
     <g transform="translate(94.6 142.306375) scale(0.1 -0.1)">
      <defs>
       <path id="TimesNewRomanPSMT-39" d="M 338 -88 
L 338 28 
Q 744 34 1094 217 
Q 1444 400 1770 856 
Q 2097 1313 2225 1859 
Q 1734 1544 1338 1544 
Q 891 1544 572 1889 
Q 253 2234 253 2806 
Q 253 3363 572 3797 
Q 956 4325 1575 4325 
Q 2097 4325 2469 3894 
Q 2925 3359 2925 2575 
Q 2925 1869 2578 1258 
Q 2231 647 1613 244 
Q 1109 -88 516 -88 
L 338 -88 
z
M 2275 2091 
Q 2331 2497 2331 2741 
Q 2331 3044 2228 3395 
Q 2125 3747 1936 3934 
Q 1747 4122 1506 4122 
Q 1228 4122 1018 3872 
Q 809 3622 809 3128 
Q 809 2469 1088 2097 
Q 1291 1828 1588 1828 
Q 1731 1828 1928 1897 
Q 2125 1966 2275 2091 
z
" transform="scale(0.015625)"/>
      </defs>
      <use xlink:href="#TimesNewRomanPSMT-53"/>
      <use xlink:href="#TimesNewRomanPSMT-3d" x="55.615234"/>
      <use xlink:href="#TimesNewRomanPSMT-39" x="112.011719"/>
      <use xlink:href="#TimesNewRomanPSMT-30" x="162.011719"/>
     </g>
    </g>
    <g id="line2d_27">
     <path d="M 66.6 152.945438 
L 76.6 152.945438 
L 86.6 152.945438 
" style="fill: none; stroke: #bdb76b; stroke-width: 0.6; stroke-linecap: square"/>
    </g>
    <g id="text_22">
     <!-- S=100 -->
     <g transform="translate(94.6 156.445438) scale(0.1 -0.1)">
      <use xlink:href="#TimesNewRomanPSMT-53"/>
      <use xlink:href="#TimesNewRomanPSMT-3d" x="55.615234"/>
      <use xlink:href="#TimesNewRomanPSMT-31" x="112.011719"/>
      <use xlink:href="#TimesNewRomanPSMT-30" x="162.011719"/>
      <use xlink:href="#TimesNewRomanPSMT-30" x="212.011719"/>
     </g>
    </g>
   </g>
  </g>
 </g>
 <defs>
  <clipPath id="p52f0f8a24f">
   <rect x="57.6" y="41.472" width="357.12" height="266.112"/>
  </clipPath>
 </defs>
</svg>
