<?xml version="1.0" encoding="utf-8" standalone="no"?>
<!DOCTYPE svg PUBLIC "-//W3C//DTD SVG 1.1//EN"
  "http://www.w3.org/Graphics/SVG/1.1/DTD/svg11.dtd">
<svg xmlns:xlink="http://www.w3.org/1999/xlink" width="460.8pt" height="345.6pt" viewBox="0 0 460.8 345.6" xmlns="http://www.w3.org/2000/svg" version="1.1">
 <metadata>
  <rdf:RDF xmlns:dc="http://purl.org/dc/elements/1.1/" xmlns:cc="http://creativecommons.org/ns#" xmlns:rdf="http://www.w3.org/1999/02/22-rdf-syntax-ns#">
   <cc:Work>
    <dc:type rdf:resource="http://purl.org/dc/dcmitype/StillImage"/>
    <dc:date>2022-11-05T20:44:32.541460</dc:date>
    <dc:format>image/svg+xml</dc:format>
    <dc:creator>
     <cc:Agent>
      <dc:title>Matplotlib v3.6.1, https://matplotlib.org/</dc:title>
     </cc:Agent>
    </dc:creator>
   </cc:Work>
  </rdf:RDF>
 </metadata>
 <defs>
  <style type="text/css">*{stroke-linejoin: round; stroke-linecap: butt}</style>
 </defs>
 <g id="figure_1">
  <g id="patch_1">
   <path d="M 0 345.6 
L 460.8 345.6 
L 460.8 0 
L 0 0 
z
" style="fill: #ffffff"/>
  </g>
  <g id="axes_1">
   <g id="patch_2">
    <path d="M 57.6 307.584 
L 414.72 307.584 
L 414.72 41.472 
L 57.6 41.472 
z
" style="fill: #ffffff"/>
   </g>
   <g id="matplotlib.axis_1">
    <g id="xtick_1">
     <g id="line2d_1">
      <defs>
       <path id="m7ab878ba2d" d="M 0 0 
L 0 3.5 
" style="stroke: #000000; stroke-width: 0.8"/>
      </defs>
      <g>
       <use xlink:href="#m7ab878ba2d" x="106.298182" y="307.584" style="stroke: #000000; stroke-width: 0.8"/>
      </g>
     </g>
     <g id="text_1">
      <!-- 26 -->
      <g transform="translate(101.298182 321.52775) scale(0.1 -0.1)">
       <defs>
        <path id="TimesNewRomanPSMT-32" d="M 2934 816 
L 2638 0 
L 138 0 
L 138 116 
Q 1241 1122 1691 1759 
Q 2141 2397 2141 2925 
Q 2141 3328 1894 3587 
Q 1647 3847 1303 3847 
Q 991 3847 742 3664 
Q 494 3481 375 3128 
L 259 3128 
Q 338 3706 661 4015 
Q 984 4325 1469 4325 
Q 1984 4325 2329 3994 
Q 2675 3663 2675 3213 
Q 2675 2891 2525 2569 
Q 2294 2063 1775 1497 
Q 997 647 803 472 
L 1909 472 
Q 2247 472 2383 497 
Q 2519 522 2628 598 
Q 2738 675 2819 816 
L 2934 816 
z
" transform="scale(0.015625)"/>
        <path id="TimesNewRomanPSMT-36" d="M 2869 4325 
L 2869 4209 
Q 2456 4169 2195 4045 
Q 1934 3922 1679 3669 
Q 1425 3416 1258 3105 
Q 1091 2794 978 2366 
Q 1428 2675 1881 2675 
Q 2316 2675 2634 2325 
Q 2953 1975 2953 1425 
Q 2953 894 2631 456 
Q 2244 -75 1606 -75 
Q 1172 -75 869 213 
Q 275 772 275 1663 
Q 275 2231 503 2743 
Q 731 3256 1154 3653 
Q 1578 4050 1965 4187 
Q 2353 4325 2688 4325 
L 2869 4325 
z
M 925 2138 
Q 869 1716 869 1456 
Q 869 1156 980 804 
Q 1091 453 1309 247 
Q 1469 100 1697 100 
Q 1969 100 2183 356 
Q 2397 613 2397 1088 
Q 2397 1622 2184 2012 
Q 1972 2403 1581 2403 
Q 1463 2403 1327 2353 
Q 1191 2303 925 2138 
z
" transform="scale(0.015625)"/>
       </defs>
       <use xlink:href="#TimesNewRomanPSMT-32"/>
       <use xlink:href="#TimesNewRomanPSMT-36" x="50"/>
      </g>
     </g>
    </g>
    <g id="xtick_2">
     <g id="line2d_2">
      <g>
       <use xlink:href="#m7ab878ba2d" x="171.229091" y="307.584" style="stroke: #000000; stroke-width: 0.8"/>
      </g>
     </g>
     <g id="text_2">
      <!-- 28 -->
      <g transform="translate(166.229091 321.52775) scale(0.1 -0.1)">
       <defs>
        <path id="TimesNewRomanPSMT-38" d="M 1228 2134 
Q 725 2547 579 2797 
Q 434 3047 434 3316 
Q 434 3728 753 4026 
Q 1072 4325 1600 4325 
Q 2113 4325 2425 4047 
Q 2738 3769 2738 3413 
Q 2738 3175 2569 2928 
Q 2400 2681 1866 2347 
Q 2416 1922 2594 1678 
Q 2831 1359 2831 1006 
Q 2831 559 2490 242 
Q 2150 -75 1597 -75 
Q 994 -75 656 303 
Q 388 606 388 966 
Q 388 1247 577 1523 
Q 766 1800 1228 2134 
z
M 1719 2469 
Q 2094 2806 2194 3001 
Q 2294 3197 2294 3444 
Q 2294 3772 2109 3958 
Q 1925 4144 1606 4144 
Q 1288 4144 1088 3959 
Q 888 3775 888 3528 
Q 888 3366 970 3203 
Q 1053 3041 1206 2894 
L 1719 2469 
z
M 1375 2016 
Q 1116 1797 991 1539 
Q 866 1281 866 981 
Q 866 578 1086 336 
Q 1306 94 1647 94 
Q 1984 94 2187 284 
Q 2391 475 2391 747 
Q 2391 972 2272 1150 
Q 2050 1481 1375 2016 
z
" transform="scale(0.015625)"/>
       </defs>
       <use xlink:href="#TimesNewRomanPSMT-32"/>
       <use xlink:href="#TimesNewRomanPSMT-38" x="50"/>
      </g>
     </g>
    </g>
    <g id="xtick_3">
     <g id="line2d_3">
      <g>
       <use xlink:href="#m7ab878ba2d" x="236.16" y="307.584" style="stroke: #000000; stroke-width: 0.8"/>
      </g>
     </g>
     <g id="text_3">
      <!-- 30 -->
      <g transform="translate(231.16 321.52775) scale(0.1 -0.1)">
       <defs>
        <path id="TimesNewRomanPSMT-33" d="M 325 3431 
Q 506 3859 782 4092 
Q 1059 4325 1472 4325 
Q 1981 4325 2253 3994 
Q 2459 3747 2459 3466 
Q 2459 3003 1878 2509 
Q 2269 2356 2469 2072 
Q 2669 1788 2669 1403 
Q 2669 853 2319 450 
Q 1863 -75 997 -75 
Q 569 -75 414 31 
Q 259 138 259 259 
Q 259 350 332 419 
Q 406 488 509 488 
Q 588 488 669 463 
Q 722 447 909 348 
Q 1097 250 1169 231 
Q 1284 197 1416 197 
Q 1734 197 1970 444 
Q 2206 691 2206 1028 
Q 2206 1275 2097 1509 
Q 2016 1684 1919 1775 
Q 1784 1900 1550 2001 
Q 1316 2103 1072 2103 
L 972 2103 
L 972 2197 
Q 1219 2228 1467 2375 
Q 1716 2522 1828 2728 
Q 1941 2934 1941 3181 
Q 1941 3503 1739 3701 
Q 1538 3900 1238 3900 
Q 753 3900 428 3381 
L 325 3431 
z
" transform="scale(0.015625)"/>
        <path id="TimesNewRomanPSMT-30" d="M 231 2094 
Q 231 2819 450 3342 
Q 669 3866 1031 4122 
Q 1313 4325 1613 4325 
Q 2100 4325 2488 3828 
Q 2972 3213 2972 2159 
Q 2972 1422 2759 906 
Q 2547 391 2217 158 
Q 1888 -75 1581 -75 
Q 975 -75 572 641 
Q 231 1244 231 2094 
z
M 844 2016 
Q 844 1141 1059 588 
Q 1238 122 1591 122 
Q 1759 122 1940 273 
Q 2122 425 2216 781 
Q 2359 1319 2359 2297 
Q 2359 3022 2209 3506 
Q 2097 3866 1919 4016 
Q 1791 4119 1609 4119 
Q 1397 4119 1231 3928 
Q 1006 3669 925 3112 
Q 844 2556 844 2016 
z
" transform="scale(0.015625)"/>
       </defs>
       <use xlink:href="#TimesNewRomanPSMT-33"/>
       <use xlink:href="#TimesNewRomanPSMT-30" x="50"/>
      </g>
     </g>
    </g>
    <g id="xtick_4">
     <g id="line2d_4">
      <g>
       <use xlink:href="#m7ab878ba2d" x="301.090909" y="307.584" style="stroke: #000000; stroke-width: 0.8"/>
      </g>
     </g>
     <g id="text_4">
      <!-- 32 -->
      <g transform="translate(296.090909 321.52775) scale(0.1 -0.1)">
       <use xlink:href="#TimesNewRomanPSMT-33"/>
       <use xlink:href="#TimesNewRomanPSMT-32" x="50"/>
      </g>
     </g>
    </g>
    <g id="xtick_5">
     <g id="line2d_5">
      <g>
       <use xlink:href="#m7ab878ba2d" x="366.021818" y="307.584" style="stroke: #000000; stroke-width: 0.8"/>
      </g>
     </g>
     <g id="text_5">
      <!-- 34 -->
      <g transform="translate(361.021818 321.52775) scale(0.1 -0.1)">
       <defs>
        <path id="TimesNewRomanPSMT-34" d="M 2978 1563 
L 2978 1119 
L 2409 1119 
L 2409 0 
L 1894 0 
L 1894 1119 
L 100 1119 
L 100 1519 
L 2066 4325 
L 2409 4325 
L 2409 1563 
L 2978 1563 
z
M 1894 1563 
L 1894 3666 
L 406 1563 
L 1894 1563 
z
" transform="scale(0.015625)"/>
       </defs>
       <use xlink:href="#TimesNewRomanPSMT-33"/>
       <use xlink:href="#TimesNewRomanPSMT-34" x="50"/>
      </g>
     </g>
    </g>
    <g id="text_6">
     <!-- T(x)统计量(MB) -->
     <g transform="translate(201.165469 335.830875) scale(0.1 -0.1)">
      <defs>
       <path id="TimesNewRomanPSMT-54" d="M 3703 4238 
L 3750 3244 
L 3631 3244 
Q 3597 3506 3538 3619 
Q 3441 3800 3280 3886 
Q 3119 3972 2856 3972 
L 2259 3972 
L 2259 734 
Q 2259 344 2344 247 
Q 2463 116 2709 116 
L 2856 116 
L 2856 0 
L 1059 0 
L 1059 116 
L 1209 116 
Q 1478 116 1591 278 
Q 1659 378 1659 734 
L 1659 3972 
L 1150 3972 
Q 853 3972 728 3928 
Q 566 3869 450 3700 
Q 334 3531 313 3244 
L 194 3244 
L 244 4238 
L 3703 4238 
z
" transform="scale(0.015625)"/>
       <path id="TimesNewRomanPSMT-28" d="M 1988 -1253 
L 1988 -1369 
Q 1516 -1131 1200 -813 
Q 750 -359 506 256 
Q 263 872 263 1534 
Q 263 2503 741 3301 
Q 1219 4100 1988 4444 
L 1988 4313 
Q 1603 4100 1356 3731 
Q 1109 3363 987 2797 
Q 866 2231 866 1616 
Q 866 947 969 400 
Q 1050 -31 1165 -292 
Q 1281 -553 1476 -793 
Q 1672 -1034 1988 -1253 
z
" transform="scale(0.015625)"/>
       <path id="TimesNewRomanPSMT-78" d="M 84 2863 
L 1431 2863 
L 1431 2747 
Q 1303 2747 1251 2703 
Q 1200 2659 1200 2588 
Q 1200 2513 1309 2356 
Q 1344 2306 1413 2200 
L 1616 1875 
L 1850 2200 
Q 2075 2509 2075 2591 
Q 2075 2656 2022 2701 
Q 1969 2747 1850 2747 
L 1850 2863 
L 2819 2863 
L 2819 2747 
Q 2666 2738 2553 2663 
Q 2400 2556 2134 2200 
L 1744 1678 
L 2456 653 
Q 2719 275 2831 198 
Q 2944 122 3122 113 
L 3122 0 
L 1772 0 
L 1772 113 
Q 1913 113 1991 175 
Q 2050 219 2050 291 
Q 2050 363 1850 653 
L 1431 1266 
L 972 653 
Q 759 369 759 316 
Q 759 241 829 180 
Q 900 119 1041 113 
L 1041 0 
L 106 0 
L 106 113 
Q 219 128 303 191 
Q 422 281 703 653 
L 1303 1450 
L 759 2238 
Q 528 2575 401 2661 
Q 275 2747 84 2747 
L 84 2863 
z
" transform="scale(0.015625)"/>
       <path id="TimesNewRomanPSMT-29" d="M 144 4313 
L 144 4444 
Q 619 4209 934 3891 
Q 1381 3434 1625 2820 
Q 1869 2206 1869 1541 
Q 1869 572 1392 -226 
Q 916 -1025 144 -1369 
L 144 -1253 
Q 528 -1038 776 -670 
Q 1025 -303 1145 264 
Q 1266 831 1266 1447 
Q 1266 2113 1163 2663 
Q 1084 3094 967 3353 
Q 850 3613 656 3853 
Q 463 4094 144 4313 
z
" transform="scale(0.015625)"/>
       <path id="SimSun-7edf" d="M 3675 5150 
L 3725 5225 
Q 4350 4925 4425 4737 
Q 4500 4550 4375 4387 
Q 4250 4225 4200 4225 
Q 4125 4225 4075 4450 
Q 3975 4800 3675 5150 
z
M 2675 2525 
Q 2950 2600 3337 3100 
Q 3725 3600 3900 4050 
L 3350 4050 
Q 3025 4050 2750 3975 
L 2525 4200 
L 5225 4200 
L 5575 4550 
L 6000 4050 
L 4025 4050 
L 4400 3750 
Q 4150 3675 3875 3400 
Q 3600 3125 3100 2525 
L 5175 2625 
Q 4900 2950 4550 3275 
L 4600 3350 
Q 5025 3150 5362 2950 
Q 5700 2750 5737 2650 
Q 5775 2550 5775 2450 
Q 5775 2300 5712 2175 
Q 5650 2050 5600 2050 
Q 5575 2050 5525 2150 
Q 5425 2300 5275 2500 
Q 4525 2425 3862 2337 
Q 3200 2250 2900 2050 
L 2675 2525 
z
M 3500 2275 
L 3875 2350 
L 3850 1775 
Q 3775 550 3325 112 
Q 2875 -325 1950 -600 
L 1925 -525 
Q 2625 -175 2950 150 
Q 3275 475 3387 962 
Q 3500 1450 3500 2275 
z
M 4475 2450 
L 4800 2500 
L 4800 1750 
L 4800 175 
Q 4775 -150 5175 -125 
L 5375 -125 
Q 5625 -125 5650 87 
Q 5675 300 5700 825 
L 5825 825 
Q 5825 425 5875 187 
Q 5925 -50 6100 -75 
Q 5975 -425 5600 -425 
L 4975 -425 
Q 4475 -450 4475 25 
L 4475 2450 
z
M 425 500 
Q 675 525 1212 637 
Q 1750 750 2700 975 
L 2725 875 
Q 2200 700 1550 462 
Q 900 225 675 -25 
L 425 500 
z
M 1000 1825 
Q 1275 1850 2625 2025 
L 2650 1925 
Q 2050 1800 1550 1650 
Q 1050 1500 800 1300 
L 500 1825 
Q 725 1875 1125 2312 
Q 1525 2750 1825 3175 
Q 1450 3100 1175 3037 
Q 900 2975 650 2800 
L 400 3225 
Q 675 3300 1050 3912 
Q 1425 4525 1650 5225 
L 2125 4900 
Q 1925 4775 1675 4400 
Q 1425 4000 825 3225 
Q 1475 3275 1900 3300 
Q 2100 3575 2300 4025 
L 2750 3675 
Q 2525 3575 2100 3050 
Q 1650 2525 1000 1825 
z
" transform="scale(0.015625)"/>
       <path id="SimSun-8ba1" d="M 975 4975 
L 1000 5050 
Q 1550 4800 1762 4625 
Q 1975 4450 1975 4275 
Q 1975 4100 1887 4025 
Q 1800 3950 1775 3950 
Q 1650 3950 1550 4250 
Q 1375 4625 975 4975 
z
M 1650 375 
L 2625 1225 
L 2675 1150 
Q 1800 25 1600 -350 
L 1225 75 
Q 1325 225 1325 550 
L 1325 2800 
L 675 2800 
L 900 2800 
Q 750 2800 475 2725 
L 250 2950 
L 1275 2950 
L 1550 3225 
L 1900 2875 
L 1650 2700 
L 1650 375 
z
M 3850 2925 
Q 3850 4600 3825 5100 
L 4425 4825 
L 4225 4625 
L 4225 2925 
L 5350 2925 
L 5675 3250 
L 6125 2775 
L 4225 2775 
L 4225 500 
Q 4225 0 4250 -425 
L 3825 -600 
Q 3850 175 3850 575 
L 3850 2775 
L 2575 2775 
L 2950 2775 
Q 2650 2775 2375 2700 
L 2150 2925 
L 3850 2925 
z
" transform="scale(0.015625)"/>
       <path id="SimSun-91cf" d="M 1700 2400 
L 1700 1875 
L 3025 1875 
L 3025 2400 
L 1700 2400 
z
M 3350 2400 
L 3350 1875 
L 4625 1875 
L 4625 2400 
L 3350 2400 
z
M 1700 1725 
L 1700 1225 
L 3025 1225 
L 3025 1725 
L 1700 1725 
z
M 3350 1725 
L 3350 1225 
L 4625 1225 
L 4625 1725 
L 3350 1725 
z
M 4950 2325 
Q 4950 1350 4975 1025 
L 4625 875 
L 4625 1075 
L 3350 1075 
L 3350 525 
L 4700 525 
L 5050 825 
L 5450 375 
L 3350 375 
L 3350 -225 
L 5275 -225 
L 5650 125 
L 6075 -375 
L 1175 -375 
Q 850 -375 575 -450 
L 350 -225 
L 3025 -225 
L 3025 375 
L 1725 375 
Q 1400 375 1125 300 
L 900 525 
L 3025 525 
L 3025 1075 
L 1700 1075 
L 1700 925 
L 1350 800 
Q 1375 1300 1375 1787 
Q 1375 2275 1350 2750 
L 1700 2550 
L 4600 2550 
L 4750 2750 
L 5125 2475 
L 4950 2325 
z
M 1775 4800 
L 1775 4375 
L 4550 4375 
L 4550 4800 
L 1775 4800 
z
M 1775 4225 
L 1775 3775 
L 4550 3775 
L 4550 4225 
L 1775 4225 
z
M 4875 4750 
Q 4875 3825 4900 3525 
L 4550 3375 
L 4550 3625 
L 1775 3625 
L 1775 3400 
L 1425 3250 
Q 1450 3650 1450 4262 
Q 1450 4875 1425 5125 
L 1800 4950 
L 4500 4950 
L 4650 5175 
L 5050 4900 
L 4875 4750 
z
M 250 3125 
L 5375 3125 
L 5725 3450 
L 6150 2975 
L 950 2975 
Q 750 2975 475 2900 
L 250 3125 
z
" transform="scale(0.015625)"/>
       <path id="TimesNewRomanPSMT-4d" d="M 2619 0 
L 981 3566 
L 981 734 
Q 981 344 1066 247 
Q 1181 116 1431 116 
L 1581 116 
L 1581 0 
L 106 0 
L 106 116 
L 256 116 
Q 525 116 638 278 
Q 706 378 706 734 
L 706 3503 
Q 706 3784 644 3909 
Q 600 4000 483 4061 
Q 366 4122 106 4122 
L 106 4238 
L 1306 4238 
L 2844 922 
L 4356 4238 
L 5556 4238 
L 5556 4122 
L 5409 4122 
Q 5138 4122 5025 3959 
Q 4956 3859 4956 3503 
L 4956 734 
Q 4956 344 5044 247 
Q 5159 116 5409 116 
L 5556 116 
L 5556 0 
L 3756 0 
L 3756 116 
L 3906 116 
Q 4178 116 4288 278 
Q 4356 378 4356 734 
L 4356 3566 
L 2722 0 
L 2619 0 
z
" transform="scale(0.015625)"/>
       <path id="TimesNewRomanPSMT-42" d="M 2956 2163 
Q 3397 2069 3616 1863 
Q 3919 1575 3919 1159 
Q 3919 844 3719 555 
Q 3519 266 3170 133 
Q 2822 0 2106 0 
L 106 0 
L 106 116 
L 266 116 
Q 531 116 647 284 
Q 719 394 719 750 
L 719 3488 
Q 719 3881 628 3984 
Q 506 4122 266 4122 
L 106 4122 
L 106 4238 
L 1938 4238 
Q 2450 4238 2759 4163 
Q 3228 4050 3475 3764 
Q 3722 3478 3722 3106 
Q 3722 2788 3528 2536 
Q 3334 2284 2956 2163 
z
M 1319 2331 
Q 1434 2309 1582 2298 
Q 1731 2288 1909 2288 
Q 2366 2288 2595 2386 
Q 2825 2484 2947 2687 
Q 3069 2891 3069 3131 
Q 3069 3503 2766 3765 
Q 2463 4028 1881 4028 
Q 1569 4028 1319 3959 
L 1319 2331 
z
M 1319 306 
Q 1681 222 2034 222 
Q 2600 222 2897 476 
Q 3194 731 3194 1106 
Q 3194 1353 3059 1581 
Q 2925 1809 2622 1940 
Q 2319 2072 1872 2072 
Q 1678 2072 1540 2065 
Q 1403 2059 1319 2044 
L 1319 306 
z
" transform="scale(0.015625)"/>
      </defs>
      <use xlink:href="#TimesNewRomanPSMT-54"/>
      <use xlink:href="#TimesNewRomanPSMT-28" x="61.083984"/>
      <use xlink:href="#TimesNewRomanPSMT-78" x="94.384766"/>
      <use xlink:href="#TimesNewRomanPSMT-29" x="144.384766"/>
      <use xlink:href="#SimSun-7edf" x="177.685547"/>
      <use xlink:href="#SimSun-8ba1" x="277.685547"/>
      <use xlink:href="#SimSun-91cf" x="377.685547"/>
      <use xlink:href="#TimesNewRomanPSMT-28" x="477.685547"/>
      <use xlink:href="#TimesNewRomanPSMT-4d" x="510.986328"/>
      <use xlink:href="#TimesNewRomanPSMT-42" x="599.902344"/>
      <use xlink:href="#TimesNewRomanPSMT-29" x="666.601562"/>
     </g>
    </g>
   </g>
   <g id="matplotlib.axis_2">
    <g id="ytick_1">
     <g id="line2d_6">
      <defs>
       <path id="m77ce2e31a7" d="M 0 0 
L -3.5 0 
" style="stroke: #000000; stroke-width: 0.8"/>
      </defs>
      <g>
       <use xlink:href="#m77ce2e31a7" x="57.6" y="295.919706" style="stroke: #000000; stroke-width: 0.8"/>
      </g>
     </g>
     <g id="text_7">
      <!-- 0.00 -->
      <g transform="translate(33.1 299.391581) scale(0.1 -0.1)">
       <defs>
        <path id="TimesNewRomanPSMT-2e" d="M 800 606 
Q 947 606 1047 504 
Q 1147 403 1147 259 
Q 1147 116 1045 14 
Q 944 -88 800 -88 
Q 656 -88 554 14 
Q 453 116 453 259 
Q 453 406 554 506 
Q 656 606 800 606 
z
" transform="scale(0.015625)"/>
       </defs>
       <use xlink:href="#TimesNewRomanPSMT-30"/>
       <use xlink:href="#TimesNewRomanPSMT-2e" x="50"/>
       <use xlink:href="#TimesNewRomanPSMT-30" x="75"/>
       <use xlink:href="#TimesNewRomanPSMT-30" x="125"/>
      </g>
     </g>
    </g>
    <g id="ytick_2">
     <g id="line2d_7">
      <g>
       <use xlink:href="#m77ce2e31a7" x="57.6" y="253.237387" style="stroke: #000000; stroke-width: 0.8"/>
      </g>
     </g>
     <g id="text_8">
      <!-- 0.05 -->
      <g transform="translate(33.1 256.709262) scale(0.1 -0.1)">
       <defs>
        <path id="TimesNewRomanPSMT-35" d="M 2778 4238 
L 2534 3706 
L 1259 3706 
L 981 3138 
Q 1809 3016 2294 2522 
Q 2709 2097 2709 1522 
Q 2709 1188 2573 903 
Q 2438 619 2231 419 
Q 2025 219 1772 97 
Q 1413 -75 1034 -75 
Q 653 -75 479 54 
Q 306 184 306 341 
Q 306 428 378 495 
Q 450 563 559 563 
Q 641 563 702 538 
Q 763 513 909 409 
Q 1144 247 1384 247 
Q 1750 247 2026 523 
Q 2303 800 2303 1197 
Q 2303 1581 2056 1914 
Q 1809 2247 1375 2428 
Q 1034 2569 447 2591 
L 1259 4238 
L 2778 4238 
z
" transform="scale(0.015625)"/>
       </defs>
       <use xlink:href="#TimesNewRomanPSMT-30"/>
       <use xlink:href="#TimesNewRomanPSMT-2e" x="50"/>
       <use xlink:href="#TimesNewRomanPSMT-30" x="75"/>
       <use xlink:href="#TimesNewRomanPSMT-35" x="125"/>
      </g>
     </g>
    </g>
    <g id="ytick_3">
     <g id="line2d_8">
      <g>
       <use xlink:href="#m77ce2e31a7" x="57.6" y="210.555068" style="stroke: #000000; stroke-width: 0.8"/>
      </g>
     </g>
     <g id="text_9">
      <!-- 0.10 -->
      <g transform="translate(33.1 214.026943) scale(0.1 -0.1)">
       <defs>
        <path id="TimesNewRomanPSMT-31" d="M 750 3822 
L 1781 4325 
L 1884 4325 
L 1884 747 
Q 1884 391 1914 303 
Q 1944 216 2037 169 
Q 2131 122 2419 116 
L 2419 0 
L 825 0 
L 825 116 
Q 1125 122 1212 167 
Q 1300 213 1334 289 
Q 1369 366 1369 747 
L 1369 3034 
Q 1369 3497 1338 3628 
Q 1316 3728 1258 3775 
Q 1200 3822 1119 3822 
Q 1003 3822 797 3725 
L 750 3822 
z
" transform="scale(0.015625)"/>
       </defs>
       <use xlink:href="#TimesNewRomanPSMT-30"/>
       <use xlink:href="#TimesNewRomanPSMT-2e" x="50"/>
       <use xlink:href="#TimesNewRomanPSMT-31" x="75"/>
       <use xlink:href="#TimesNewRomanPSMT-30" x="125"/>
      </g>
     </g>
    </g>
    <g id="ytick_4">
     <g id="line2d_9">
      <g>
       <use xlink:href="#m77ce2e31a7" x="57.6" y="167.872748" style="stroke: #000000; stroke-width: 0.8"/>
      </g>
     </g>
     <g id="text_10">
      <!-- 0.15 -->
      <g transform="translate(33.1 171.344623) scale(0.1 -0.1)">
       <use xlink:href="#TimesNewRomanPSMT-30"/>
       <use xlink:href="#TimesNewRomanPSMT-2e" x="50"/>
       <use xlink:href="#TimesNewRomanPSMT-31" x="75"/>
       <use xlink:href="#TimesNewRomanPSMT-35" x="125"/>
      </g>
     </g>
    </g>
    <g id="ytick_5">
     <g id="line2d_10">
      <g>
       <use xlink:href="#m77ce2e31a7" x="57.6" y="125.190429" style="stroke: #000000; stroke-width: 0.8"/>
      </g>
     </g>
     <g id="text_11">
      <!-- 0.20 -->
      <g transform="translate(33.1 128.662304) scale(0.1 -0.1)">
       <use xlink:href="#TimesNewRomanPSMT-30"/>
       <use xlink:href="#TimesNewRomanPSMT-2e" x="50"/>
       <use xlink:href="#TimesNewRomanPSMT-32" x="75"/>
       <use xlink:href="#TimesNewRomanPSMT-30" x="125"/>
      </g>
     </g>
    </g>
    <g id="ytick_6">
     <g id="line2d_11">
      <g>
       <use xlink:href="#m77ce2e31a7" x="57.6" y="82.50811" style="stroke: #000000; stroke-width: 0.8"/>
      </g>
     </g>
     <g id="text_12">
      <!-- 0.25 -->
      <g transform="translate(33.1 85.979985) scale(0.1 -0.1)">
       <use xlink:href="#TimesNewRomanPSMT-30"/>
       <use xlink:href="#TimesNewRomanPSMT-2e" x="50"/>
       <use xlink:href="#TimesNewRomanPSMT-32" x="75"/>
       <use xlink:href="#TimesNewRomanPSMT-35" x="125"/>
      </g>
     </g>
    </g>
    <g id="text_13">
     <!-- 概率 -->
     <g transform="translate(26.960938 184.528) rotate(-90) scale(0.1 -0.1)">
      <defs>
       <path id="SimSun-6982" d="M 2700 4500 
L 2700 3450 
L 3375 3450 
L 3375 4500 
L 2700 4500 
z
M 2700 3300 
L 2700 2300 
L 3375 2300 
L 3375 3300 
L 2700 3300 
z
M 2700 725 
L 3425 1200 
Q 3350 1375 3025 1775 
L 3050 1850 
Q 3550 1525 3712 1337 
Q 3875 1150 3875 1000 
Q 3875 875 3800 750 
Q 3725 625 3700 625 
Q 3650 625 3625 725 
Q 3550 900 3475 1100 
Q 2900 600 2575 150 
L 2325 475 
Q 2400 625 2400 950 
L 2400 3475 
Q 2400 3975 2375 4825 
L 2700 4650 
L 3350 4650 
L 3550 4850 
L 3875 4525 
L 3650 4400 
Q 3650 2825 3675 2150 
L 3375 1975 
L 3375 2150 
L 2700 2150 
L 2700 725 
z
M 5025 2400 
L 4950 2075 
L 5350 1850 
L 5175 1675 
L 5175 100 
Q 5175 -125 5350 -125 
L 5525 -125 
Q 5750 -125 5762 162 
Q 5775 450 5775 825 
L 5900 825 
Q 5900 450 5962 225 
Q 6025 0 6150 -75 
Q 6075 -250 5950 -325 
Q 5825 -400 5625 -400 
L 5225 -400 
Q 4875 -400 4875 0 
L 4875 1825 
Q 4350 75 2650 -650 
L 2625 -575 
Q 4275 350 4700 2400 
L 4225 2400 
L 4050 2250 
L 3775 2550 
Q 3925 2625 4012 2975 
Q 4100 3325 4225 4075 
L 4600 3850 
Q 4475 3800 4425 3575 
Q 4375 3325 4200 2550 
L 4725 2550 
Q 4800 3100 4850 4500 
L 4425 4500 
L 4200 4450 
L 4000 4650 
L 5400 4650 
L 5650 4900 
L 6050 4500 
L 5175 4500 
Q 5100 3100 5050 2550 
L 5400 2550 
L 5675 2825 
L 6100 2400 
L 5025 2400 
z
M 1550 775 
Q 1550 425 1575 -450 
L 1225 -625 
Q 1250 850 1250 2400 
Q 925 1525 300 750 
L 250 825 
Q 575 1400 825 2062 
Q 1075 2725 1225 3575 
L 775 3575 
L 550 3525 
L 350 3725 
L 1250 3725 
Q 1250 4400 1225 5275 
L 1750 5000 
L 1550 4850 
L 1550 3725 
L 1675 3725 
L 1925 3975 
L 2325 3575 
L 1550 3575 
L 1550 3000 
Q 2025 2800 2175 2650 
Q 2325 2500 2325 2350 
Q 2325 2250 2262 2100 
Q 2200 1950 2175 1950 
Q 2100 1950 2000 2200 
Q 1850 2550 1550 2850 
L 1550 775 
z
" transform="scale(0.015625)"/>
       <path id="SimSun-7387" d="M 875 3725 
L 925 3800 
Q 1375 3650 1550 3525 
Q 1725 3400 1725 3250 
Q 1725 3175 1662 3025 
Q 1600 2875 1550 2875 
Q 1500 2875 1425 3050 
Q 1275 3325 875 3725 
z
M 550 1850 
Q 875 1925 2000 2575 
L 2050 2500 
Q 1675 2225 1337 1937 
Q 1000 1650 875 1425 
L 550 1850 
z
M 5200 3450 
Q 4800 3150 4275 2800 
L 4225 2875 
Q 4775 3400 5050 3925 
L 5450 3525 
L 5200 3450 
z
M 4325 2500 
L 4350 2575 
Q 5225 2350 5375 2212 
Q 5525 2075 5525 1900 
Q 5525 1775 5487 1662 
Q 5450 1550 5400 1550 
Q 5325 1550 5200 1800 
Q 4975 2150 4325 2500 
z
M 3150 3900 
Q 2500 3300 2300 3150 
Q 2800 3150 3400 3175 
Q 3700 3500 3850 3825 
L 4250 3450 
Q 4050 3400 3450 2825 
Q 2850 2250 2475 1950 
Q 3150 1975 3850 2000 
Q 3750 2175 3550 2450 
L 3600 2500 
Q 4050 2250 4200 2100 
Q 4350 1950 4350 1850 
Q 4350 1775 4250 1625 
Q 4150 1475 4100 1475 
Q 4075 1475 4050 1550 
Q 4000 1700 3900 1900 
Q 3650 1875 3075 1800 
L 3500 1550 
L 3325 1425 
L 3325 975 
L 5325 975 
L 5650 1300 
L 6100 825 
L 3325 825 
Q 3325 -275 3350 -525 
L 2975 -650 
Q 3000 0 3000 825 
L 1125 825 
Q 800 825 525 750 
L 300 975 
L 3000 975 
L 3000 1775 
Q 2450 1700 2200 1525 
L 1950 1950 
Q 2275 1950 2675 2350 
Q 3075 2750 3325 3050 
Q 2400 2950 2150 2775 
L 1950 3175 
Q 2150 3150 2475 3575 
Q 2800 4000 2900 4225 
L 1450 4225 
Q 1125 4225 850 4150 
L 625 4375 
L 3100 4375 
Q 3050 4800 2675 5200 
L 2725 5250 
Q 3225 5050 3337 4912 
Q 3450 4775 3450 4700 
Q 3450 4550 3250 4375 
L 5025 4375 
L 5350 4675 
L 5775 4225 
L 3050 4225 
L 3375 3950 
L 3150 3900 
z
" transform="scale(0.015625)"/>
      </defs>
      <use xlink:href="#SimSun-6982"/>
      <use xlink:href="#SimSun-7387" x="100"/>
     </g>
    </g>
   </g>
   <g id="line2d_12">
    <path d="M 73.832727 282.826781 
L 78.70742 280.791813 
L 83.582113 278.517378 
L 88.456806 275.988967 
L 93.331499 273.193518 
L 97.881212 270.333627 
L 102.430925 267.224154 
L 106.980639 263.860032 
L 111.855332 259.970158 
L 116.730025 255.78548 
L 121.604717 251.310602 
L 126.80439 246.227957 
L 132.329042 240.496816 
L 138.178673 234.088947 
L 144.678264 226.61402 
L 152.152793 217.655395 
L 163.202097 204.008101 
L 175.551319 188.827147 
L 182.375889 180.791646 
L 187.900541 174.616595 
L 192.775233 169.488928 
L 197.324947 165.028903 
L 201.549681 161.210283 
L 205.449435 157.992196 
L 209.02421 155.323385 
L 212.598984 152.942 
L 215.84878 151.040219 
L 219.098575 149.400244 
L 222.023391 148.155922 
L 224.948206 147.137133 
L 227.873022 146.348673 
L 230.797838 145.794265 
L 233.722654 145.476539 
L 236.647469 145.397002 
L 239.572285 145.556033 
L 242.497101 145.952877 
L 245.421916 146.585649 
L 248.346732 147.451353 
L 251.271548 148.545903 
L 254.196364 149.864158 
L 257.446159 151.58373 
L 260.695954 153.562004 
L 263.945749 155.787749 
L 267.520524 158.506937 
L 271.420278 161.776052 
L 275.320033 165.336014 
L 279.544767 169.488928 
L 284.09448 174.264646 
L 289.294152 180.047784 
L 295.468763 187.26877 
L 303.268272 196.757077 
L 326.666798 225.464967 
L 333.491368 233.357215 
L 339.340999 239.801383 
L 344.865651 245.570937 
L 350.065324 250.692462 
L 355.264996 255.496107 
L 360.139689 259.700324 
L 365.014382 263.609908 
L 369.889075 267.224154 
L 374.763767 270.546108 
L 379.63846 273.582097 
L 384.513153 276.341249 
L 389.387846 278.835006 
L 394.262539 281.076647 
L 398.487273 282.826781 
L 398.487273 282.826781 
" clip-path="url(#p8229411773)" style="fill: none; stroke: #00ffff; stroke-width: 0.6; stroke-linecap: square"/>
   </g>
   <g id="line2d_13">
    <path d="M 73.832727 288.120379 
L 78.70742 286.564132 
L 83.257133 284.887997 
L 87.806847 282.974269 
L 92.031581 280.965987 
L 96.256314 278.717967 
L 100.481048 276.214268 
L 104.705782 273.440009 
L 108.930516 270.381791 
L 113.15525 267.028143 
L 117.379984 263.369987 
L 121.604717 259.40111 
L 125.829451 255.11864 
L 130.054185 250.523499 
L 134.603898 245.231216 
L 139.153612 239.594774 
L 144.028305 233.195646 
L 149.227977 225.995422 
L 155.077609 217.496433 
L 161.902179 207.167236 
L 172.626503 190.460983 
L 182.700868 174.908863 
L 188.5505 166.26403 
L 193.425192 159.425441 
L 197.649926 153.846453 
L 201.549681 149.038584 
L 205.124455 144.960082 
L 208.69923 141.230449 
L 211.949025 138.168841 
L 214.873841 135.699683 
L 217.798657 133.516496 
L 220.723473 131.631945 
L 223.323309 130.21645 
L 225.923145 129.052243 
L 228.522981 128.144773 
L 231.122817 127.498306 
L 233.397674 127.149177 
L 235.672531 127.003493 
L 237.947387 127.061781 
L 240.222244 127.323831 
L 242.497101 127.788695 
L 245.096937 128.566121 
L 247.696773 129.602568 
L 250.296609 130.893172 
L 252.896446 132.431909 
L 255.496282 134.211636 
L 258.421097 136.491632 
L 261.345913 139.053032 
L 264.595708 142.211201 
L 267.845504 145.67663 
L 271.420278 149.815035 
L 275.320033 154.681078 
L 279.544767 160.314237 
L 284.419459 167.203526 
L 290.269091 175.892288 
L 298.0686 187.922083 
L 314.642555 213.605961 
L 321.142146 223.205527 
L 326.666798 230.985031 
L 331.86647 237.923647 
L 336.741163 244.051834 
L 341.290876 249.419131 
L 345.84059 254.431969 
L 350.065324 258.762703 
L 354.290057 262.779728 
L 358.514791 266.485361 
L 362.739525 269.885332 
L 366.964259 272.988308 
L 371.188993 275.805424 
L 375.413726 278.349811 
L 379.63846 280.63615 
L 383.863194 282.680247 
L 388.412907 284.629649 
L 392.962621 286.338426 
L 397.837314 287.926309 
L 398.487273 288.120379 
L 398.487273 288.120379 
" clip-path="url(#p8229411773)" style="fill: none; stroke: #0000ff; stroke-width: 0.6; stroke-linecap: square"/>
   </g>
   <g id="line2d_14">
    <path d="M 73.832727 291.228559 
L 79.0324 290.006535 
L 83.907093 288.623358 
L 88.456806 287.094811 
L 92.68154 285.444332 
L 96.906274 283.546882 
L 100.806028 281.55526 
L 104.705782 279.313596 
L 108.605536 276.803316 
L 112.505291 274.006657 
L 116.080066 271.177351 
L 119.65484 268.082076 
L 123.229615 264.710947 
L 126.80439 261.055984 
L 130.704144 256.738378 
L 134.603898 252.072341 
L 138.503653 247.058204 
L 142.728387 241.239371 
L 146.95312 235.031266 
L 151.502834 227.934447 
L 156.377527 219.898648 
L 161.902179 210.325422 
L 168.401769 198.574334 
L 179.126093 178.613441 
L 187.575561 163.076936 
L 193.100213 153.364324 
L 197.649926 145.796821 
L 201.549681 139.71048 
L 205.124455 134.516989 
L 208.374251 130.159116 
L 211.624046 126.183994 
L 214.548862 122.960829 
L 217.148698 120.396167 
L 219.748534 118.128762 
L 222.34837 116.171045 
L 224.623227 114.720631 
L 226.898084 113.521812 
L 229.17294 112.579718 
L 231.447797 111.898399 
L 233.722654 111.480791 
L 235.672531 111.334133 
L 237.622408 111.383032 
L 239.572285 111.627333 
L 241.522162 112.066259 
L 243.797019 112.822434 
L 246.071876 113.83834 
L 248.346732 115.109613 
L 250.621589 116.630821 
L 253.221425 118.667039 
L 255.821261 121.009984 
L 258.421097 123.64684 
L 261.345913 126.946782 
L 264.270729 130.578244 
L 267.520524 134.972487 
L 271.095299 140.201754 
L 274.995053 146.32181 
L 279.219787 153.364324 
L 284.419459 162.492961 
L 291.244029 174.984234 
L 309.767862 209.171211 
L 315.617494 219.348367 
L 320.817166 227.934447 
L 325.36688 235.031266 
L 329.591613 241.239371 
L 333.816347 247.058204 
L 337.716102 252.072341 
L 341.615856 256.738378 
L 345.51561 261.055984 
L 349.415364 265.029037 
L 353.315119 268.665105 
L 357.214873 271.974901 
L 361.114627 274.971746 
L 365.014382 277.67104 
L 368.914136 280.089759 
L 372.81389 282.245983 
L 376.713645 284.158468 
L 380.938378 285.977359 
L 385.163112 287.556667 
L 389.712826 289.016607 
L 394.587518 290.335108 
L 398.487273 291.228559 
L 398.487273 291.228559 
" clip-path="url(#p8229411773)" style="fill: none; stroke: #8a2be2; stroke-width: 0.6; stroke-linecap: square"/>
   </g>
   <g id="line2d_15">
    <path d="M 73.832727 293.066745 
L 79.357379 292.130415 
L 84.232072 291.091625 
L 88.781785 289.908259 
L 93.006519 288.594979 
L 97.231253 287.045935 
L 101.131007 285.380669 
L 105.030762 283.464034 
L 108.605536 281.464704 
L 112.180311 279.213328 
L 115.755086 276.690577 
L 119.329861 273.877752 
L 122.904636 270.757209 
L 126.47941 267.312823 
L 130.054185 263.530485 
L 133.62896 259.398624 
L 137.203735 254.908747 
L 140.778509 250.055975 
L 144.353284 244.839574 
L 148.253038 238.738973 
L 152.152793 232.222418 
L 156.377527 224.716685 
L 160.92724 216.155831 
L 165.801933 206.501866 
L 171.651564 194.393111 
L 179.776052 177.001734 
L 190.500377 154.093471 
L 195.700049 143.492277 
L 199.924783 135.330603 
L 203.824537 128.266678 
L 207.399312 122.267331 
L 210.649107 117.266269 
L 213.573923 113.174346 
L 216.173759 109.889104 
L 218.773595 106.956467 
L 221.048452 104.694183 
L 223.323309 102.726968 
L 225.598165 101.064442 
L 227.548043 99.888169 
L 229.49792 98.946059 
L 231.447797 98.241548 
L 233.397674 97.777212 
L 235.347551 97.554753 
L 237.297428 97.574986 
L 239.247305 97.837839 
L 241.197183 98.342346 
L 243.14706 99.08666 
L 245.096937 100.068059 
L 247.046814 101.282965 
L 249.321671 102.989553 
L 251.596527 104.999542 
L 253.871384 107.303114 
L 256.47122 110.280876 
L 259.071057 113.608799 
L 261.995872 117.745528 
L 264.920688 122.267331 
L 268.170483 127.70136 
L 271.745258 134.11929 
L 275.645012 141.567715 
L 280.519705 151.396488 
L 286.694316 164.405309 
L 305.543129 204.519106 
L 310.742801 214.895657 
L 315.617494 224.121036 
L 319.842228 231.661161 
L 324.066962 238.738973 
L 327.966716 244.839574 
L 331.86647 250.512182 
L 335.441245 255.331868 
L 339.01602 259.788939 
L 342.590794 263.888624 
L 346.165569 267.639719 
L 349.740344 271.054047 
L 353.315119 274.145923 
L 356.889894 276.93163 
L 360.464668 279.428925 
L 364.039443 281.656583 
L 367.614218 283.633969 
L 371.513972 285.528696 
L 375.413726 287.174141 
L 379.63846 288.703996 
L 383.863194 290.000347 
L 388.412907 291.167847 
L 393.2876 292.192139 
L 398.487273 293.066745 
L 398.487273 293.066745 
" clip-path="url(#p8229411773)" style="fill: none; stroke: #7fff00; stroke-width: 0.6; stroke-linecap: square"/>
   </g>
   <g id="line2d_16">
    <path d="M 73.832727 294.165808 
L 80.007338 293.412315 
L 85.53199 292.507781 
L 90.406683 291.483242 
L 94.956396 290.295159 
L 99.18113 288.955824 
L 103.080885 287.486771 
L 106.655659 285.918099 
L 110.230434 284.1126 
L 113.805209 282.045765 
L 117.055004 279.919083 
L 120.304799 277.537116 
L 123.554595 274.881471 
L 126.80439 271.934431 
L 130.054185 268.679344 
L 133.30398 265.10104 
L 136.553776 261.186283 
L 139.803571 256.92424 
L 143.053366 252.30696 
L 146.628141 246.812294 
L 150.202916 240.881619 
L 153.77769 234.520567 
L 157.677445 227.105426 
L 161.577199 219.219936 
L 165.801933 210.19093 
L 170.676626 199.226978 
L 176.526257 185.470446 
L 185.950663 162.606549 
L 193.750172 143.902844 
L 198.624865 132.74536 
L 202.849599 123.623262 
L 206.424373 116.419274 
L 209.674169 110.358619 
L 212.598984 105.355773 
L 215.198821 101.304377 
L 217.798657 97.654564 
L 220.073514 94.810601 
L 222.34837 92.309209 
L 224.623227 90.164107 
L 226.573104 88.618069 
L 228.522981 87.34886 
L 230.472858 86.361691 
L 232.422735 85.660629 
L 234.047633 85.297091 
L 235.672531 85.135317 
L 237.297428 85.175772 
L 238.922326 85.41834 
L 240.547224 85.862323 
L 242.172121 86.506446 
L 244.121998 87.540936 
L 246.071876 88.856675 
L 248.021753 90.448266 
L 249.97163 92.309209 
L 252.246486 94.810601 
L 254.521343 97.654564 
L 257.121179 101.304377 
L 259.721016 105.355773 
L 262.645831 110.358619 
L 265.570647 115.79111 
L 268.820442 122.275314 
L 272.720197 130.588911 
L 277.26991 140.873462 
L 282.794562 153.949025 
L 302.943292 202.201777 
L 307.817985 213.019585 
L 312.367699 222.560543 
L 316.267453 230.254011 
L 320.167207 237.46467 
L 323.741982 243.631227 
L 327.316757 249.364017 
L 330.891532 254.660376 
L 334.141327 259.099242 
L 337.391122 263.186457 
L 340.640917 266.931472 
L 343.890713 270.346381 
L 347.140508 273.445446 
L 350.390303 276.24463 
L 353.640098 278.761171 
L 356.889894 281.013169 
L 360.464668 283.207019 
L 364.039443 285.128236 
L 367.614218 286.80156 
L 371.513972 288.372616 
L 375.413726 289.707416 
L 379.63846 290.919698 
L 384.188174 291.990667 
L 389.062867 292.910179 
L 394.587518 293.718114 
L 398.487273 294.165808 
L 398.487273 294.165808 
" clip-path="url(#p8229411773)" style="fill: none; stroke: #d2691e; stroke-width: 0.6; stroke-linecap: square"/>
   </g>
   <g id="line2d_17">
    <path d="M 73.832727 294.830501 
L 80.657297 294.232303 
L 86.506929 293.500508 
L 91.706601 292.625846 
L 96.256314 291.643125 
L 100.481048 290.51042 
L 104.380803 289.243084 
L 107.955577 287.865669 
L 111.530352 286.254071 
L 114.780147 284.561707 
L 118.029943 282.629799 
L 121.279738 280.435435 
L 124.529533 277.955489 
L 127.779328 275.16701 
L 130.704144 272.375108 
L 133.62896 269.299679 
L 136.553776 265.926274 
L 139.478591 262.241862 
L 142.728387 257.769703 
L 145.978182 252.887504 
L 149.227977 247.586981 
L 152.477772 241.864478 
L 156.052547 235.084425 
L 159.627322 227.806195 
L 163.527076 219.321631 
L 167.42683 210.307325 
L 171.976544 199.194633 
L 177.176216 185.849382 
L 184.000786 167.642308 
L 196.350008 134.597514 
L 201.224701 122.288051 
L 205.124455 113.034894 
L 208.374251 105.841715 
L 211.299066 99.842209 
L 214.223882 94.350527 
L 216.823718 89.937982 
L 219.098575 86.467107 
L 221.373432 83.382148 
L 223.648288 80.701759 
L 225.598165 78.738752 
L 227.548043 77.093906 
L 229.49792 75.774696 
L 231.122817 74.928492 
L 232.747715 74.315322 
L 234.372613 73.937141 
L 235.99751 73.795157 
L 237.622408 73.889823 
L 239.247305 74.220837 
L 240.872203 74.787142 
L 242.497101 75.586931 
L 244.121998 76.61766 
L 246.071876 78.15472 
L 248.021753 80.012591 
L 249.97163 82.182862 
L 252.246486 85.096588 
L 254.521343 88.404494 
L 256.7962 92.086699 
L 259.396036 96.725118 
L 262.320852 102.449232 
L 265.245667 108.656561 
L 268.495463 116.050175 
L 272.395217 125.49983 
L 276.94493 137.135497 
L 283.119541 153.581441 
L 296.443702 189.240012 
L 301.643374 202.429577 
L 306.193088 213.367907 
L 310.417821 222.923842 
L 314.317576 231.175204 
L 317.892351 238.228857 
L 321.467125 244.778507 
L 324.716921 250.289877 
L 327.966716 255.380477 
L 331.216511 260.056357 
L 334.466306 264.327868 
L 337.716102 268.208995 
L 340.965897 271.716709 
L 344.215692 274.870325 
L 347.465487 277.6909 
L 350.715283 280.200673 
L 353.965078 282.422554 
L 357.214873 284.379671 
L 360.464668 286.094971 
L 364.039443 287.729257 
L 367.614218 289.126817 
L 371.513972 290.413406 
L 375.738706 291.564013 
L 380.288419 292.562911 
L 385.163112 293.403855 
L 390.687764 294.126167 
L 396.862375 294.70879 
L 398.487273 294.830501 
L 398.487273 294.830501 
" clip-path="url(#p8229411773)" style="fill: none; stroke: #dc143c; stroke-width: 0.6; stroke-linecap: square"/>
   </g>
   <g id="line2d_18">
    <path d="M 73.832727 295.236931 
L 81.632236 294.739988 
L 87.806847 294.135246 
L 93.331499 293.372258 
L 98.206192 292.471098 
L 102.430925 291.473911 
L 106.33068 290.338537 
L 109.905455 289.085285 
L 113.480229 287.597814 
L 116.730025 286.015118 
L 119.97982 284.186387 
L 123.229615 282.084826 
L 126.154431 279.93742 
L 129.079247 277.526469 
L 132.004062 274.831813 
L 134.928878 271.833744 
L 137.853694 268.513396 
L 140.778509 264.853165 
L 143.703325 260.837168 
L 146.628141 256.451728 
L 149.552957 251.685878 
L 152.802752 245.935037 
L 156.052547 239.699919 
L 159.302342 232.981892 
L 162.877117 225.044911 
L 166.451892 216.557127 
L 170.351646 206.711612 
L 174.57638 195.428858 
L 179.451073 181.752018 
L 185.950663 162.773919 
L 198.299885 126.5453 
L 202.849599 113.963702 
L 206.749353 103.843834 
L 209.999148 96.012434 
L 212.923964 89.518032 
L 215.5238 84.242176 
L 218.123636 79.479889 
L 220.398493 75.765975 
L 222.67335 72.500613 
L 224.623227 70.075273 
L 226.573104 68.007426 
L 228.198002 66.564759 
L 229.822899 65.382504 
L 231.447797 64.46477 
L 233.072695 63.814759 
L 234.697592 63.434744 
L 236.32249 63.326054 
L 237.947387 63.48907 
L 239.572285 63.923221 
L 241.197183 64.626988 
L 242.82208 65.597912 
L 244.446978 66.832607 
L 246.071876 68.326785 
L 248.021753 70.454973 
L 249.97163 72.938777 
L 251.921507 75.765975 
L 254.196364 79.479889 
L 256.47122 83.61794 
L 259.071057 88.831934 
L 261.995872 95.263533 
L 264.920688 102.230079 
L 268.495463 111.368437 
L 272.395217 121.972161 
L 277.26991 135.896005 
L 285.719378 160.849591 
L 293.518886 183.609764 
L 298.718559 198.084516 
L 302.943292 209.227276 
L 306.843047 218.924813 
L 310.417821 227.265352 
L 313.992596 235.047638 
L 317.242391 241.621357 
L 320.492187 247.711023 
L 323.741982 253.317312 
L 326.991777 258.447193 
L 329.916593 262.66691 
L 332.841409 266.522957 
L 335.766224 270.030055 
L 338.69104 273.204909 
L 341.615856 276.06574 
L 344.540672 278.631836 
L 347.465487 280.923153 
L 350.715283 283.171418 
L 353.965078 285.13316 
L 357.214873 286.835583 
L 360.789648 288.440094 
L 364.364423 289.795934 
L 368.264177 291.02799 
L 372.488911 292.113651 
L 377.038624 293.040526 
L 381.913317 293.806266 
L 387.437969 294.449813 
L 393.937559 294.977294 
L 398.487273 295.236931 
L 398.487273 295.236931 
" clip-path="url(#p8229411773)" style="fill: none; stroke: #006400; stroke-width: 0.6; stroke-linecap: square"/>
   </g>
   <g id="line2d_19">
    <path d="M 73.832727 295.488 
L 82.607174 295.079525 
L 89.431744 294.545073 
L 94.956396 293.905258 
L 99.831089 293.131593 
L 104.380803 292.182211 
L 108.280557 291.152856 
L 111.855332 290.000135 
L 115.430106 288.61366 
L 118.679902 287.120323 
L 121.929697 285.375396 
L 124.854513 283.564691 
L 127.779328 281.502428 
L 130.704144 279.164947 
L 133.62896 276.528357 
L 136.553776 273.568921 
L 139.478591 270.2635 
L 142.403407 266.590048 
L 145.328223 262.528164 
L 148.253038 258.059684 
L 151.177854 253.169308 
L 154.10267 247.845251 
L 157.027486 242.079899 
L 160.277281 235.153175 
L 163.527076 227.682445 
L 167.101851 218.852602 
L 170.676626 209.41298 
L 174.57638 198.476549 
L 178.801114 185.973545 
L 184.000786 169.854602 
L 192.450254 142.771773 
L 199.599803 120.131896 
L 204.149517 106.450305 
L 207.724292 96.354835 
L 210.974087 87.822831 
L 213.898903 80.768089 
L 216.498739 75.060101 
L 218.773595 70.54275 
L 221.048452 66.504154 
L 222.998329 63.445481 
L 224.948206 60.775983 
L 226.898084 58.50993 
L 228.522981 56.938606 
L 230.147879 55.661871 
L 231.772776 54.684544 
L 233.397674 54.010326 
L 234.697592 53.690949 
L 235.99751 53.568 
L 237.297428 53.641777 
L 238.597346 53.912101 
L 239.897265 54.378314 
L 241.522162 55.234778 
L 243.14706 56.392267 
L 244.771957 57.846404 
L 246.396855 59.591714 
L 248.346732 62.061146 
L 250.296609 64.927139 
L 252.246486 68.174437 
L 254.521343 72.421925 
L 256.7962 77.13488 
L 259.396036 83.048655 
L 262.320852 90.310517 
L 265.570647 99.040471 
L 269.145422 109.31283 
L 273.370156 122.145186 
L 279.219787 140.682678 
L 291.569009 180.009475 
L 296.443702 194.696533 
L 300.668436 206.73862 
L 304.56819 217.180475 
L 308.142965 226.124023 
L 311.39276 233.70226 
L 314.642555 240.738398 
L 317.892351 247.226544 
L 320.817166 252.59934 
L 323.741982 257.537392 
L 326.666798 262.052052 
L 329.591613 266.158263 
L 332.516429 269.873903 
L 335.441245 273.219153 
L 338.366061 276.215904 
L 341.290876 278.8872 
L 344.215692 281.256735 
L 347.140508 283.348403 
L 350.065324 285.185905 
L 353.315119 286.957644 
L 356.564914 288.474811 
L 360.139689 289.884267 
L 363.714464 291.056838 
L 367.614218 292.104604 
L 371.838952 293.010622 
L 376.713645 293.814652 
L 382.238296 294.480764 
L 388.412907 294.99533 
L 395.887437 295.391811 
L 398.487273 295.488 
L 398.487273 295.488 
" clip-path="url(#p8229411773)" style="fill: none; stroke: #bdb76b; stroke-width: 0.6; stroke-linecap: square"/>
   </g>
   <g id="patch_3">
    <path d="M 57.6 307.584 
L 57.6 41.472 
" style="fill: none; stroke: #000000; stroke-width: 0.8; stroke-linejoin: miter; stroke-linecap: square"/>
   </g>
   <g id="patch_4">
    <path d="M 414.72 307.584 
L 414.72 41.472 
" style="fill: none; stroke: #000000; stroke-width: 0.8; stroke-linejoin: miter; stroke-linecap: square"/>
   </g>
   <g id="patch_5">
    <path d="M 57.6 307.584 
L 414.72 307.584 
" style="fill: none; stroke: #000000; stroke-width: 0.8; stroke-linejoin: miter; stroke-linecap: square"/>
   </g>
   <g id="patch_6">
    <path d="M 57.6 41.472 
L 414.72 41.472 
" style="fill: none; stroke: #000000; stroke-width: 0.8; stroke-linejoin: miter; stroke-linecap: square"/>
   </g>
   <g id="text_14">
    <!-- T(x)概率密度函数(X~N(30,100)) -->
    <g transform="translate(153.095625 35.472) scale(0.12 -0.12)">
     <defs>
      <path id="SimSun-5bc6" d="M 1050 4650 
L 1075 4375 
L 3075 4375 
Q 3050 4775 2775 5175 
L 2825 5225 
Q 3325 4975 3375 4862 
Q 3425 4750 3425 4675 
Q 3425 4525 3275 4375 
L 5325 4375 
L 5575 4625 
L 6000 4150 
Q 5650 4200 5100 3575 
L 5025 3625 
L 5350 4225 
L 1075 4225 
Q 1075 3850 1025 3725 
Q 975 3600 850 3562 
Q 725 3525 650 3525 
Q 575 3525 525 3550 
Q 475 3575 475 3600 
Q 475 3675 625 3850 
Q 850 4100 950 4650 
L 1050 4650 
z
M 1500 3275 
Q 1475 2600 1387 2462 
Q 1300 2325 1162 2275 
Q 1025 2225 887 2275 
Q 750 2325 750 2375 
Q 750 2425 925 2575 
Q 1175 2775 1400 3300 
L 1500 3275 
z
M 2050 2700 
Q 2050 3225 2025 3625 
L 2625 3375 
L 2375 3200 
L 2375 2350 
Q 2800 2575 3350 3012 
Q 3900 3450 4325 4000 
L 4700 3550 
L 4450 3500 
Q 3900 3025 3462 2712 
Q 3025 2400 2425 2100 
Q 2400 2050 2800 2050 
L 4025 2050 
Q 4175 2075 4225 2237 
Q 4275 2400 4300 2825 
L 4400 2825 
Q 4400 2500 4437 2325 
Q 4475 2150 4700 2050 
Q 4550 1750 3950 1775 
L 2575 1775 
Q 2400 1775 2262 1775 
Q 2125 1775 2075 1950 
Q 1350 1700 300 1550 
L 275 1625 
Q 1175 1825 2050 2200 
L 2050 2700 
z
M 2600 4050 
L 2650 4100 
Q 3200 3775 3237 3662 
Q 3275 3550 3275 3500 
Q 3275 3350 3175 3237 
Q 3075 3125 3025 3125 
Q 2950 3125 2900 3375 
Q 2825 3725 2600 4050 
z
M 4725 3200 
L 4775 3275 
Q 5350 3000 5525 2837 
Q 5700 2675 5712 2525 
Q 5725 2375 5625 2250 
Q 5525 2125 5475 2125 
Q 5400 2125 5325 2350 
Q 5200 2700 4725 3200 
z
M 2975 -50 
Q 2975 1200 2950 1625 
L 3550 1350 
L 3300 1175 
L 3300 -50 
L 4750 -50 
Q 4750 950 4725 1300 
L 5275 1025 
L 5075 850 
Q 5075 75 5100 -400 
L 4750 -500 
L 4750 -200 
L 1575 -200 
L 1400 -375 
L 1075 -75 
L 1250 50 
Q 1250 850 1225 1275 
L 1800 1025 
L 1575 875 
L 1575 -50 
L 2975 -50 
z
" transform="scale(0.015625)"/>
      <path id="SimSun-5ea6" d="M 2550 2025 
Q 2575 2525 2575 3175 
L 1925 3175 
L 1625 3125 
L 1425 3325 
L 2575 3325 
Q 2575 3700 2550 4150 
L 3100 3875 
L 2900 3750 
L 2900 3325 
L 4300 3325 
Q 4300 3750 4275 4125 
L 4850 3875 
L 4625 3725 
L 4625 3325 
L 5100 3325 
L 5425 3650 
L 5900 3175 
L 4625 3175 
Q 4625 2450 4650 2225 
L 4300 2075 
L 4300 2300 
L 2900 2300 
L 2900 2175 
L 2550 2025 
z
M 4875 1500 
Q 4300 775 3900 425 
Q 4700 -75 6025 -125 
L 6025 -225 
Q 5625 -300 5550 -550 
Q 4375 -325 3675 225 
Q 2475 -450 1075 -625 
L 1050 -525 
Q 2375 -275 3450 450 
Q 2975 925 2575 1625 
L 2325 1625 
L 2100 1575 
L 1900 1775 
L 4525 1775 
L 4750 2000 
L 5125 1625 
L 4875 1500 
z
M 2700 1625 
Q 3175 975 3650 625 
Q 4150 1100 4500 1625 
L 2700 1625 
z
M 2900 3175 
L 2900 2450 
L 4300 2450 
L 4300 3175 
L 2900 3175 
z
M 975 4650 
L 1400 4400 
L 3375 4400 
Q 3350 4550 3262 4725 
Q 3175 4900 2900 5225 
L 2975 5275 
Q 3550 5025 3637 4887 
Q 3725 4750 3725 4725 
Q 3725 4575 3525 4400 
L 5150 4400 
L 5500 4750 
L 6000 4250 
L 1375 4250 
Q 1400 2750 1287 1912 
Q 1175 1075 925 475 
Q 675 -125 300 -625 
L 225 -575 
Q 725 300 862 1250 
Q 1000 2200 1012 3187 
Q 1025 4175 975 4650 
z
" transform="scale(0.015625)"/>
      <path id="SimSun-51fd" d="M 3050 2275 
L 3050 3000 
Q 3050 3450 3025 3800 
L 3275 3625 
L 4450 4475 
L 1650 4475 
Q 1325 4475 1050 4400 
L 825 4625 
L 4450 4625 
L 4775 4875 
L 5150 4375 
Q 4875 4325 4550 4175 
Q 4225 4025 3400 3550 
L 3550 3450 
L 3375 3325 
L 3375 2400 
Q 4250 3225 4475 3600 
L 4875 3150 
L 4625 3125 
Q 3625 2425 3400 2275 
Q 4575 1675 4687 1487 
Q 4800 1300 4800 1150 
Q 4800 1025 4750 925 
Q 4700 825 4675 825 
Q 4575 825 4375 1150 
Q 4075 1600 3375 2150 
L 3375 725 
Q 3375 350 2875 150 
Q 2850 450 2200 650 
L 2200 750 
Q 2800 675 2925 700 
Q 3050 725 3050 850 
L 3050 2100 
Q 1850 1300 1625 1025 
L 1275 1400 
Q 1575 1475 2087 1725 
Q 2600 1975 3050 2275 
z
M 1700 3475 
L 1775 3550 
Q 2350 3200 2475 3025 
Q 2600 2850 2600 2775 
Q 2600 2650 2500 2525 
Q 2400 2400 2350 2400 
Q 2275 2400 2225 2575 
Q 2150 2875 1700 3475 
z
M 5150 0 
L 5150 2175 
Q 5150 2725 5125 3325 
L 5725 3050 
L 5500 2850 
L 5500 525 
Q 5500 100 5525 -400 
L 5150 -600 
L 5150 -150 
L 1250 -150 
L 1000 -375 
L 675 -50 
L 875 125 
L 875 2375 
Q 875 2800 850 3425 
L 1450 3150 
L 1225 2975 
L 1225 0 
L 5150 0 
z
" transform="scale(0.015625)"/>
      <path id="SimSun-6570" d="M 1875 1525 
Q 1675 1200 1500 900 
Q 1825 825 2275 725 
Q 2500 975 2725 1525 
L 1875 1525 
z
M 850 4900 
Q 1325 4600 1425 4450 
Q 1525 4300 1525 4225 
Q 1525 4100 1437 3975 
Q 1350 3850 1300 3850 
Q 1225 3850 1150 4100 
Q 1050 4450 775 4850 
L 850 4900 
z
M 3000 4975 
L 3450 4675 
Q 3250 4625 3100 4425 
Q 2925 4225 2525 3825 
L 2450 3875 
Q 2925 4625 3000 4975 
z
M 1875 5250 
L 2425 5000 
L 2225 4825 
L 2225 3675 
L 2850 3675 
L 3125 3950 
L 3550 3525 
L 2225 3525 
L 2225 3300 
Q 2800 3175 2937 3062 
Q 3075 2950 3075 2775 
Q 3075 2700 3050 2587 
Q 3025 2475 2975 2475 
Q 2925 2475 2800 2650 
Q 2600 2925 2225 3175 
L 2225 2400 
L 1925 2200 
L 2275 2050 
Q 2150 2000 1950 1675 
L 2725 1675 
L 2900 1900 
L 3275 1575 
L 3050 1450 
Q 2800 875 2600 650 
Q 3000 550 3137 437 
Q 3275 325 3275 150 
Q 3275 -25 3200 -25 
Q 3125 -25 3025 75 
Q 2750 275 2400 425 
Q 1525 -275 325 -500 
L 300 -425 
Q 1450 -50 2100 550 
Q 1600 725 1125 800 
Q 1225 950 1525 1525 
L 1200 1525 
Q 875 1525 600 1450 
L 375 1675 
L 1575 1675 
Q 1675 1925 1775 2275 
L 1900 2225 
L 1900 3250 
Q 1225 2475 350 2050 
L 300 2125 
Q 1225 2775 1700 3525 
L 1250 3525 
Q 925 3525 650 3450 
L 425 3675 
L 1900 3675 
Q 1900 4575 1875 5250 
z
M 3925 3525 
Q 4050 2075 4525 1100 
Q 4925 1950 5025 3525 
L 3925 3525 
z
M 4050 5250 
L 4625 4925 
Q 4425 4850 4325 4625 
Q 4225 4400 3950 3675 
L 5375 3675 
L 5675 3975 
L 6125 3525 
L 5400 3525 
Q 5250 1675 4750 775 
Q 5325 75 6100 -100 
L 6100 -200 
Q 5625 -275 5600 -500 
Q 4950 -50 4525 525 
Q 3700 -275 2550 -650 
L 2500 -575 
Q 3650 -50 4325 800 
Q 3850 1975 3825 3375 
Q 3575 2725 3100 2150 
L 3025 2200 
Q 3625 3200 4050 5250 
z
" transform="scale(0.015625)"/>
      <path id="TimesNewRomanPSMT-58" d="M 2613 2347 
L 3522 991 
Q 3900 428 4083 279 
Q 4266 131 4547 116 
L 4547 0 
L 2728 0 
L 2728 116 
Q 2909 119 2997 153 
Q 3063 181 3105 239 
Q 3147 297 3147 356 
Q 3147 428 3119 500 
Q 3097 553 2947 775 
L 2228 1863 
L 1341 725 
Q 1200 544 1172 483 
Q 1144 422 1144 356 
Q 1144 256 1228 190 
Q 1313 125 1550 116 
L 1550 0 
L 47 0 
L 47 116 
Q 206 131 322 181 
Q 516 263 691 400 
Q 866 538 1091 822 
L 2091 2084 
L 1256 3306 
Q 916 3803 678 3958 
Q 441 4113 131 4122 
L 131 4238 
L 2091 4238 
L 2091 4122 
Q 1841 4113 1748 4041 
Q 1656 3969 1656 3881 
Q 1656 3766 1806 3544 
L 2456 2572 
L 3209 3525 
Q 3341 3694 3370 3756 
Q 3400 3819 3400 3884 
Q 3400 3950 3363 4000 
Q 3316 4066 3244 4092 
Q 3172 4119 2947 4122 
L 2947 4238 
L 4450 4238 
L 4450 4122 
Q 4272 4113 4159 4066 
Q 3991 3994 3850 3872 
Q 3709 3750 3453 3422 
L 2613 2347 
z
" transform="scale(0.015625)"/>
      <path id="TimesNewRomanPSMT-7e" d="M 3256 2109 
L 3397 2109 
Q 3384 1703 3165 1473 
Q 2947 1244 2631 1244 
Q 2488 1244 2322 1292 
Q 2156 1341 1466 1622 
Q 984 1822 781 1822 
Q 563 1822 413 1687 
Q 263 1553 200 1250 
L 63 1250 
Q 81 1672 293 1895 
Q 506 2119 794 2119 
Q 931 2119 1075 2075 
Q 1400 1981 1929 1754 
Q 2459 1528 2675 1528 
Q 2909 1528 3068 1678 
Q 3228 1828 3256 2109 
z
" transform="scale(0.015625)"/>
      <path id="TimesNewRomanPSMT-4e" d="M -84 4238 
L 1066 4238 
L 3656 1059 
L 3656 3503 
Q 3656 3894 3569 3991 
Q 3453 4122 3203 4122 
L 3056 4122 
L 3056 4238 
L 4531 4238 
L 4531 4122 
L 4381 4122 
Q 4113 4122 4000 3959 
Q 3931 3859 3931 3503 
L 3931 -69 
L 3819 -69 
L 1025 3344 
L 1025 734 
Q 1025 344 1109 247 
Q 1228 116 1475 116 
L 1625 116 
L 1625 0 
L 150 0 
L 150 116 
L 297 116 
Q 569 116 681 278 
Q 750 378 750 734 
L 750 3681 
Q 566 3897 470 3965 
Q 375 4034 191 4094 
Q 100 4122 -84 4122 
L -84 4238 
z
" transform="scale(0.015625)"/>
      <path id="TimesNewRomanPSMT-2c" d="M 344 -1066 
L 344 -928 
Q 666 -822 842 -598 
Q 1019 -375 1019 -125 
Q 1019 -66 991 -25 
Q 969 3 947 3 
Q 913 3 797 -59 
Q 741 -88 678 -88 
Q 525 -88 434 3 
Q 344 94 344 253 
Q 344 406 461 515 
Q 578 625 747 625 
Q 953 625 1114 445 
Q 1275 266 1275 -31 
Q 1275 -353 1051 -629 
Q 828 -906 344 -1066 
z
" transform="scale(0.015625)"/>
     </defs>
     <use xlink:href="#TimesNewRomanPSMT-54"/>
     <use xlink:href="#TimesNewRomanPSMT-28" x="61.083984"/>
     <use xlink:href="#TimesNewRomanPSMT-78" x="94.384766"/>
     <use xlink:href="#TimesNewRomanPSMT-29" x="144.384766"/>
     <use xlink:href="#SimSun-6982" x="177.685547"/>
     <use xlink:href="#SimSun-7387" x="277.685547"/>
     <use xlink:href="#SimSun-5bc6" x="377.685547"/>
     <use xlink:href="#SimSun-5ea6" x="477.685547"/>
     <use xlink:href="#SimSun-51fd" x="577.685547"/>
     <use xlink:href="#SimSun-6570" x="677.685547"/>
     <use xlink:href="#TimesNewRomanPSMT-28" x="777.685547"/>
     <use xlink:href="#TimesNewRomanPSMT-58" x="810.986328"/>
     <use xlink:href="#TimesNewRomanPSMT-7e" x="883.203125"/>
     <use xlink:href="#TimesNewRomanPSMT-4e" x="937.304688"/>
     <use xlink:href="#TimesNewRomanPSMT-28" x="1009.521484"/>
     <use xlink:href="#TimesNewRomanPSMT-33" x="1042.822266"/>
     <use xlink:href="#TimesNewRomanPSMT-30" x="1092.822266"/>
     <use xlink:href="#TimesNewRomanPSMT-2c" x="1142.822266"/>
     <use xlink:href="#TimesNewRomanPSMT-31" x="1167.822266"/>
     <use xlink:href="#TimesNewRomanPSMT-30" x="1217.822266"/>
     <use xlink:href="#TimesNewRomanPSMT-30" x="1267.822266"/>
     <use xlink:href="#TimesNewRomanPSMT-29" x="1317.822266"/>
     <use xlink:href="#TimesNewRomanPSMT-29" x="1351.123047"/>
    </g>
   </g>
   <g id="legend_1">
    <g id="patch_7">
     <path d="M 349.52 162.5845 
L 407.72 162.5845 
Q 409.72 162.5845 409.72 160.5845 
L 409.72 48.472 
Q 409.72 46.472 407.72 46.472 
L 349.52 46.472 
Q 347.52 46.472 347.52 48.472 
L 347.52 160.5845 
Q 347.52 162.5845 349.52 162.5845 
z
" style="fill: #ffffff; opacity: 0.8; stroke: #cccccc; stroke-linejoin: miter"/>
    </g>
    <g id="line2d_20">
     <path d="M 351.52 53.972 
L 361.52 53.972 
L 371.52 53.972 
" style="fill: none; stroke: #00ffff; stroke-width: 0.6; stroke-linecap: square"/>
    </g>
    <g id="text_15">
     <!-- S=30 -->
     <g transform="translate(379.52 57.472) scale(0.1 -0.1)">
      <defs>
       <path id="TimesNewRomanPSMT-53" d="M 2934 4334 
L 2934 2869 
L 2819 2869 
Q 2763 3291 2617 3541 
Q 2472 3791 2203 3937 
Q 1934 4084 1647 4084 
Q 1322 4084 1109 3886 
Q 897 3688 897 3434 
Q 897 3241 1031 3081 
Q 1225 2847 1953 2456 
Q 2547 2138 2764 1967 
Q 2981 1797 3098 1565 
Q 3216 1334 3216 1081 
Q 3216 600 2842 251 
Q 2469 -97 1881 -97 
Q 1697 -97 1534 -69 
Q 1438 -53 1133 45 
Q 828 144 747 144 
Q 669 144 623 97 
Q 578 50 556 -97 
L 441 -97 
L 441 1356 
L 556 1356 
Q 638 900 775 673 
Q 913 447 1195 297 
Q 1478 147 1816 147 
Q 2206 147 2432 353 
Q 2659 559 2659 841 
Q 2659 997 2573 1156 
Q 2488 1316 2306 1453 
Q 2184 1547 1640 1851 
Q 1097 2156 867 2337 
Q 638 2519 519 2737 
Q 400 2956 400 3219 
Q 400 3675 750 4004 
Q 1100 4334 1641 4334 
Q 1978 4334 2356 4169 
Q 2531 4091 2603 4091 
Q 2684 4091 2736 4139 
Q 2788 4188 2819 4334 
L 2934 4334 
z
" transform="scale(0.015625)"/>
       <path id="TimesNewRomanPSMT-3d" d="M 116 2759 
L 3488 2759 
L 3488 2503 
L 116 2503 
L 116 2759 
z
M 116 1741 
L 3488 1741 
L 3488 1484 
L 116 1484 
L 116 1741 
z
" transform="scale(0.015625)"/>
      </defs>
      <use xlink:href="#TimesNewRomanPSMT-53"/>
      <use xlink:href="#TimesNewRomanPSMT-3d" x="55.615234"/>
      <use xlink:href="#TimesNewRomanPSMT-33" x="112.011719"/>
      <use xlink:href="#TimesNewRomanPSMT-30" x="162.011719"/>
     </g>
    </g>
    <g id="line2d_21">
     <path d="M 351.52 68.111063 
L 361.52 68.111063 
L 371.52 68.111063 
" style="fill: none; stroke: #0000ff; stroke-width: 0.6; stroke-linecap: square"/>
    </g>
    <g id="text_16">
     <!-- S=40 -->
     <g transform="translate(379.52 71.611063) scale(0.1 -0.1)">
      <use xlink:href="#TimesNewRomanPSMT-53"/>
      <use xlink:href="#TimesNewRomanPSMT-3d" x="55.615234"/>
      <use xlink:href="#TimesNewRomanPSMT-34" x="112.011719"/>
      <use xlink:href="#TimesNewRomanPSMT-30" x="162.011719"/>
     </g>
    </g>
    <g id="line2d_22">
     <path d="M 351.52 82.250125 
L 361.52 82.250125 
L 371.52 82.250125 
" style="fill: none; stroke: #8a2be2; stroke-width: 0.6; stroke-linecap: square"/>
    </g>
    <g id="text_17">
     <!-- S=50 -->
     <g transform="translate(379.52 85.750125) scale(0.1 -0.1)">
      <use xlink:href="#TimesNewRomanPSMT-53"/>
      <use xlink:href="#TimesNewRomanPSMT-3d" x="55.615234"/>
      <use xlink:href="#TimesNewRomanPSMT-35" x="112.011719"/>
      <use xlink:href="#TimesNewRomanPSMT-30" x="162.011719"/>
     </g>
    </g>
    <g id="line2d_23">
     <path d="M 351.52 96.389188 
L 361.52 96.389188 
L 371.52 96.389188 
" style="fill: none; stroke: #7fff00; stroke-width: 0.6; stroke-linecap: square"/>
    </g>
    <g id="text_18">
     <!-- S=60 -->
     <g transform="translate(379.52 99.889188) scale(0.1 -0.1)">
      <use xlink:href="#TimesNewRomanPSMT-53"/>
      <use xlink:href="#TimesNewRomanPSMT-3d" x="55.615234"/>
      <use xlink:href="#TimesNewRomanPSMT-36" x="112.011719"/>
      <use xlink:href="#TimesNewRomanPSMT-30" x="162.011719"/>
     </g>
    </g>
    <g id="line2d_24">
     <path d="M 351.52 110.52825 
L 361.52 110.52825 
L 371.52 110.52825 
" style="fill: none; stroke: #d2691e; stroke-width: 0.6; stroke-linecap: square"/>
    </g>
    <g id="text_19">
     <!-- S=70 -->
     <g transform="translate(379.52 114.02825) scale(0.1 -0.1)">
      <defs>
       <path id="TimesNewRomanPSMT-37" d="M 644 4238 
L 2916 4238 
L 2916 4119 
L 1503 -88 
L 1153 -88 
L 2419 3728 
L 1253 3728 
Q 900 3728 750 3644 
Q 488 3500 328 3200 
L 238 3234 
L 644 4238 
z
" transform="scale(0.015625)"/>
      </defs>
      <use xlink:href="#TimesNewRomanPSMT-53"/>
      <use xlink:href="#TimesNewRomanPSMT-3d" x="55.615234"/>
      <use xlink:href="#TimesNewRomanPSMT-37" x="112.011719"/>
      <use xlink:href="#TimesNewRomanPSMT-30" x="162.011719"/>
     </g>
    </g>
    <g id="line2d_25">
     <path d="M 351.52 124.667313 
L 361.52 124.667313 
L 371.52 124.667313 
" style="fill: none; stroke: #dc143c; stroke-width: 0.6; stroke-linecap: square"/>
    </g>
    <g id="text_20">
     <!-- S=80 -->
     <g transform="translate(379.52 128.167313) scale(0.1 -0.1)">
      <use xlink:href="#TimesNewRomanPSMT-53"/>
      <use xlink:href="#TimesNewRomanPSMT-3d" x="55.615234"/>
      <use xlink:href="#TimesNewRomanPSMT-38" x="112.011719"/>
      <use xlink:href="#TimesNewRomanPSMT-30" x="162.011719"/>
     </g>
    </g>
    <g id="line2d_26">
     <path d="M 351.52 138.806375 
L 361.52 138.806375 
L 371.52 138.806375 
" style="fill: none; stroke: #006400; stroke-width: 0.6; stroke-linecap: square"/>
    </g>
    <g id="text_21">
     <!-- S=90 -->
     <g transform="translate(379.52 142.306375) scale(0.1 -0.1)">
      <defs>
       <path id="TimesNewRomanPSMT-39" d="M 338 -88 
L 338 28 
Q 744 34 1094 217 
Q 1444 400 1770 856 
Q 2097 1313 2225 1859 
Q 1734 1544 1338 1544 
Q 891 1544 572 1889 
Q 253 2234 253 2806 
Q 253 3363 572 3797 
Q 956 4325 1575 4325 
Q 2097 4325 2469 3894 
Q 2925 3359 2925 2575 
Q 2925 1869 2578 1258 
Q 2231 647 1613 244 
Q 1109 -88 516 -88 
L 338 -88 
z
M 2275 2091 
Q 2331 2497 2331 2741 
Q 2331 3044 2228 3395 
Q 2125 3747 1936 3934 
Q 1747 4122 1506 4122 
Q 1228 4122 1018 3872 
Q 809 3622 809 3128 
Q 809 2469 1088 2097 
Q 1291 1828 1588 1828 
Q 1731 1828 1928 1897 
Q 2125 1966 2275 2091 
z
" transform="scale(0.015625)"/>
      </defs>
      <use xlink:href="#TimesNewRomanPSMT-53"/>
      <use xlink:href="#TimesNewRomanPSMT-3d" x="55.615234"/>
      <use xlink:href="#TimesNewRomanPSMT-39" x="112.011719"/>
      <use xlink:href="#TimesNewRomanPSMT-30" x="162.011719"/>
     </g>
    </g>
    <g id="line2d_27">
     <path d="M 351.52 152.945438 
L 361.52 152.945438 
L 371.52 152.945438 
" style="fill: none; stroke: #bdb76b; stroke-width: 0.6; stroke-linecap: square"/>
    </g>
    <g id="text_22">
     <!-- S=100 -->
     <g transform="translate(379.52 156.445438) scale(0.1 -0.1)">
      <use xlink:href="#TimesNewRomanPSMT-53"/>
      <use xlink:href="#TimesNewRomanPSMT-3d" x="55.615234"/>
      <use xlink:href="#TimesNewRomanPSMT-31" x="112.011719"/>
      <use xlink:href="#TimesNewRomanPSMT-30" x="162.011719"/>
      <use xlink:href="#TimesNewRomanPSMT-30" x="212.011719"/>
     </g>
    </g>
   </g>
  </g>
 </g>
 <defs>
  <clipPath id="p8229411773">
   <rect x="57.6" y="41.472" width="357.12" height="266.112"/>
  </clipPath>
 </defs>
</svg>
