<?xml version="1.0" encoding="utf-8" standalone="no"?>
<!DOCTYPE svg PUBLIC "-//W3C//DTD SVG 1.1//EN"
  "http://www.w3.org/Graphics/SVG/1.1/DTD/svg11.dtd">
<svg xmlns:xlink="http://www.w3.org/1999/xlink" width="460.8pt" height="345.6pt" viewBox="0 0 460.8 345.6" xmlns="http://www.w3.org/2000/svg" version="1.1">
 <metadata>
  <rdf:RDF xmlns:dc="http://purl.org/dc/elements/1.1/" xmlns:cc="http://creativecommons.org/ns#" xmlns:rdf="http://www.w3.org/1999/02/22-rdf-syntax-ns#">
   <cc:Work>
    <dc:type rdf:resource="http://purl.org/dc/dcmitype/StillImage"/>
    <dc:date>2022-11-05T20:44:32.961449</dc:date>
    <dc:format>image/svg+xml</dc:format>
    <dc:creator>
     <cc:Agent>
      <dc:title>Matplotlib v3.6.1, https://matplotlib.org/</dc:title>
     </cc:Agent>
    </dc:creator>
   </cc:Work>
  </rdf:RDF>
 </metadata>
 <defs>
  <style type="text/css">*{stroke-linejoin: round; stroke-linecap: butt}</style>
 </defs>
 <g id="figure_1">
  <g id="patch_1">
   <path d="M 0 345.6 
L 460.8 345.6 
L 460.8 0 
L 0 0 
z
" style="fill: #ffffff"/>
  </g>
  <g id="axes_1">
   <g id="patch_2">
    <path d="M 57.6 307.584 
L 414.72 307.584 
L 414.72 41.472 
L 57.6 41.472 
z
" style="fill: #ffffff"/>
   </g>
   <g id="matplotlib.axis_1">
    <g id="xtick_1">
     <g id="line2d_1">
      <defs>
       <path id="m5f5990ef08" d="M 0 0 
L 0 3.5 
" style="stroke: #000000; stroke-width: 0.8"/>
      </defs>
      <g>
       <use xlink:href="#m5f5990ef08" x="73.507096" y="307.584" style="stroke: #000000; stroke-width: 0.8"/>
      </g>
     </g>
     <g id="text_1">
      <!-- 0.0 -->
      <g transform="translate(67.257096 321.52775) scale(0.1 -0.1)">
       <defs>
        <path id="TimesNewRomanPSMT-30" d="M 231 2094 
Q 231 2819 450 3342 
Q 669 3866 1031 4122 
Q 1313 4325 1613 4325 
Q 2100 4325 2488 3828 
Q 2972 3213 2972 2159 
Q 2972 1422 2759 906 
Q 2547 391 2217 158 
Q 1888 -75 1581 -75 
Q 975 -75 572 641 
Q 231 1244 231 2094 
z
M 844 2016 
Q 844 1141 1059 588 
Q 1238 122 1591 122 
Q 1759 122 1940 273 
Q 2122 425 2216 781 
Q 2359 1319 2359 2297 
Q 2359 3022 2209 3506 
Q 2097 3866 1919 4016 
Q 1791 4119 1609 4119 
Q 1397 4119 1231 3928 
Q 1006 3669 925 3112 
Q 844 2556 844 2016 
z
" transform="scale(0.015625)"/>
        <path id="TimesNewRomanPSMT-2e" d="M 800 606 
Q 947 606 1047 504 
Q 1147 403 1147 259 
Q 1147 116 1045 14 
Q 944 -88 800 -88 
Q 656 -88 554 14 
Q 453 116 453 259 
Q 453 406 554 506 
Q 656 606 800 606 
z
" transform="scale(0.015625)"/>
       </defs>
       <use xlink:href="#TimesNewRomanPSMT-30"/>
       <use xlink:href="#TimesNewRomanPSMT-2e" x="50"/>
       <use xlink:href="#TimesNewRomanPSMT-30" x="75"/>
      </g>
     </g>
    </g>
    <g id="xtick_2">
     <g id="line2d_2">
      <g>
       <use xlink:href="#m5f5990ef08" x="138.568257" y="307.584" style="stroke: #000000; stroke-width: 0.8"/>
      </g>
     </g>
     <g id="text_2">
      <!-- 0.2 -->
      <g transform="translate(132.318257 321.52775) scale(0.1 -0.1)">
       <defs>
        <path id="TimesNewRomanPSMT-32" d="M 2934 816 
L 2638 0 
L 138 0 
L 138 116 
Q 1241 1122 1691 1759 
Q 2141 2397 2141 2925 
Q 2141 3328 1894 3587 
Q 1647 3847 1303 3847 
Q 991 3847 742 3664 
Q 494 3481 375 3128 
L 259 3128 
Q 338 3706 661 4015 
Q 984 4325 1469 4325 
Q 1984 4325 2329 3994 
Q 2675 3663 2675 3213 
Q 2675 2891 2525 2569 
Q 2294 2063 1775 1497 
Q 997 647 803 472 
L 1909 472 
Q 2247 472 2383 497 
Q 2519 522 2628 598 
Q 2738 675 2819 816 
L 2934 816 
z
" transform="scale(0.015625)"/>
       </defs>
       <use xlink:href="#TimesNewRomanPSMT-30"/>
       <use xlink:href="#TimesNewRomanPSMT-2e" x="50"/>
       <use xlink:href="#TimesNewRomanPSMT-32" x="75"/>
      </g>
     </g>
    </g>
    <g id="xtick_3">
     <g id="line2d_3">
      <g>
       <use xlink:href="#m5f5990ef08" x="203.629419" y="307.584" style="stroke: #000000; stroke-width: 0.8"/>
      </g>
     </g>
     <g id="text_3">
      <!-- 0.4 -->
      <g transform="translate(197.379419 321.52775) scale(0.1 -0.1)">
       <defs>
        <path id="TimesNewRomanPSMT-34" d="M 2978 1563 
L 2978 1119 
L 2409 1119 
L 2409 0 
L 1894 0 
L 1894 1119 
L 100 1119 
L 100 1519 
L 2066 4325 
L 2409 4325 
L 2409 1563 
L 2978 1563 
z
M 1894 1563 
L 1894 3666 
L 406 1563 
L 1894 1563 
z
" transform="scale(0.015625)"/>
       </defs>
       <use xlink:href="#TimesNewRomanPSMT-30"/>
       <use xlink:href="#TimesNewRomanPSMT-2e" x="50"/>
       <use xlink:href="#TimesNewRomanPSMT-34" x="75"/>
      </g>
     </g>
    </g>
    <g id="xtick_4">
     <g id="line2d_4">
      <g>
       <use xlink:href="#m5f5990ef08" x="268.690581" y="307.584" style="stroke: #000000; stroke-width: 0.8"/>
      </g>
     </g>
     <g id="text_4">
      <!-- 0.6 -->
      <g transform="translate(262.440581 321.52775) scale(0.1 -0.1)">
       <defs>
        <path id="TimesNewRomanPSMT-36" d="M 2869 4325 
L 2869 4209 
Q 2456 4169 2195 4045 
Q 1934 3922 1679 3669 
Q 1425 3416 1258 3105 
Q 1091 2794 978 2366 
Q 1428 2675 1881 2675 
Q 2316 2675 2634 2325 
Q 2953 1975 2953 1425 
Q 2953 894 2631 456 
Q 2244 -75 1606 -75 
Q 1172 -75 869 213 
Q 275 772 275 1663 
Q 275 2231 503 2743 
Q 731 3256 1154 3653 
Q 1578 4050 1965 4187 
Q 2353 4325 2688 4325 
L 2869 4325 
z
M 925 2138 
Q 869 1716 869 1456 
Q 869 1156 980 804 
Q 1091 453 1309 247 
Q 1469 100 1697 100 
Q 1969 100 2183 356 
Q 2397 613 2397 1088 
Q 2397 1622 2184 2012 
Q 1972 2403 1581 2403 
Q 1463 2403 1327 2353 
Q 1191 2303 925 2138 
z
" transform="scale(0.015625)"/>
       </defs>
       <use xlink:href="#TimesNewRomanPSMT-30"/>
       <use xlink:href="#TimesNewRomanPSMT-2e" x="50"/>
       <use xlink:href="#TimesNewRomanPSMT-36" x="75"/>
      </g>
     </g>
    </g>
    <g id="xtick_5">
     <g id="line2d_5">
      <g>
       <use xlink:href="#m5f5990ef08" x="333.751743" y="307.584" style="stroke: #000000; stroke-width: 0.8"/>
      </g>
     </g>
     <g id="text_5">
      <!-- 0.8 -->
      <g transform="translate(327.501743 321.52775) scale(0.1 -0.1)">
       <defs>
        <path id="TimesNewRomanPSMT-38" d="M 1228 2134 
Q 725 2547 579 2797 
Q 434 3047 434 3316 
Q 434 3728 753 4026 
Q 1072 4325 1600 4325 
Q 2113 4325 2425 4047 
Q 2738 3769 2738 3413 
Q 2738 3175 2569 2928 
Q 2400 2681 1866 2347 
Q 2416 1922 2594 1678 
Q 2831 1359 2831 1006 
Q 2831 559 2490 242 
Q 2150 -75 1597 -75 
Q 994 -75 656 303 
Q 388 606 388 966 
Q 388 1247 577 1523 
Q 766 1800 1228 2134 
z
M 1719 2469 
Q 2094 2806 2194 3001 
Q 2294 3197 2294 3444 
Q 2294 3772 2109 3958 
Q 1925 4144 1606 4144 
Q 1288 4144 1088 3959 
Q 888 3775 888 3528 
Q 888 3366 970 3203 
Q 1053 3041 1206 2894 
L 1719 2469 
z
M 1375 2016 
Q 1116 1797 991 1539 
Q 866 1281 866 981 
Q 866 578 1086 336 
Q 1306 94 1647 94 
Q 1984 94 2187 284 
Q 2391 475 2391 747 
Q 2391 972 2272 1150 
Q 2050 1481 1375 2016 
z
" transform="scale(0.015625)"/>
       </defs>
       <use xlink:href="#TimesNewRomanPSMT-30"/>
       <use xlink:href="#TimesNewRomanPSMT-2e" x="50"/>
       <use xlink:href="#TimesNewRomanPSMT-38" x="75"/>
      </g>
     </g>
    </g>
    <g id="xtick_6">
     <g id="line2d_6">
      <g>
       <use xlink:href="#m5f5990ef08" x="398.812904" y="307.584" style="stroke: #000000; stroke-width: 0.8"/>
      </g>
     </g>
     <g id="text_6">
      <!-- 1.0 -->
      <g transform="translate(392.562904 321.52775) scale(0.1 -0.1)">
       <defs>
        <path id="TimesNewRomanPSMT-31" d="M 750 3822 
L 1781 4325 
L 1884 4325 
L 1884 747 
Q 1884 391 1914 303 
Q 1944 216 2037 169 
Q 2131 122 2419 116 
L 2419 0 
L 825 0 
L 825 116 
Q 1125 122 1212 167 
Q 1300 213 1334 289 
Q 1369 366 1369 747 
L 1369 3034 
Q 1369 3497 1338 3628 
Q 1316 3728 1258 3775 
Q 1200 3822 1119 3822 
Q 1003 3822 797 3725 
L 750 3822 
z
" transform="scale(0.015625)"/>
       </defs>
       <use xlink:href="#TimesNewRomanPSMT-31"/>
       <use xlink:href="#TimesNewRomanPSMT-2e" x="50"/>
       <use xlink:href="#TimesNewRomanPSMT-30" x="75"/>
      </g>
     </g>
    </g>
    <g id="text_7">
     <!-- 概率 -->
     <g transform="translate(226.16 334.785562) scale(0.1 -0.1)">
      <defs>
       <path id="SimSun-6982" d="M 2700 4500 
L 2700 3450 
L 3375 3450 
L 3375 4500 
L 2700 4500 
z
M 2700 3300 
L 2700 2300 
L 3375 2300 
L 3375 3300 
L 2700 3300 
z
M 2700 725 
L 3425 1200 
Q 3350 1375 3025 1775 
L 3050 1850 
Q 3550 1525 3712 1337 
Q 3875 1150 3875 1000 
Q 3875 875 3800 750 
Q 3725 625 3700 625 
Q 3650 625 3625 725 
Q 3550 900 3475 1100 
Q 2900 600 2575 150 
L 2325 475 
Q 2400 625 2400 950 
L 2400 3475 
Q 2400 3975 2375 4825 
L 2700 4650 
L 3350 4650 
L 3550 4850 
L 3875 4525 
L 3650 4400 
Q 3650 2825 3675 2150 
L 3375 1975 
L 3375 2150 
L 2700 2150 
L 2700 725 
z
M 5025 2400 
L 4950 2075 
L 5350 1850 
L 5175 1675 
L 5175 100 
Q 5175 -125 5350 -125 
L 5525 -125 
Q 5750 -125 5762 162 
Q 5775 450 5775 825 
L 5900 825 
Q 5900 450 5962 225 
Q 6025 0 6150 -75 
Q 6075 -250 5950 -325 
Q 5825 -400 5625 -400 
L 5225 -400 
Q 4875 -400 4875 0 
L 4875 1825 
Q 4350 75 2650 -650 
L 2625 -575 
Q 4275 350 4700 2400 
L 4225 2400 
L 4050 2250 
L 3775 2550 
Q 3925 2625 4012 2975 
Q 4100 3325 4225 4075 
L 4600 3850 
Q 4475 3800 4425 3575 
Q 4375 3325 4200 2550 
L 4725 2550 
Q 4800 3100 4850 4500 
L 4425 4500 
L 4200 4450 
L 4000 4650 
L 5400 4650 
L 5650 4900 
L 6050 4500 
L 5175 4500 
Q 5100 3100 5050 2550 
L 5400 2550 
L 5675 2825 
L 6100 2400 
L 5025 2400 
z
M 1550 775 
Q 1550 425 1575 -450 
L 1225 -625 
Q 1250 850 1250 2400 
Q 925 1525 300 750 
L 250 825 
Q 575 1400 825 2062 
Q 1075 2725 1225 3575 
L 775 3575 
L 550 3525 
L 350 3725 
L 1250 3725 
Q 1250 4400 1225 5275 
L 1750 5000 
L 1550 4850 
L 1550 3725 
L 1675 3725 
L 1925 3975 
L 2325 3575 
L 1550 3575 
L 1550 3000 
Q 2025 2800 2175 2650 
Q 2325 2500 2325 2350 
Q 2325 2250 2262 2100 
Q 2200 1950 2175 1950 
Q 2100 1950 2000 2200 
Q 1850 2550 1550 2850 
L 1550 775 
z
" transform="scale(0.015625)"/>
       <path id="SimSun-7387" d="M 875 3725 
L 925 3800 
Q 1375 3650 1550 3525 
Q 1725 3400 1725 3250 
Q 1725 3175 1662 3025 
Q 1600 2875 1550 2875 
Q 1500 2875 1425 3050 
Q 1275 3325 875 3725 
z
M 550 1850 
Q 875 1925 2000 2575 
L 2050 2500 
Q 1675 2225 1337 1937 
Q 1000 1650 875 1425 
L 550 1850 
z
M 5200 3450 
Q 4800 3150 4275 2800 
L 4225 2875 
Q 4775 3400 5050 3925 
L 5450 3525 
L 5200 3450 
z
M 4325 2500 
L 4350 2575 
Q 5225 2350 5375 2212 
Q 5525 2075 5525 1900 
Q 5525 1775 5487 1662 
Q 5450 1550 5400 1550 
Q 5325 1550 5200 1800 
Q 4975 2150 4325 2500 
z
M 3150 3900 
Q 2500 3300 2300 3150 
Q 2800 3150 3400 3175 
Q 3700 3500 3850 3825 
L 4250 3450 
Q 4050 3400 3450 2825 
Q 2850 2250 2475 1950 
Q 3150 1975 3850 2000 
Q 3750 2175 3550 2450 
L 3600 2500 
Q 4050 2250 4200 2100 
Q 4350 1950 4350 1850 
Q 4350 1775 4250 1625 
Q 4150 1475 4100 1475 
Q 4075 1475 4050 1550 
Q 4000 1700 3900 1900 
Q 3650 1875 3075 1800 
L 3500 1550 
L 3325 1425 
L 3325 975 
L 5325 975 
L 5650 1300 
L 6100 825 
L 3325 825 
Q 3325 -275 3350 -525 
L 2975 -650 
Q 3000 0 3000 825 
L 1125 825 
Q 800 825 525 750 
L 300 975 
L 3000 975 
L 3000 1775 
Q 2450 1700 2200 1525 
L 1950 1950 
Q 2275 1950 2675 2350 
Q 3075 2750 3325 3050 
Q 2400 2950 2150 2775 
L 1950 3175 
Q 2150 3150 2475 3575 
Q 2800 4000 2900 4225 
L 1450 4225 
Q 1125 4225 850 4150 
L 625 4375 
L 3100 4375 
Q 3050 4800 2675 5200 
L 2725 5250 
Q 3225 5050 3337 4912 
Q 3450 4775 3450 4700 
Q 3450 4550 3250 4375 
L 5025 4375 
L 5350 4675 
L 5775 4225 
L 3050 4225 
L 3375 3950 
L 3150 3900 
z
" transform="scale(0.015625)"/>
      </defs>
      <use xlink:href="#SimSun-6982"/>
      <use xlink:href="#SimSun-7387" x="100"/>
     </g>
    </g>
   </g>
   <g id="matplotlib.axis_2">
    <g id="ytick_1">
     <g id="line2d_7">
      <defs>
       <path id="m9627c0abea" d="M 0 0 
L -3.5 0 
" style="stroke: #000000; stroke-width: 0.8"/>
      </defs>
      <g>
       <use xlink:href="#m9627c0abea" x="57.6" y="278.344687" style="stroke: #000000; stroke-width: 0.8"/>
      </g>
     </g>
     <g id="text_8">
      <!-- 24 -->
      <g transform="translate(40.6 281.816562) scale(0.1 -0.1)">
       <use xlink:href="#TimesNewRomanPSMT-32"/>
       <use xlink:href="#TimesNewRomanPSMT-34" x="50"/>
      </g>
     </g>
    </g>
    <g id="ytick_2">
     <g id="line2d_8">
      <g>
       <use xlink:href="#m9627c0abea" x="57.6" y="243.739125" style="stroke: #000000; stroke-width: 0.8"/>
      </g>
     </g>
     <g id="text_9">
      <!-- 26 -->
      <g transform="translate(40.6 247.211) scale(0.1 -0.1)">
       <use xlink:href="#TimesNewRomanPSMT-32"/>
       <use xlink:href="#TimesNewRomanPSMT-36" x="50"/>
      </g>
     </g>
    </g>
    <g id="ytick_3">
     <g id="line2d_9">
      <g>
       <use xlink:href="#m9627c0abea" x="57.6" y="209.133562" style="stroke: #000000; stroke-width: 0.8"/>
      </g>
     </g>
     <g id="text_10">
      <!-- 28 -->
      <g transform="translate(40.6 212.605437) scale(0.1 -0.1)">
       <use xlink:href="#TimesNewRomanPSMT-32"/>
       <use xlink:href="#TimesNewRomanPSMT-38" x="50"/>
      </g>
     </g>
    </g>
    <g id="ytick_4">
     <g id="line2d_10">
      <g>
       <use xlink:href="#m9627c0abea" x="57.6" y="174.528" style="stroke: #000000; stroke-width: 0.8"/>
      </g>
     </g>
     <g id="text_11">
      <!-- 30 -->
      <g transform="translate(40.6 177.999875) scale(0.1 -0.1)">
       <defs>
        <path id="TimesNewRomanPSMT-33" d="M 325 3431 
Q 506 3859 782 4092 
Q 1059 4325 1472 4325 
Q 1981 4325 2253 3994 
Q 2459 3747 2459 3466 
Q 2459 3003 1878 2509 
Q 2269 2356 2469 2072 
Q 2669 1788 2669 1403 
Q 2669 853 2319 450 
Q 1863 -75 997 -75 
Q 569 -75 414 31 
Q 259 138 259 259 
Q 259 350 332 419 
Q 406 488 509 488 
Q 588 488 669 463 
Q 722 447 909 348 
Q 1097 250 1169 231 
Q 1284 197 1416 197 
Q 1734 197 1970 444 
Q 2206 691 2206 1028 
Q 2206 1275 2097 1509 
Q 2016 1684 1919 1775 
Q 1784 1900 1550 2001 
Q 1316 2103 1072 2103 
L 972 2103 
L 972 2197 
Q 1219 2228 1467 2375 
Q 1716 2522 1828 2728 
Q 1941 2934 1941 3181 
Q 1941 3503 1739 3701 
Q 1538 3900 1238 3900 
Q 753 3900 428 3381 
L 325 3431 
z
" transform="scale(0.015625)"/>
       </defs>
       <use xlink:href="#TimesNewRomanPSMT-33"/>
       <use xlink:href="#TimesNewRomanPSMT-30" x="50"/>
      </g>
     </g>
    </g>
    <g id="ytick_5">
     <g id="line2d_11">
      <g>
       <use xlink:href="#m9627c0abea" x="57.6" y="139.922438" style="stroke: #000000; stroke-width: 0.8"/>
      </g>
     </g>
     <g id="text_12">
      <!-- 32 -->
      <g transform="translate(40.6 143.394313) scale(0.1 -0.1)">
       <use xlink:href="#TimesNewRomanPSMT-33"/>
       <use xlink:href="#TimesNewRomanPSMT-32" x="50"/>
      </g>
     </g>
    </g>
    <g id="ytick_6">
     <g id="line2d_12">
      <g>
       <use xlink:href="#m9627c0abea" x="57.6" y="105.316875" style="stroke: #000000; stroke-width: 0.8"/>
      </g>
     </g>
     <g id="text_13">
      <!-- 34 -->
      <g transform="translate(40.6 108.78875) scale(0.1 -0.1)">
       <use xlink:href="#TimesNewRomanPSMT-33"/>
       <use xlink:href="#TimesNewRomanPSMT-34" x="50"/>
      </g>
     </g>
    </g>
    <g id="ytick_7">
     <g id="line2d_13">
      <g>
       <use xlink:href="#m9627c0abea" x="57.6" y="70.711313" style="stroke: #000000; stroke-width: 0.8"/>
      </g>
     </g>
     <g id="text_14">
      <!-- 36 -->
      <g transform="translate(40.6 74.183188) scale(0.1 -0.1)">
       <use xlink:href="#TimesNewRomanPSMT-33"/>
       <use xlink:href="#TimesNewRomanPSMT-36" x="50"/>
      </g>
     </g>
    </g>
    <g id="text_15">
     <!-- T(x)统计量(MB) -->
     <g transform="translate(34.460938 209.522531) rotate(-90) scale(0.1 -0.1)">
      <defs>
       <path id="TimesNewRomanPSMT-54" d="M 3703 4238 
L 3750 3244 
L 3631 3244 
Q 3597 3506 3538 3619 
Q 3441 3800 3280 3886 
Q 3119 3972 2856 3972 
L 2259 3972 
L 2259 734 
Q 2259 344 2344 247 
Q 2463 116 2709 116 
L 2856 116 
L 2856 0 
L 1059 0 
L 1059 116 
L 1209 116 
Q 1478 116 1591 278 
Q 1659 378 1659 734 
L 1659 3972 
L 1150 3972 
Q 853 3972 728 3928 
Q 566 3869 450 3700 
Q 334 3531 313 3244 
L 194 3244 
L 244 4238 
L 3703 4238 
z
" transform="scale(0.015625)"/>
       <path id="TimesNewRomanPSMT-28" d="M 1988 -1253 
L 1988 -1369 
Q 1516 -1131 1200 -813 
Q 750 -359 506 256 
Q 263 872 263 1534 
Q 263 2503 741 3301 
Q 1219 4100 1988 4444 
L 1988 4313 
Q 1603 4100 1356 3731 
Q 1109 3363 987 2797 
Q 866 2231 866 1616 
Q 866 947 969 400 
Q 1050 -31 1165 -292 
Q 1281 -553 1476 -793 
Q 1672 -1034 1988 -1253 
z
" transform="scale(0.015625)"/>
       <path id="TimesNewRomanPSMT-78" d="M 84 2863 
L 1431 2863 
L 1431 2747 
Q 1303 2747 1251 2703 
Q 1200 2659 1200 2588 
Q 1200 2513 1309 2356 
Q 1344 2306 1413 2200 
L 1616 1875 
L 1850 2200 
Q 2075 2509 2075 2591 
Q 2075 2656 2022 2701 
Q 1969 2747 1850 2747 
L 1850 2863 
L 2819 2863 
L 2819 2747 
Q 2666 2738 2553 2663 
Q 2400 2556 2134 2200 
L 1744 1678 
L 2456 653 
Q 2719 275 2831 198 
Q 2944 122 3122 113 
L 3122 0 
L 1772 0 
L 1772 113 
Q 1913 113 1991 175 
Q 2050 219 2050 291 
Q 2050 363 1850 653 
L 1431 1266 
L 972 653 
Q 759 369 759 316 
Q 759 241 829 180 
Q 900 119 1041 113 
L 1041 0 
L 106 0 
L 106 113 
Q 219 128 303 191 
Q 422 281 703 653 
L 1303 1450 
L 759 2238 
Q 528 2575 401 2661 
Q 275 2747 84 2747 
L 84 2863 
z
" transform="scale(0.015625)"/>
       <path id="TimesNewRomanPSMT-29" d="M 144 4313 
L 144 4444 
Q 619 4209 934 3891 
Q 1381 3434 1625 2820 
Q 1869 2206 1869 1541 
Q 1869 572 1392 -226 
Q 916 -1025 144 -1369 
L 144 -1253 
Q 528 -1038 776 -670 
Q 1025 -303 1145 264 
Q 1266 831 1266 1447 
Q 1266 2113 1163 2663 
Q 1084 3094 967 3353 
Q 850 3613 656 3853 
Q 463 4094 144 4313 
z
" transform="scale(0.015625)"/>
       <path id="SimSun-7edf" d="M 3675 5150 
L 3725 5225 
Q 4350 4925 4425 4737 
Q 4500 4550 4375 4387 
Q 4250 4225 4200 4225 
Q 4125 4225 4075 4450 
Q 3975 4800 3675 5150 
z
M 2675 2525 
Q 2950 2600 3337 3100 
Q 3725 3600 3900 4050 
L 3350 4050 
Q 3025 4050 2750 3975 
L 2525 4200 
L 5225 4200 
L 5575 4550 
L 6000 4050 
L 4025 4050 
L 4400 3750 
Q 4150 3675 3875 3400 
Q 3600 3125 3100 2525 
L 5175 2625 
Q 4900 2950 4550 3275 
L 4600 3350 
Q 5025 3150 5362 2950 
Q 5700 2750 5737 2650 
Q 5775 2550 5775 2450 
Q 5775 2300 5712 2175 
Q 5650 2050 5600 2050 
Q 5575 2050 5525 2150 
Q 5425 2300 5275 2500 
Q 4525 2425 3862 2337 
Q 3200 2250 2900 2050 
L 2675 2525 
z
M 3500 2275 
L 3875 2350 
L 3850 1775 
Q 3775 550 3325 112 
Q 2875 -325 1950 -600 
L 1925 -525 
Q 2625 -175 2950 150 
Q 3275 475 3387 962 
Q 3500 1450 3500 2275 
z
M 4475 2450 
L 4800 2500 
L 4800 1750 
L 4800 175 
Q 4775 -150 5175 -125 
L 5375 -125 
Q 5625 -125 5650 87 
Q 5675 300 5700 825 
L 5825 825 
Q 5825 425 5875 187 
Q 5925 -50 6100 -75 
Q 5975 -425 5600 -425 
L 4975 -425 
Q 4475 -450 4475 25 
L 4475 2450 
z
M 425 500 
Q 675 525 1212 637 
Q 1750 750 2700 975 
L 2725 875 
Q 2200 700 1550 462 
Q 900 225 675 -25 
L 425 500 
z
M 1000 1825 
Q 1275 1850 2625 2025 
L 2650 1925 
Q 2050 1800 1550 1650 
Q 1050 1500 800 1300 
L 500 1825 
Q 725 1875 1125 2312 
Q 1525 2750 1825 3175 
Q 1450 3100 1175 3037 
Q 900 2975 650 2800 
L 400 3225 
Q 675 3300 1050 3912 
Q 1425 4525 1650 5225 
L 2125 4900 
Q 1925 4775 1675 4400 
Q 1425 4000 825 3225 
Q 1475 3275 1900 3300 
Q 2100 3575 2300 4025 
L 2750 3675 
Q 2525 3575 2100 3050 
Q 1650 2525 1000 1825 
z
" transform="scale(0.015625)"/>
       <path id="SimSun-8ba1" d="M 975 4975 
L 1000 5050 
Q 1550 4800 1762 4625 
Q 1975 4450 1975 4275 
Q 1975 4100 1887 4025 
Q 1800 3950 1775 3950 
Q 1650 3950 1550 4250 
Q 1375 4625 975 4975 
z
M 1650 375 
L 2625 1225 
L 2675 1150 
Q 1800 25 1600 -350 
L 1225 75 
Q 1325 225 1325 550 
L 1325 2800 
L 675 2800 
L 900 2800 
Q 750 2800 475 2725 
L 250 2950 
L 1275 2950 
L 1550 3225 
L 1900 2875 
L 1650 2700 
L 1650 375 
z
M 3850 2925 
Q 3850 4600 3825 5100 
L 4425 4825 
L 4225 4625 
L 4225 2925 
L 5350 2925 
L 5675 3250 
L 6125 2775 
L 4225 2775 
L 4225 500 
Q 4225 0 4250 -425 
L 3825 -600 
Q 3850 175 3850 575 
L 3850 2775 
L 2575 2775 
L 2950 2775 
Q 2650 2775 2375 2700 
L 2150 2925 
L 3850 2925 
z
" transform="scale(0.015625)"/>
       <path id="SimSun-91cf" d="M 1700 2400 
L 1700 1875 
L 3025 1875 
L 3025 2400 
L 1700 2400 
z
M 3350 2400 
L 3350 1875 
L 4625 1875 
L 4625 2400 
L 3350 2400 
z
M 1700 1725 
L 1700 1225 
L 3025 1225 
L 3025 1725 
L 1700 1725 
z
M 3350 1725 
L 3350 1225 
L 4625 1225 
L 4625 1725 
L 3350 1725 
z
M 4950 2325 
Q 4950 1350 4975 1025 
L 4625 875 
L 4625 1075 
L 3350 1075 
L 3350 525 
L 4700 525 
L 5050 825 
L 5450 375 
L 3350 375 
L 3350 -225 
L 5275 -225 
L 5650 125 
L 6075 -375 
L 1175 -375 
Q 850 -375 575 -450 
L 350 -225 
L 3025 -225 
L 3025 375 
L 1725 375 
Q 1400 375 1125 300 
L 900 525 
L 3025 525 
L 3025 1075 
L 1700 1075 
L 1700 925 
L 1350 800 
Q 1375 1300 1375 1787 
Q 1375 2275 1350 2750 
L 1700 2550 
L 4600 2550 
L 4750 2750 
L 5125 2475 
L 4950 2325 
z
M 1775 4800 
L 1775 4375 
L 4550 4375 
L 4550 4800 
L 1775 4800 
z
M 1775 4225 
L 1775 3775 
L 4550 3775 
L 4550 4225 
L 1775 4225 
z
M 4875 4750 
Q 4875 3825 4900 3525 
L 4550 3375 
L 4550 3625 
L 1775 3625 
L 1775 3400 
L 1425 3250 
Q 1450 3650 1450 4262 
Q 1450 4875 1425 5125 
L 1800 4950 
L 4500 4950 
L 4650 5175 
L 5050 4900 
L 4875 4750 
z
M 250 3125 
L 5375 3125 
L 5725 3450 
L 6150 2975 
L 950 2975 
Q 750 2975 475 2900 
L 250 3125 
z
" transform="scale(0.015625)"/>
       <path id="TimesNewRomanPSMT-4d" d="M 2619 0 
L 981 3566 
L 981 734 
Q 981 344 1066 247 
Q 1181 116 1431 116 
L 1581 116 
L 1581 0 
L 106 0 
L 106 116 
L 256 116 
Q 525 116 638 278 
Q 706 378 706 734 
L 706 3503 
Q 706 3784 644 3909 
Q 600 4000 483 4061 
Q 366 4122 106 4122 
L 106 4238 
L 1306 4238 
L 2844 922 
L 4356 4238 
L 5556 4238 
L 5556 4122 
L 5409 4122 
Q 5138 4122 5025 3959 
Q 4956 3859 4956 3503 
L 4956 734 
Q 4956 344 5044 247 
Q 5159 116 5409 116 
L 5556 116 
L 5556 0 
L 3756 0 
L 3756 116 
L 3906 116 
Q 4178 116 4288 278 
Q 4356 378 4356 734 
L 4356 3566 
L 2722 0 
L 2619 0 
z
" transform="scale(0.015625)"/>
       <path id="TimesNewRomanPSMT-42" d="M 2956 2163 
Q 3397 2069 3616 1863 
Q 3919 1575 3919 1159 
Q 3919 844 3719 555 
Q 3519 266 3170 133 
Q 2822 0 2106 0 
L 106 0 
L 106 116 
L 266 116 
Q 531 116 647 284 
Q 719 394 719 750 
L 719 3488 
Q 719 3881 628 3984 
Q 506 4122 266 4122 
L 106 4122 
L 106 4238 
L 1938 4238 
Q 2450 4238 2759 4163 
Q 3228 4050 3475 3764 
Q 3722 3478 3722 3106 
Q 3722 2788 3528 2536 
Q 3334 2284 2956 2163 
z
M 1319 2331 
Q 1434 2309 1582 2298 
Q 1731 2288 1909 2288 
Q 2366 2288 2595 2386 
Q 2825 2484 2947 2687 
Q 3069 2891 3069 3131 
Q 3069 3503 2766 3765 
Q 2463 4028 1881 4028 
Q 1569 4028 1319 3959 
L 1319 2331 
z
M 1319 306 
Q 1681 222 2034 222 
Q 2600 222 2897 476 
Q 3194 731 3194 1106 
Q 3194 1353 3059 1581 
Q 2925 1809 2622 1940 
Q 2319 2072 1872 2072 
Q 1678 2072 1540 2065 
Q 1403 2059 1319 2044 
L 1319 306 
z
" transform="scale(0.015625)"/>
      </defs>
      <use xlink:href="#TimesNewRomanPSMT-54"/>
      <use xlink:href="#TimesNewRomanPSMT-28" x="61.083984"/>
      <use xlink:href="#TimesNewRomanPSMT-78" x="94.384766"/>
      <use xlink:href="#TimesNewRomanPSMT-29" x="144.384766"/>
      <use xlink:href="#SimSun-7edf" x="177.685547"/>
      <use xlink:href="#SimSun-8ba1" x="277.685547"/>
      <use xlink:href="#SimSun-91cf" x="377.685547"/>
      <use xlink:href="#TimesNewRomanPSMT-28" x="477.685547"/>
      <use xlink:href="#TimesNewRomanPSMT-4d" x="510.986328"/>
      <use xlink:href="#TimesNewRomanPSMT-42" x="599.902344"/>
      <use xlink:href="#TimesNewRomanPSMT-29" x="666.601562"/>
     </g>
    </g>
   </g>
   <g id="line2d_14">
    <path d="M 73.832727 295.488 
L 74.158359 287.185467 
L 74.809622 278.3339 
L 75.460884 272.855717 
L 76.437779 267.119055 
L 77.414673 262.871554 
L 78.391567 259.463826 
L 79.694093 255.735148 
L 80.996619 252.624037 
L 82.624776 249.321197 
L 84.252933 246.478207 
L 86.206722 243.502015 
L 88.486142 240.468778 
L 90.765562 237.786532 
L 93.370614 235.04557 
L 96.301297 232.279562 
L 99.557611 229.510489 
L 103.139557 226.751957 
L 107.047134 224.011714 
L 111.605974 221.093575 
L 116.490446 218.229882 
L 122.02618 215.243816 
L 128.213178 212.164548 
L 135.051438 209.011645 
L 142.866593 205.662021 
L 151.658641 202.146996 
L 161.427585 198.485464 
L 172.824685 194.461454 
L 185.849943 190.105075 
L 201.805883 185.014699 
L 222.971927 178.512937 
L 275.398588 162.505687 
L 291.354529 157.34266 
L 304.379787 152.898142 
L 315.451256 148.889795 
L 325.220199 145.11599 
L 333.686616 141.609499 
L 341.176139 138.271482 
L 347.688768 135.138428 
L 353.550134 132.085606 
L 358.760237 129.137093 
L 363.644709 126.117452 
L 367.877917 123.245494 
L 371.785495 120.324716 
L 375.367441 117.353385 
L 378.298123 114.651223 
L 380.903175 111.983774 
L 383.508226 108.989566 
L 385.787647 106.013032 
L 387.741435 103.103108 
L 389.369592 100.335322 
L 390.99775 97.137686 
L 392.300275 94.147195 
L 393.602801 90.597588 
L 394.579695 87.394918 
L 395.55659 83.474429 
L 396.533484 78.348925 
L 397.184747 73.706964 
L 397.83601 66.974949 
L 398.161641 61.870533 
L 398.487273 53.568 
L 398.487273 53.568 
" clip-path="url(#p0f90e05ca6)" style="fill: none; stroke: #00ffff; stroke-width: 0.6; stroke-linecap: square"/>
   </g>
   <g id="line2d_15">
    <path d="M 73.832727 282.31589 
L 74.158359 274.917473 
L 74.809622 267.029811 
L 75.460884 262.148182 
L 76.437779 257.036221 
L 77.414673 253.251258 
L 78.717199 249.318691 
L 80.019725 246.155624 
L 81.647882 242.883561 
L 83.276039 240.121358 
L 85.229828 237.271726 
L 87.509248 234.402644 
L 89.788668 231.889403 
L 92.393719 229.340042 
L 95.324402 226.783431 
L 98.580717 224.237419 
L 102.162663 221.712276 
L 106.395871 219.015071 
L 110.954711 216.380091 
L 116.164814 213.634551 
L 122.02618 210.81001 
L 128.538809 207.927376 
L 135.702701 204.999303 
L 143.843487 201.91284 
L 153.286799 198.581212 
L 164.032636 195.038263 
L 176.406631 191.203195 
L 191.060046 186.905459 
L 209.295406 181.801386 
L 237.950973 174.046583 
L 270.839748 165.092508 
L 288.423846 160.076903 
L 302.425998 155.862415 
L 314.14873 152.113814 
L 324.568936 148.550418 
L 333.360985 145.31867 
L 341.176139 142.219687 
L 348.0144 139.282295 
L 354.201397 136.390788 
L 359.737131 133.561235 
L 364.621603 130.819351 
L 368.854812 128.203295 
L 372.762389 125.532907 
L 376.344335 122.804069 
L 379.275018 120.309567 
L 381.880069 117.832668 
L 384.485121 115.031658 
L 386.764541 112.220563 
L 388.71833 109.440466 
L 390.346487 106.759633 
L 391.974644 103.606135 
L 393.27717 100.586459 
L 394.579695 96.883397 
L 395.55659 93.389836 
L 396.533484 88.822481 
L 397.184747 84.686013 
L 397.83601 78.68709 
L 398.161641 74.138527 
L 398.487273 66.74011 
L 398.487273 66.74011 
" clip-path="url(#p0f90e05ca6)" style="fill: none; stroke: #0000ff; stroke-width: 0.6; stroke-linecap: square"/>
   </g>
   <g id="line2d_16">
    <path d="M 73.832727 273.165309 
L 74.158359 266.394976 
L 74.809622 259.176931 
L 75.460884 254.709725 
L 76.437779 250.031741 
L 77.414673 246.5681 
L 78.717199 242.969386 
L 80.019725 240.074844 
L 81.647882 237.080561 
L 83.276039 234.552854 
L 85.229828 231.945139 
L 87.509248 229.319626 
L 89.788668 227.019745 
L 92.393719 224.686811 
L 95.324402 222.347241 
L 98.580717 220.017371 
L 102.488294 217.507497 
L 106.721503 215.058391 
L 111.605974 212.500082 
L 117.141709 209.867692 
L 123.328706 207.184442 
L 130.166966 204.464502 
L 137.982121 201.600349 
L 146.77417 198.61849 
L 156.868744 195.434776 
L 168.591476 191.979841 
L 182.267997 188.189902 
L 198.8752 183.82905 
L 221.018138 178.261002 
L 278.980534 163.796486 
L 295.587738 159.358166 
L 308.938627 155.568185 
L 320.335727 152.108597 
L 330.10467 148.919248 
L 338.571088 145.932801 
L 346.060611 143.065217 
L 352.57324 140.347553 
L 358.434606 137.670241 
L 363.644709 135.051427 
L 368.203549 132.519823 
L 372.436758 129.906082 
L 376.018703 127.434261 
L 379.275018 124.912405 
L 382.205701 122.343396 
L 384.810752 119.736374 
L 387.090172 117.110861 
L 389.043961 114.503146 
L 390.672118 111.975439 
L 392.300275 108.981156 
L 393.602801 106.086614 
L 394.579695 103.474984 
L 395.55659 100.278007 
L 396.533484 96.098394 
L 397.184747 92.313089 
L 397.83601 86.823441 
L 398.161641 82.661024 
L 398.487273 75.890691 
L 398.487273 75.890691 
" clip-path="url(#p0f90e05ca6)" style="fill: none; stroke: #8a2be2; stroke-width: 0.6; stroke-linecap: square"/>
   </g>
   <g id="line2d_17">
    <path d="M 73.832727 266.306776 
L 74.158359 260.007203 
L 74.809622 253.29105 
L 75.460884 249.134461 
L 76.437779 244.781751 
L 77.414673 241.558946 
L 78.717199 238.210461 
L 80.019725 235.517186 
L 81.647882 232.731103 
L 83.276039 230.379155 
L 85.229828 227.952762 
L 87.509248 225.509808 
L 90.114299 223.08406 
L 93.044982 220.693681 
L 96.301297 218.347177 
L 99.883242 216.047229 
L 104.116451 213.615228 
L 108.675291 211.259654 
L 113.885394 208.822934 
L 119.74676 206.331783 
L 126.259389 203.803086 
L 133.748912 201.134893 
L 142.21533 198.356102 
L 151.984273 195.388518 
L 163.381373 192.169485 
L 176.406631 188.726525 
L 192.03694 184.829332 
L 212.226089 180.037207 
L 251.301862 171.054565 
L 277.026746 165.014598 
L 294.610843 160.66278 
L 308.612995 156.97534 
L 320.335727 153.667482 
L 330.430302 150.596937 
L 339.222351 147.69772 
L 347.037505 144.887299 
L 353.875765 142.190228 
L 359.737131 139.645793 
L 364.947234 137.147185 
L 369.506075 134.720706 
L 373.413652 132.406344 
L 376.995598 130.033767 
L 380.251912 127.599002 
L 382.856964 125.395777 
L 385.136384 123.217967 
L 387.415804 120.723199 
L 389.369592 118.234075 
L 390.99775 115.807859 
L 392.300275 113.538814 
L 393.602801 110.845539 
L 394.579695 108.415503 
L 395.55659 105.44082 
L 396.533484 101.551828 
L 397.184747 98.029726 
L 397.83601 92.921789 
L 398.161641 89.048797 
L 398.487273 82.749224 
L 398.487273 82.749224 
" clip-path="url(#p0f90e05ca6)" style="fill: none; stroke: #7fff00; stroke-width: 0.6; stroke-linecap: square"/>
   </g>
   <g id="line2d_18">
    <path d="M 73.832727 260.90461 
L 74.158359 254.975834 
L 74.809622 248.654999 
L 75.460884 244.74307 
L 76.437779 240.646563 
L 77.414673 237.613456 
L 78.717199 234.462064 
L 80.019725 231.927317 
L 81.647882 229.305226 
L 83.276039 227.091715 
L 85.229828 224.808141 
L 87.509248 222.508981 
L 90.114299 220.226014 
L 93.044982 217.976335 
L 96.301297 215.767948 
L 99.883242 213.603377 
L 104.116451 211.314525 
L 109.000923 208.947421 
L 114.536657 206.53263 
L 120.723655 204.089129 
L 127.561915 201.627531 
L 135.377069 199.049287 
L 144.49475 196.282641 
L 154.914956 193.360801 
L 166.963319 190.21944 
L 181.291102 186.72273 
L 198.8752 182.672922 
L 222.646295 177.444127 
L 278.654903 165.204608 
L 296.239001 161.086527 
L 310.241153 157.58902 
L 321.963884 154.443983 
L 332.058459 151.516911 
L 340.850508 148.745013 
L 348.665662 146.048891 
L 355.503923 143.451278 
L 361.365289 140.989523 
L 366.575392 138.5593 
L 371.134232 136.184444 
L 375.041809 133.902758 
L 378.623755 131.543099 
L 381.554438 129.355567 
L 384.159489 127.147823 
L 386.438909 124.939465 
L 388.392698 122.764298 
L 390.020855 120.676976 
L 391.649012 118.237463 
L 392.951538 115.921482 
L 394.254064 113.115629 
L 395.230958 110.513263 
L 396.207853 107.198945 
L 396.859116 104.31293 
L 397.510378 100.401001 
L 397.83601 97.72519 
L 398.161641 94.080166 
L 398.487273 88.15139 
L 398.487273 88.15139 
" clip-path="url(#p0f90e05ca6)" style="fill: none; stroke: #d2691e; stroke-width: 0.6; stroke-linecap: square"/>
   </g>
   <g id="line2d_19">
    <path d="M 73.832727 256.497914 
L 74.158359 250.871608 
L 74.809622 244.873244 
L 75.460884 241.160891 
L 76.437779 237.273377 
L 77.414673 234.39501 
L 78.717199 231.404394 
L 80.019725 228.998963 
L 81.647882 226.510643 
L 83.276039 224.410059 
L 85.229828 222.242987 
L 87.509248 220.061125 
L 90.114299 217.894628 
L 93.044982 215.759722 
L 96.301297 213.664 
L 100.208874 211.43386 
L 104.442083 209.280171 
L 109.326554 207.049855 
L 114.862289 204.772003 
L 121.049286 202.464842 
L 128.213178 200.032833 
L 136.353964 197.506301 
L 145.797275 194.814247 
L 156.543113 191.984589 
L 169.242739 188.87655 
L 184.221785 185.445201 
L 203.108409 181.358833 
L 230.46145 175.693218 
L 274.747326 166.520385 
L 293.633949 162.366867 
L 308.612995 158.851282 
L 320.98699 155.726205 
L 331.407196 152.877146 
L 340.524876 150.162059 
L 348.340031 147.61342 
L 355.178291 145.159889 
L 361.039657 142.836852 
L 366.24976 140.546078 
L 370.8086 138.310402 
L 374.716178 136.16571 
L 378.298123 133.951824 
L 381.228806 131.903942 
L 383.833858 129.842485 
L 386.113278 127.786977 
L 388.067067 125.770127 
L 390.020855 123.424306 
L 391.649012 121.10925 
L 392.951538 118.911424 
L 394.254064 116.248719 
L 395.230958 113.779118 
L 396.207853 110.633887 
L 396.859116 107.895109 
L 397.510378 104.182756 
L 397.83601 101.643457 
L 398.161641 98.184392 
L 398.487273 92.558086 
L 398.487273 92.558086 
" clip-path="url(#p0f90e05ca6)" style="fill: none; stroke: #dc143c; stroke-width: 0.6; stroke-linecap: square"/>
   </g>
   <g id="line2d_20">
    <path d="M 73.832727 252.808386 
L 74.158359 247.435324 
L 74.809622 241.706951 
L 75.460884 238.161694 
L 76.437779 234.44916 
L 77.414673 231.700351 
L 78.717199 228.844345 
L 80.019725 226.547183 
L 81.647882 224.170865 
L 83.276039 222.16483 
L 85.229828 220.0953 
L 87.509248 218.011644 
L 90.114299 215.942663 
L 93.044982 213.90385 
L 96.301297 211.902459 
L 100.208874 209.772699 
L 104.442083 207.71595 
L 109.326554 205.586021 
L 114.862289 203.410697 
L 121.374917 201.096961 
L 128.864441 198.683782 
L 137.330858 196.195827 
L 147.099801 193.562255 
L 158.496902 190.72812 
L 171.847791 187.645694 
L 187.803731 184.197342 
L 208.318512 180.005307 
L 242.509813 173.287959 
L 275.398588 166.747649 
L 294.610843 162.702011 
L 309.58989 159.329215 
L 321.963884 156.326491 
L 332.709722 153.494856 
L 341.827402 150.868335 
L 349.642557 148.395768 
L 356.480817 146.007597 
L 362.342183 143.737777 
L 367.552286 141.489402 
L 372.111126 139.283301 
L 376.018703 137.153541 
L 379.600649 134.93803 
L 382.531332 132.869584 
L 385.136384 130.764405 
L 387.415804 128.636555 
L 389.369592 126.51352 
L 390.99775 124.44414 
L 392.625907 121.974041 
L 393.928433 119.560993 
L 394.905327 117.355649 
L 395.882221 114.60684 
L 396.533484 112.28482 
L 397.184747 109.280732 
L 397.83601 104.924046 
L 398.161641 101.620676 
L 398.487273 96.247614 
L 398.487273 96.247614 
" clip-path="url(#p0f90e05ca6)" style="fill: none; stroke: #006400; stroke-width: 0.6; stroke-linecap: square"/>
   </g>
   <g id="line2d_21">
    <path d="M 73.832727 249.656465 
L 74.158359 244.499748 
L 74.809622 239.002024 
L 75.460884 235.599515 
L 76.437779 232.036464 
L 77.414673 229.398335 
L 78.717199 226.657324 
L 80.019725 224.452657 
L 81.647882 222.17202 
L 83.60167 219.894196 
L 85.555459 217.95646 
L 87.834879 215.997119 
L 90.439931 214.044807 
L 93.370614 212.115568 
L 96.952559 210.039252 
L 100.860137 208.035361 
L 105.418977 205.9529 
L 110.62908 203.824715 
L 116.490446 201.671314 
L 123.328706 199.401229 
L 131.143861 197.046986 
L 140.261541 194.542536 
L 150.681747 191.917755 
L 162.73011 189.114814 
L 177.057894 186.014059 
L 194.641991 182.444046 
L 218.413087 177.863312 
L 284.190637 165.313572 
L 301.449104 161.728737 
L 315.451256 158.604066 
L 327.173987 155.771027 
L 337.268562 153.110148 
L 346.060611 150.563938 
L 353.550134 148.166955 
L 360.062763 145.852109 
L 365.598497 143.65747 
L 370.482969 141.487486 
L 374.716178 139.367539 
L 378.298123 137.33843 
L 381.554438 135.238016 
L 384.159489 133.31777 
L 386.438909 131.396989 
L 388.392698 129.505076 
L 390.346487 127.293256 
L 391.974644 125.095259 
L 393.27717 122.990536 
L 394.579695 120.409492 
L 395.55659 117.97447 
L 396.533484 114.79101 
L 397.184747 111.90788 
L 397.83601 107.726614 
L 398.161641 104.556252 
L 398.487273 99.399535 
L 398.487273 99.399535 
" clip-path="url(#p0f90e05ca6)" style="fill: none; stroke: #bdb76b; stroke-width: 0.6; stroke-linecap: square"/>
   </g>
   <g id="patch_3">
    <path d="M 57.6 307.584 
L 57.6 41.472 
" style="fill: none; stroke: #000000; stroke-width: 0.8; stroke-linejoin: miter; stroke-linecap: square"/>
   </g>
   <g id="patch_4">
    <path d="M 414.72 307.584 
L 414.72 41.472 
" style="fill: none; stroke: #000000; stroke-width: 0.8; stroke-linejoin: miter; stroke-linecap: square"/>
   </g>
   <g id="patch_5">
    <path d="M 57.6 307.584 
L 414.72 307.584 
" style="fill: none; stroke: #000000; stroke-width: 0.8; stroke-linejoin: miter; stroke-linecap: square"/>
   </g>
   <g id="patch_6">
    <path d="M 57.6 41.472 
L 414.72 41.472 
" style="fill: none; stroke: #000000; stroke-width: 0.8; stroke-linejoin: miter; stroke-linecap: square"/>
   </g>
   <g id="text_16">
    <!-- t(α)分位点函数(X~N(30,100)) -->
    <g transform="translate(160.95 35.472) scale(0.12 -0.12)">
     <defs>
      <path id="TimesNewRomanPSMT-74" d="M 1031 3803 
L 1031 2863 
L 1700 2863 
L 1700 2644 
L 1031 2644 
L 1031 788 
Q 1031 509 1111 412 
Q 1191 316 1316 316 
Q 1419 316 1516 380 
Q 1613 444 1666 569 
L 1788 569 
Q 1678 263 1478 108 
Q 1278 -47 1066 -47 
Q 922 -47 784 33 
Q 647 113 581 261 
Q 516 409 516 719 
L 516 2644 
L 63 2644 
L 63 2747 
Q 234 2816 414 2980 
Q 594 3144 734 3369 
Q 806 3488 934 3803 
L 1031 3803 
z
" transform="scale(0.015625)"/>
      <path id="TimesNewRomanPSMT-3b1" d="M 2463 2863 
L 2994 2863 
L 2672 1416 
Q 2578 1003 2544 909 
Q 2669 334 2906 334 
Q 3188 334 3197 722 
L 3309 722 
Q 3300 359 3176 135 
Q 3053 -88 2853 -88 
Q 2688 -88 2606 46 
Q 2525 181 2431 597 
Q 2106 -88 1369 -88 
Q 866 -88 569 304 
Q 272 697 272 1428 
Q 272 2147 597 2547 
Q 922 2947 1378 2947 
Q 1700 2947 1906 2719 
Q 2113 2491 2272 1975 
L 2463 2863 
z
M 2188 1638 
Q 2041 2141 1859 2423 
Q 1678 2706 1425 2706 
Q 853 2706 853 1369 
Q 853 100 1400 100 
Q 1875 100 2103 1219 
L 2188 1638 
z
" transform="scale(0.015625)"/>
      <path id="SimSun-5206" d="M 2350 5050 
L 2850 4675 
L 2625 4550 
Q 2200 3750 1687 3125 
Q 1175 2500 375 2025 
L 325 2100 
Q 975 2625 1475 3337 
Q 1975 4050 2350 5050 
z
M 4100 4975 
L 3900 4850 
Q 4175 3850 4800 3300 
Q 5425 2750 6125 2625 
L 6125 2550 
Q 5750 2500 5600 2225 
Q 4775 2675 4287 3425 
Q 3800 4175 3625 5175 
L 4100 4975 
z
M 1375 2625 
L 4225 2625 
L 4475 2875 
L 4825 2525 
L 4625 2375 
Q 4575 400 4375 -12 
Q 4175 -425 3675 -600 
Q 3600 -200 2975 -25 
L 2975 75 
Q 3600 -25 3787 -12 
Q 3975 0 4075 275 
Q 4175 550 4275 2475 
L 2975 2475 
Q 2825 1400 2375 662 
Q 1925 -75 650 -625 
L 600 -525 
Q 1725 50 2112 837 
Q 2500 1625 2575 2475 
L 1800 2475 
L 1575 2425 
L 1375 2625 
z
" transform="scale(0.015625)"/>
      <path id="SimSun-4f4d" d="M 1250 -600 
Q 1275 150 1275 3100 
Q 750 2225 325 1775 
L 250 1825 
Q 725 2575 1112 3450 
Q 1500 4325 1700 5225 
L 2275 4925 
L 2050 4800 
Q 1650 3900 1475 3500 
L 1800 3275 
L 1600 3125 
Q 1600 125 1625 -400 
L 1250 -600 
z
M 3300 5125 
L 3375 5175 
Q 4100 4625 4112 4375 
Q 4125 4125 4000 4025 
Q 3875 3925 3850 3925 
Q 3725 3925 3700 4200 
Q 3625 4575 3300 5125 
z
M 2025 3725 
L 5050 3725 
L 5400 4075 
L 5900 3575 
L 2825 3575 
Q 2525 3575 2250 3500 
L 2025 3725 
z
M 2600 3000 
L 2675 3050 
Q 3300 2050 3400 1712 
Q 3500 1375 3500 1200 
Q 3500 950 3362 800 
Q 3225 650 3175 650 
Q 3100 650 3100 825 
Q 3075 1125 2975 1675 
Q 2875 2225 2600 3000 
z
M 4725 3325 
L 5325 3000 
Q 5100 2875 4875 2125 
Q 4650 1375 4175 -25 
L 5300 -25 
L 5650 325 
L 6150 -175 
L 2700 -175 
Q 2375 -175 2100 -250 
L 1875 -25 
L 4000 -25 
Q 4300 1000 4500 1962 
Q 4700 2925 4725 3325 
z
" transform="scale(0.015625)"/>
      <path id="SimSun-70b9" d="M 1875 2900 
L 1875 1525 
L 4625 1525 
L 4625 2900 
L 1875 2900 
z
M 1475 925 
Q 1500 1450 1500 2050 
Q 1500 2650 1475 3250 
L 1875 3050 
L 2950 3050 
Q 2950 4725 2925 5225 
L 3500 5000 
L 3300 4800 
L 3300 4200 
L 4925 4200 
L 5250 4525 
L 5700 4050 
L 3300 4050 
L 3300 3050 
L 4575 3050 
L 4825 3300 
L 5200 2925 
L 4975 2750 
Q 4975 1575 5000 1150 
L 4625 1000 
L 4625 1375 
L 1875 1375 
L 1875 1075 
L 1475 925 
z
M 1350 800 
L 1450 800 
Q 1300 -175 1137 -337 
Q 975 -500 850 -500 
Q 775 -500 675 -437 
Q 575 -375 575 -300 
Q 575 -225 700 -125 
Q 925 50 1037 200 
Q 1150 350 1350 800 
z
M 2225 675 
L 2275 750 
Q 2800 350 2862 187 
Q 2925 25 2925 -50 
Q 2925 -225 2812 -337 
Q 2700 -450 2675 -450 
Q 2575 -450 2550 -200 
Q 2500 175 2225 675 
z
M 3550 700 
L 3600 775 
Q 4075 425 4187 225 
Q 4300 25 4300 -50 
Q 4300 -175 4187 -300 
Q 4075 -425 4050 -425 
Q 3950 -425 3900 -125 
Q 3825 300 3550 700 
z
M 4900 775 
L 4950 850 
Q 5450 500 5637 250 
Q 5825 0 5825 -125 
Q 5825 -250 5725 -375 
Q 5625 -500 5600 -500 
Q 5500 -500 5425 -200 
Q 5300 225 4900 775 
z
" transform="scale(0.015625)"/>
      <path id="SimSun-51fd" d="M 3050 2275 
L 3050 3000 
Q 3050 3450 3025 3800 
L 3275 3625 
L 4450 4475 
L 1650 4475 
Q 1325 4475 1050 4400 
L 825 4625 
L 4450 4625 
L 4775 4875 
L 5150 4375 
Q 4875 4325 4550 4175 
Q 4225 4025 3400 3550 
L 3550 3450 
L 3375 3325 
L 3375 2400 
Q 4250 3225 4475 3600 
L 4875 3150 
L 4625 3125 
Q 3625 2425 3400 2275 
Q 4575 1675 4687 1487 
Q 4800 1300 4800 1150 
Q 4800 1025 4750 925 
Q 4700 825 4675 825 
Q 4575 825 4375 1150 
Q 4075 1600 3375 2150 
L 3375 725 
Q 3375 350 2875 150 
Q 2850 450 2200 650 
L 2200 750 
Q 2800 675 2925 700 
Q 3050 725 3050 850 
L 3050 2100 
Q 1850 1300 1625 1025 
L 1275 1400 
Q 1575 1475 2087 1725 
Q 2600 1975 3050 2275 
z
M 1700 3475 
L 1775 3550 
Q 2350 3200 2475 3025 
Q 2600 2850 2600 2775 
Q 2600 2650 2500 2525 
Q 2400 2400 2350 2400 
Q 2275 2400 2225 2575 
Q 2150 2875 1700 3475 
z
M 5150 0 
L 5150 2175 
Q 5150 2725 5125 3325 
L 5725 3050 
L 5500 2850 
L 5500 525 
Q 5500 100 5525 -400 
L 5150 -600 
L 5150 -150 
L 1250 -150 
L 1000 -375 
L 675 -50 
L 875 125 
L 875 2375 
Q 875 2800 850 3425 
L 1450 3150 
L 1225 2975 
L 1225 0 
L 5150 0 
z
" transform="scale(0.015625)"/>
      <path id="SimSun-6570" d="M 1875 1525 
Q 1675 1200 1500 900 
Q 1825 825 2275 725 
Q 2500 975 2725 1525 
L 1875 1525 
z
M 850 4900 
Q 1325 4600 1425 4450 
Q 1525 4300 1525 4225 
Q 1525 4100 1437 3975 
Q 1350 3850 1300 3850 
Q 1225 3850 1150 4100 
Q 1050 4450 775 4850 
L 850 4900 
z
M 3000 4975 
L 3450 4675 
Q 3250 4625 3100 4425 
Q 2925 4225 2525 3825 
L 2450 3875 
Q 2925 4625 3000 4975 
z
M 1875 5250 
L 2425 5000 
L 2225 4825 
L 2225 3675 
L 2850 3675 
L 3125 3950 
L 3550 3525 
L 2225 3525 
L 2225 3300 
Q 2800 3175 2937 3062 
Q 3075 2950 3075 2775 
Q 3075 2700 3050 2587 
Q 3025 2475 2975 2475 
Q 2925 2475 2800 2650 
Q 2600 2925 2225 3175 
L 2225 2400 
L 1925 2200 
L 2275 2050 
Q 2150 2000 1950 1675 
L 2725 1675 
L 2900 1900 
L 3275 1575 
L 3050 1450 
Q 2800 875 2600 650 
Q 3000 550 3137 437 
Q 3275 325 3275 150 
Q 3275 -25 3200 -25 
Q 3125 -25 3025 75 
Q 2750 275 2400 425 
Q 1525 -275 325 -500 
L 300 -425 
Q 1450 -50 2100 550 
Q 1600 725 1125 800 
Q 1225 950 1525 1525 
L 1200 1525 
Q 875 1525 600 1450 
L 375 1675 
L 1575 1675 
Q 1675 1925 1775 2275 
L 1900 2225 
L 1900 3250 
Q 1225 2475 350 2050 
L 300 2125 
Q 1225 2775 1700 3525 
L 1250 3525 
Q 925 3525 650 3450 
L 425 3675 
L 1900 3675 
Q 1900 4575 1875 5250 
z
M 3925 3525 
Q 4050 2075 4525 1100 
Q 4925 1950 5025 3525 
L 3925 3525 
z
M 4050 5250 
L 4625 4925 
Q 4425 4850 4325 4625 
Q 4225 4400 3950 3675 
L 5375 3675 
L 5675 3975 
L 6125 3525 
L 5400 3525 
Q 5250 1675 4750 775 
Q 5325 75 6100 -100 
L 6100 -200 
Q 5625 -275 5600 -500 
Q 4950 -50 4525 525 
Q 3700 -275 2550 -650 
L 2500 -575 
Q 3650 -50 4325 800 
Q 3850 1975 3825 3375 
Q 3575 2725 3100 2150 
L 3025 2200 
Q 3625 3200 4050 5250 
z
" transform="scale(0.015625)"/>
      <path id="TimesNewRomanPSMT-58" d="M 2613 2347 
L 3522 991 
Q 3900 428 4083 279 
Q 4266 131 4547 116 
L 4547 0 
L 2728 0 
L 2728 116 
Q 2909 119 2997 153 
Q 3063 181 3105 239 
Q 3147 297 3147 356 
Q 3147 428 3119 500 
Q 3097 553 2947 775 
L 2228 1863 
L 1341 725 
Q 1200 544 1172 483 
Q 1144 422 1144 356 
Q 1144 256 1228 190 
Q 1313 125 1550 116 
L 1550 0 
L 47 0 
L 47 116 
Q 206 131 322 181 
Q 516 263 691 400 
Q 866 538 1091 822 
L 2091 2084 
L 1256 3306 
Q 916 3803 678 3958 
Q 441 4113 131 4122 
L 131 4238 
L 2091 4238 
L 2091 4122 
Q 1841 4113 1748 4041 
Q 1656 3969 1656 3881 
Q 1656 3766 1806 3544 
L 2456 2572 
L 3209 3525 
Q 3341 3694 3370 3756 
Q 3400 3819 3400 3884 
Q 3400 3950 3363 4000 
Q 3316 4066 3244 4092 
Q 3172 4119 2947 4122 
L 2947 4238 
L 4450 4238 
L 4450 4122 
Q 4272 4113 4159 4066 
Q 3991 3994 3850 3872 
Q 3709 3750 3453 3422 
L 2613 2347 
z
" transform="scale(0.015625)"/>
      <path id="TimesNewRomanPSMT-7e" d="M 3256 2109 
L 3397 2109 
Q 3384 1703 3165 1473 
Q 2947 1244 2631 1244 
Q 2488 1244 2322 1292 
Q 2156 1341 1466 1622 
Q 984 1822 781 1822 
Q 563 1822 413 1687 
Q 263 1553 200 1250 
L 63 1250 
Q 81 1672 293 1895 
Q 506 2119 794 2119 
Q 931 2119 1075 2075 
Q 1400 1981 1929 1754 
Q 2459 1528 2675 1528 
Q 2909 1528 3068 1678 
Q 3228 1828 3256 2109 
z
" transform="scale(0.015625)"/>
      <path id="TimesNewRomanPSMT-4e" d="M -84 4238 
L 1066 4238 
L 3656 1059 
L 3656 3503 
Q 3656 3894 3569 3991 
Q 3453 4122 3203 4122 
L 3056 4122 
L 3056 4238 
L 4531 4238 
L 4531 4122 
L 4381 4122 
Q 4113 4122 4000 3959 
Q 3931 3859 3931 3503 
L 3931 -69 
L 3819 -69 
L 1025 3344 
L 1025 734 
Q 1025 344 1109 247 
Q 1228 116 1475 116 
L 1625 116 
L 1625 0 
L 150 0 
L 150 116 
L 297 116 
Q 569 116 681 278 
Q 750 378 750 734 
L 750 3681 
Q 566 3897 470 3965 
Q 375 4034 191 4094 
Q 100 4122 -84 4122 
L -84 4238 
z
" transform="scale(0.015625)"/>
      <path id="TimesNewRomanPSMT-2c" d="M 344 -1066 
L 344 -928 
Q 666 -822 842 -598 
Q 1019 -375 1019 -125 
Q 1019 -66 991 -25 
Q 969 3 947 3 
Q 913 3 797 -59 
Q 741 -88 678 -88 
Q 525 -88 434 3 
Q 344 94 344 253 
Q 344 406 461 515 
Q 578 625 747 625 
Q 953 625 1114 445 
Q 1275 266 1275 -31 
Q 1275 -353 1051 -629 
Q 828 -906 344 -1066 
z
" transform="scale(0.015625)"/>
     </defs>
     <use xlink:href="#TimesNewRomanPSMT-74"/>
     <use xlink:href="#TimesNewRomanPSMT-28" x="27.783203"/>
     <use xlink:href="#TimesNewRomanPSMT-3b1" x="61.083984"/>
     <use xlink:href="#TimesNewRomanPSMT-29" x="113.476562"/>
     <use xlink:href="#SimSun-5206" x="146.777344"/>
     <use xlink:href="#SimSun-4f4d" x="246.777344"/>
     <use xlink:href="#SimSun-70b9" x="346.777344"/>
     <use xlink:href="#SimSun-51fd" x="446.777344"/>
     <use xlink:href="#SimSun-6570" x="546.777344"/>
     <use xlink:href="#TimesNewRomanPSMT-28" x="646.777344"/>
     <use xlink:href="#TimesNewRomanPSMT-58" x="680.078125"/>
     <use xlink:href="#TimesNewRomanPSMT-7e" x="752.294922"/>
     <use xlink:href="#TimesNewRomanPSMT-4e" x="806.396484"/>
     <use xlink:href="#TimesNewRomanPSMT-28" x="878.613281"/>
     <use xlink:href="#TimesNewRomanPSMT-33" x="911.914062"/>
     <use xlink:href="#TimesNewRomanPSMT-30" x="961.914062"/>
     <use xlink:href="#TimesNewRomanPSMT-2c" x="1011.914062"/>
     <use xlink:href="#TimesNewRomanPSMT-31" x="1036.914062"/>
     <use xlink:href="#TimesNewRomanPSMT-30" x="1086.914062"/>
     <use xlink:href="#TimesNewRomanPSMT-30" x="1136.914062"/>
     <use xlink:href="#TimesNewRomanPSMT-29" x="1186.914062"/>
     <use xlink:href="#TimesNewRomanPSMT-29" x="1220.214844"/>
    </g>
   </g>
   <g id="legend_1">
    <g id="patch_7">
     <path d="M 64.6 162.5845 
L 122.8 162.5845 
Q 124.8 162.5845 124.8 160.5845 
L 124.8 48.472 
Q 124.8 46.472 122.8 46.472 
L 64.6 46.472 
Q 62.6 46.472 62.6 48.472 
L 62.6 160.5845 
Q 62.6 162.5845 64.6 162.5845 
z
" style="fill: #ffffff; opacity: 0.8; stroke: #cccccc; stroke-linejoin: miter"/>
    </g>
    <g id="line2d_22">
     <path d="M 66.6 53.972 
L 76.6 53.972 
L 86.6 53.972 
" style="fill: none; stroke: #00ffff; stroke-width: 0.6; stroke-linecap: square"/>
    </g>
    <g id="text_17">
     <!-- S=30 -->
     <g transform="translate(94.6 57.472) scale(0.1 -0.1)">
      <defs>
       <path id="TimesNewRomanPSMT-53" d="M 2934 4334 
L 2934 2869 
L 2819 2869 
Q 2763 3291 2617 3541 
Q 2472 3791 2203 3937 
Q 1934 4084 1647 4084 
Q 1322 4084 1109 3886 
Q 897 3688 897 3434 
Q 897 3241 1031 3081 
Q 1225 2847 1953 2456 
Q 2547 2138 2764 1967 
Q 2981 1797 3098 1565 
Q 3216 1334 3216 1081 
Q 3216 600 2842 251 
Q 2469 -97 1881 -97 
Q 1697 -97 1534 -69 
Q 1438 -53 1133 45 
Q 828 144 747 144 
Q 669 144 623 97 
Q 578 50 556 -97 
L 441 -97 
L 441 1356 
L 556 1356 
Q 638 900 775 673 
Q 913 447 1195 297 
Q 1478 147 1816 147 
Q 2206 147 2432 353 
Q 2659 559 2659 841 
Q 2659 997 2573 1156 
Q 2488 1316 2306 1453 
Q 2184 1547 1640 1851 
Q 1097 2156 867 2337 
Q 638 2519 519 2737 
Q 400 2956 400 3219 
Q 400 3675 750 4004 
Q 1100 4334 1641 4334 
Q 1978 4334 2356 4169 
Q 2531 4091 2603 4091 
Q 2684 4091 2736 4139 
Q 2788 4188 2819 4334 
L 2934 4334 
z
" transform="scale(0.015625)"/>
       <path id="TimesNewRomanPSMT-3d" d="M 116 2759 
L 3488 2759 
L 3488 2503 
L 116 2503 
L 116 2759 
z
M 116 1741 
L 3488 1741 
L 3488 1484 
L 116 1484 
L 116 1741 
z
" transform="scale(0.015625)"/>
      </defs>
      <use xlink:href="#TimesNewRomanPSMT-53"/>
      <use xlink:href="#TimesNewRomanPSMT-3d" x="55.615234"/>
      <use xlink:href="#TimesNewRomanPSMT-33" x="112.011719"/>
      <use xlink:href="#TimesNewRomanPSMT-30" x="162.011719"/>
     </g>
    </g>
    <g id="line2d_23">
     <path d="M 66.6 68.111063 
L 76.6 68.111063 
L 86.6 68.111063 
" style="fill: none; stroke: #0000ff; stroke-width: 0.6; stroke-linecap: square"/>
    </g>
    <g id="text_18">
     <!-- S=40 -->
     <g transform="translate(94.6 71.611063) scale(0.1 -0.1)">
      <use xlink:href="#TimesNewRomanPSMT-53"/>
      <use xlink:href="#TimesNewRomanPSMT-3d" x="55.615234"/>
      <use xlink:href="#TimesNewRomanPSMT-34" x="112.011719"/>
      <use xlink:href="#TimesNewRomanPSMT-30" x="162.011719"/>
     </g>
    </g>
    <g id="line2d_24">
     <path d="M 66.6 82.250125 
L 76.6 82.250125 
L 86.6 82.250125 
" style="fill: none; stroke: #8a2be2; stroke-width: 0.6; stroke-linecap: square"/>
    </g>
    <g id="text_19">
     <!-- S=50 -->
     <g transform="translate(94.6 85.750125) scale(0.1 -0.1)">
      <defs>
       <path id="TimesNewRomanPSMT-35" d="M 2778 4238 
L 2534 3706 
L 1259 3706 
L 981 3138 
Q 1809 3016 2294 2522 
Q 2709 2097 2709 1522 
Q 2709 1188 2573 903 
Q 2438 619 2231 419 
Q 2025 219 1772 97 
Q 1413 -75 1034 -75 
Q 653 -75 479 54 
Q 306 184 306 341 
Q 306 428 378 495 
Q 450 563 559 563 
Q 641 563 702 538 
Q 763 513 909 409 
Q 1144 247 1384 247 
Q 1750 247 2026 523 
Q 2303 800 2303 1197 
Q 2303 1581 2056 1914 
Q 1809 2247 1375 2428 
Q 1034 2569 447 2591 
L 1259 4238 
L 2778 4238 
z
" transform="scale(0.015625)"/>
      </defs>
      <use xlink:href="#TimesNewRomanPSMT-53"/>
      <use xlink:href="#TimesNewRomanPSMT-3d" x="55.615234"/>
      <use xlink:href="#TimesNewRomanPSMT-35" x="112.011719"/>
      <use xlink:href="#TimesNewRomanPSMT-30" x="162.011719"/>
     </g>
    </g>
    <g id="line2d_25">
     <path d="M 66.6 96.389188 
L 76.6 96.389188 
L 86.6 96.389188 
" style="fill: none; stroke: #7fff00; stroke-width: 0.6; stroke-linecap: square"/>
    </g>
    <g id="text_20">
     <!-- S=60 -->
     <g transform="translate(94.6 99.889188) scale(0.1 -0.1)">
      <use xlink:href="#TimesNewRomanPSMT-53"/>
      <use xlink:href="#TimesNewRomanPSMT-3d" x="55.615234"/>
      <use xlink:href="#TimesNewRomanPSMT-36" x="112.011719"/>
      <use xlink:href="#TimesNewRomanPSMT-30" x="162.011719"/>
     </g>
    </g>
    <g id="line2d_26">
     <path d="M 66.6 110.52825 
L 76.6 110.52825 
L 86.6 110.52825 
" style="fill: none; stroke: #d2691e; stroke-width: 0.6; stroke-linecap: square"/>
    </g>
    <g id="text_21">
     <!-- S=70 -->
     <g transform="translate(94.6 114.02825) scale(0.1 -0.1)">
      <defs>
       <path id="TimesNewRomanPSMT-37" d="M 644 4238 
L 2916 4238 
L 2916 4119 
L 1503 -88 
L 1153 -88 
L 2419 3728 
L 1253 3728 
Q 900 3728 750 3644 
Q 488 3500 328 3200 
L 238 3234 
L 644 4238 
z
" transform="scale(0.015625)"/>
      </defs>
      <use xlink:href="#TimesNewRomanPSMT-53"/>
      <use xlink:href="#TimesNewRomanPSMT-3d" x="55.615234"/>
      <use xlink:href="#TimesNewRomanPSMT-37" x="112.011719"/>
      <use xlink:href="#TimesNewRomanPSMT-30" x="162.011719"/>
     </g>
    </g>
    <g id="line2d_27">
     <path d="M 66.6 124.667313 
L 76.6 124.667313 
L 86.6 124.667313 
" style="fill: none; stroke: #dc143c; stroke-width: 0.6; stroke-linecap: square"/>
    </g>
    <g id="text_22">
     <!-- S=80 -->
     <g transform="translate(94.6 128.167313) scale(0.1 -0.1)">
      <use xlink:href="#TimesNewRomanPSMT-53"/>
      <use xlink:href="#TimesNewRomanPSMT-3d" x="55.615234"/>
      <use xlink:href="#TimesNewRomanPSMT-38" x="112.011719"/>
      <use xlink:href="#TimesNewRomanPSMT-30" x="162.011719"/>
     </g>
    </g>
    <g id="line2d_28">
     <path d="M 66.6 138.806375 
L 76.6 138.806375 
L 86.6 138.806375 
" style="fill: none; stroke: #006400; stroke-width: 0.6; stroke-linecap: square"/>
    </g>
    <g id="text_23">
     <!-- S=90 -->
     <g transform="translate(94.6 142.306375) scale(0.1 -0.1)">
      <defs>
       <path id="TimesNewRomanPSMT-39" d="M 338 -88 
L 338 28 
Q 744 34 1094 217 
Q 1444 400 1770 856 
Q 2097 1313 2225 1859 
Q 1734 1544 1338 1544 
Q 891 1544 572 1889 
Q 253 2234 253 2806 
Q 253 3363 572 3797 
Q 956 4325 1575 4325 
Q 2097 4325 2469 3894 
Q 2925 3359 2925 2575 
Q 2925 1869 2578 1258 
Q 2231 647 1613 244 
Q 1109 -88 516 -88 
L 338 -88 
z
M 2275 2091 
Q 2331 2497 2331 2741 
Q 2331 3044 2228 3395 
Q 2125 3747 1936 3934 
Q 1747 4122 1506 4122 
Q 1228 4122 1018 3872 
Q 809 3622 809 3128 
Q 809 2469 1088 2097 
Q 1291 1828 1588 1828 
Q 1731 1828 1928 1897 
Q 2125 1966 2275 2091 
z
" transform="scale(0.015625)"/>
      </defs>
      <use xlink:href="#TimesNewRomanPSMT-53"/>
      <use xlink:href="#TimesNewRomanPSMT-3d" x="55.615234"/>
      <use xlink:href="#TimesNewRomanPSMT-39" x="112.011719"/>
      <use xlink:href="#TimesNewRomanPSMT-30" x="162.011719"/>
     </g>
    </g>
    <g id="line2d_29">
     <path d="M 66.6 152.945438 
L 76.6 152.945438 
L 86.6 152.945438 
" style="fill: none; stroke: #bdb76b; stroke-width: 0.6; stroke-linecap: square"/>
    </g>
    <g id="text_24">
     <!-- S=100 -->
     <g transform="translate(94.6 156.445438) scale(0.1 -0.1)">
      <use xlink:href="#TimesNewRomanPSMT-53"/>
      <use xlink:href="#TimesNewRomanPSMT-3d" x="55.615234"/>
      <use xlink:href="#TimesNewRomanPSMT-31" x="112.011719"/>
      <use xlink:href="#TimesNewRomanPSMT-30" x="162.011719"/>
      <use xlink:href="#TimesNewRomanPSMT-30" x="212.011719"/>
     </g>
    </g>
   </g>
  </g>
 </g>
 <defs>
  <clipPath id="p0f90e05ca6">
   <rect x="57.6" y="41.472" width="357.12" height="266.112"/>
  </clipPath>
 </defs>
</svg>
